M48
; DRILL file {KiCad 9.0.8-9.0.8~ubuntu24.04.1} date 2026-05-16T10:34:29+0200
; FORMAT={-:-/ absolute / metric / decimal}
; #@! TF.CreationDate,2026-05-16T10:34:29+02:00
; #@! TF.GenerationSoftware,Kicad,Pcbnew,9.0.8-9.0.8~ubuntu24.04.1
; #@! TF.FileFunction,MixedPlating,1,2
FMAT,2
METRIC
; #@! TA.AperFunction,Plated,PTH,ViaDrill
T1C0.300
; #@! TA.AperFunction,Plated,PTH,ComponentDrill
T2C1.000
%
G90
G05
T1
X12.0Y-72.8
X22.0Y-72.8
X32.0Y-72.8
X42.0Y-72.8
X52.0Y-72.8
X62.0Y-72.8
X72.0Y-72.8
X82.0Y-72.8
T2
X13.17Y-6.5
X13.17Y-75.5
X15.71Y-6.5
X15.71Y-75.5
X18.25Y-6.5
X18.25Y-75.5
X20.79Y-6.5
X20.79Y-75.5
X23.33Y-6.5
X23.33Y-75.5
X25.87Y-6.5
X25.87Y-75.5
X28.41Y-6.5
X28.41Y-75.5
X30.95Y-6.5
X30.95Y-75.5
X33.49Y-6.5
X33.49Y-75.5
X36.03Y-6.5
X36.03Y-75.5
X38.57Y-6.5
X38.57Y-75.5
X41.11Y-6.5
X41.11Y-75.5
X43.65Y-6.5
X43.65Y-75.5
X46.19Y-6.5
X46.19Y-75.5
X48.73Y-6.5
X48.73Y-75.5
X51.27Y-6.5
X51.27Y-75.5
X53.81Y-6.5
X53.81Y-75.5
X56.35Y-6.5
X56.35Y-75.5
X58.89Y-6.5
X58.89Y-75.5
X61.43Y-6.5
X61.43Y-75.5
X63.97Y-6.5
X63.97Y-75.5
X66.51Y-6.5
X66.51Y-75.5
X69.05Y-6.5
X69.05Y-75.5
X71.59Y-6.5
X71.59Y-75.5
X74.13Y-6.5
X74.13Y-75.5
X76.67Y-6.5
X76.67Y-75.5
X79.21Y-6.5
X79.21Y-75.5
X81.75Y-6.5
X81.75Y-75.5
X84.29Y-6.5
X84.29Y-75.5
X86.83Y-6.5
X86.83Y-75.5
M30
