M48
; DRILL file {KiCad 9.0.8-9.0.8~ubuntu24.04.1} date 2026-05-20T20:17:35+0200
; FORMAT={-:-/ absolute / metric / decimal}
; #@! TF.CreationDate,2026-05-20T20:17:35+02:00
; #@! TF.GenerationSoftware,Kicad,Pcbnew,9.0.8-9.0.8~ubuntu24.04.1
; #@! TF.FileFunction,MixedPlating,1,2
FMAT,2
METRIC
; #@! TA.AperFunction,Plated,PTH,ViaDrill
T1C0.300
; #@! TA.AperFunction,Plated,PTH,ComponentDrill
T2C1.000
%
G90
G05
T1
X4.0Y-16.0
X8.5Y-81.0
X17.29Y-75.0
X18.2Y-76.8
X18.5Y-81.0
X28.5Y-81.0
X37.61Y-75.0
X38.2Y-76.8
X38.5Y-81.0
X48.5Y-81.0
X57.93Y-75.0
X58.2Y-76.8
X58.5Y-81.0
X68.5Y-81.0
X78.2Y-76.8
X78.25Y-75.0
X78.5Y-81.0
X88.0Y-16.0
T2
X7.13Y-13.5
X7.13Y-85.0
X9.67Y-13.5
X9.67Y-85.0
X12.21Y-13.5
X12.21Y-85.0
X14.75Y-13.5
X14.75Y-85.0
X17.29Y-13.5
X17.29Y-85.0
X19.83Y-13.5
X19.83Y-85.0
X22.37Y-13.5
X22.37Y-85.0
X24.91Y-13.5
X24.91Y-85.0
X27.45Y-13.5
X27.45Y-85.0
X29.99Y-13.5
X29.99Y-85.0
X32.53Y-13.5
X32.53Y-85.0
X35.07Y-13.5
X35.07Y-85.0
X37.61Y-13.5
X37.61Y-85.0
X40.15Y-13.5
X40.15Y-85.0
X42.69Y-13.5
X42.69Y-85.0
X45.23Y-13.5
X45.23Y-85.0
X47.77Y-13.5
X47.77Y-85.0
X50.31Y-13.5
X50.31Y-85.0
X52.85Y-13.5
X52.85Y-85.0
X55.39Y-13.5
X55.39Y-85.0
X57.93Y-13.5
X57.93Y-85.0
X60.47Y-13.5
X60.47Y-85.0
X63.01Y-13.5
X63.01Y-85.0
X65.55Y-13.5
X65.55Y-85.0
X68.09Y-13.5
X68.09Y-85.0
X70.63Y-13.5
X70.63Y-85.0
X73.17Y-13.5
X73.17Y-85.0
X75.71Y-13.5
X75.71Y-85.0
X78.25Y-13.5
X78.25Y-85.0
X80.79Y-13.5
X80.79Y-85.0
X83.33Y-13.5
X83.33Y-85.0
X85.87Y-13.5
X85.87Y-85.0
M30
