M48
; DRILL file {KiCad 9.0.8-9.0.8~ubuntu24.04.1} date 2026-05-16T16:56:05+0200
; FORMAT={-:-/ absolute / metric / decimal}
; #@! TF.CreationDate,2026-05-16T16:56:05+02:00
; #@! TF.GenerationSoftware,Kicad,Pcbnew,9.0.8-9.0.8~ubuntu24.04.1
; #@! TF.FileFunction,MixedPlating,1,2
FMAT,2
METRIC
; #@! TA.AperFunction,Plated,PTH,ViaDrill
T1C0.300
; #@! TA.AperFunction,Plated,PTH,ComponentDrill
T2C1.000
%
G90
G05
T1
X7.0Y-16.0
X7.0Y-89.5
X9.5Y-81.0
X19.5Y-81.0
X20.5Y-76.5
X29.5Y-81.0
X39.5Y-81.0
X40.5Y-76.5
X49.5Y-81.0
X59.5Y-81.0
X60.5Y-76.5
X69.5Y-81.0
X79.5Y-81.0
X80.5Y-76.5
X88.0Y-16.0
X88.0Y-89.5
T2
X8.13Y-85.0
X10.67Y-13.5
X10.67Y-85.0
X13.21Y-13.5
X13.21Y-85.0
X15.75Y-13.5
X15.75Y-85.0
X18.29Y-13.5
X18.29Y-85.0
X20.83Y-13.5
X20.83Y-85.0
X23.37Y-13.5
X23.37Y-85.0
X25.91Y-13.5
X25.91Y-85.0
X28.45Y-13.5
X28.45Y-85.0
X30.99Y-13.5
X30.99Y-85.0
X33.53Y-13.5
X33.53Y-85.0
X36.07Y-13.5
X36.07Y-85.0
X38.61Y-13.5
X38.61Y-85.0
X41.15Y-13.5
X41.15Y-85.0
X43.69Y-13.5
X43.69Y-85.0
X46.23Y-13.5
X46.23Y-85.0
X48.77Y-13.5
X48.77Y-85.0
X51.31Y-13.5
X51.31Y-85.0
X53.85Y-13.5
X53.85Y-85.0
X56.39Y-13.5
X56.39Y-85.0
X58.93Y-13.5
X58.93Y-85.0
X61.47Y-13.5
X61.47Y-85.0
X64.01Y-13.5
X64.01Y-85.0
X66.55Y-13.5
X66.55Y-85.0
X69.09Y-13.5
X69.09Y-85.0
X71.63Y-13.5
X71.63Y-85.0
X74.17Y-13.5
X74.17Y-85.0
X76.71Y-13.5
X76.71Y-85.0
X79.25Y-13.5
X79.25Y-85.0
X81.79Y-13.5
X81.79Y-85.0
X84.33Y-13.5
X84.33Y-85.0
X86.87Y-85.0
M30
