%TF.GenerationSoftware,KiCad,Pcbnew,9.0.8-9.0.8~ubuntu24.04.1*%
%TF.CreationDate,2026-05-16T14:51:09+02:00*%
%TF.ProjectId,tud-microled-v2,7475642d-6d69-4637-926f-6c65642d7632,v2.0*%
%TF.SameCoordinates,Original*%
%TF.FileFunction,Copper,L2,Bot*%
%TF.FilePolarity,Positive*%
%FSLAX46Y46*%
G04 Gerber Fmt 4.6, Leading zero omitted, Abs format (unit mm)*
G04 Created by KiCad (PCBNEW 9.0.8-9.0.8~ubuntu24.04.1) date 2026-05-16 14:51:09*
%MOMM*%
%LPD*%
G01*
G04 APERTURE LIST*
%TA.AperFunction,ComponentPad*%
%ADD10C,1.700000*%
%TD*%
%TA.AperFunction,ViaPad*%
%ADD11C,0.600000*%
%TD*%
%TA.AperFunction,Conductor*%
%ADD12C,0.800000*%
%TD*%
G04 APERTURE END LIST*
D10*
%TO.P,H_N_7,1*%
%TO.N,N/C*%
X28410000Y-13500000D03*
%TD*%
%TO.P,H_N_10,1*%
%TO.N,N/C*%
X36030000Y-13500000D03*
%TD*%
%TO.P,H_N_5,1*%
%TO.N,N/C*%
X23330000Y-13500000D03*
%TD*%
%TO.P,H_N_9,1*%
%TO.N,N/C*%
X33490000Y-13500000D03*
%TD*%
%TO.P,H_N_26,1*%
%TO.N,N/C*%
X76670000Y-13500000D03*
%TD*%
%TO.P,H_N_18,1*%
%TO.N,N/C*%
X56350000Y-13500000D03*
%TD*%
%TO.P,H_N_8,1*%
%TO.N,N/C*%
X30950000Y-13500000D03*
%TD*%
%TO.P,H_N_3,1*%
%TO.N,N/C*%
X18250000Y-13500000D03*
%TD*%
%TO.P,H_S_30,1*%
%TO.N,LED8_KG*%
X84290000Y-89000000D03*
%TD*%
%TO.P,H_S_20,1*%
%TO.N,LED5_KR*%
X58890000Y-89000000D03*
%TD*%
%TO.P,H_S_2,1*%
%TO.N,LED1_KG*%
X13170000Y-89000000D03*
%TD*%
%TO.P,H_S_19,1*%
%TO.N,LED5_KB*%
X56350000Y-89000000D03*
%TD*%
%TO.P,H_S_27,1*%
%TO.N,LED7_KB*%
X76670000Y-89000000D03*
%TD*%
%TO.P,H_S_9,1*%
%TO.N,LED_VCC*%
X30950000Y-89000000D03*
%TD*%
%TO.P,H_S_24,1*%
%TO.N,LED6_KR*%
X69050000Y-89000000D03*
%TD*%
%TO.P,H_N_1,1*%
%TO.N,N/C*%
X13170000Y-13500000D03*
%TD*%
%TO.P,H_N_4,1*%
%TO.N,N/C*%
X20790000Y-13500000D03*
%TD*%
%TO.P,H_N_2,1*%
%TO.N,N/C*%
X15710000Y-13500000D03*
%TD*%
%TO.P,H_N_28,1*%
%TO.N,N/C*%
X81750000Y-13500000D03*
%TD*%
%TO.P,H_N_14,1*%
%TO.N,N/C*%
X46190000Y-13500000D03*
%TD*%
%TO.P,H_N_25,1*%
%TO.N,N/C*%
X74130000Y-13500000D03*
%TD*%
%TO.P,H_S_25,1*%
%TO.N,LED_VCC*%
X71590000Y-89000000D03*
%TD*%
%TO.P,H_S_12,1*%
%TO.N,LED3_KR*%
X38570000Y-89000000D03*
%TD*%
%TO.P,H_N_20,1*%
%TO.N,N/C*%
X61430000Y-13500000D03*
%TD*%
%TO.P,H_S_26,1*%
%TO.N,LED7_KG*%
X74130000Y-89000000D03*
%TD*%
%TO.P,H_N_30,1*%
%TO.N,N/C*%
X86830000Y-13500000D03*
%TD*%
%TO.P,H_S_5,1*%
%TO.N,LED_VCC*%
X20790000Y-89000000D03*
%TD*%
%TO.P,H_N_27,1*%
%TO.N,N/C*%
X79210000Y-13500000D03*
%TD*%
%TO.P,H_S_22,1*%
%TO.N,LED6_KG*%
X63970000Y-89000000D03*
%TD*%
%TO.P,H_S_8,1*%
%TO.N,LED2_KR*%
X28410000Y-89000000D03*
%TD*%
%TO.P,H_S_16,1*%
%TO.N,LED4_KR*%
X48730000Y-89000000D03*
%TD*%
%TO.P,H_N_15,1*%
%TO.N,N/C*%
X48730000Y-13500000D03*
%TD*%
%TO.P,H_S_23,1*%
%TO.N,LED6_KB*%
X66510000Y-89000000D03*
%TD*%
%TO.P,H_S_10,1*%
%TO.N,LED3_KG*%
X33490000Y-89000000D03*
%TD*%
%TO.P,H_S_13,1*%
%TO.N,LED_VCC*%
X41110000Y-89000000D03*
%TD*%
%TO.P,H_S_15,1*%
%TO.N,LED4_KB*%
X46190000Y-89000000D03*
%TD*%
%TO.P,H_S_29,1*%
%TO.N,LED_VCC*%
X81750000Y-89000000D03*
%TD*%
%TO.P,H_S_18,1*%
%TO.N,LED5_KG*%
X53810000Y-89000000D03*
%TD*%
%TO.P,H_N_6,1*%
%TO.N,N/C*%
X25870000Y-13500000D03*
%TD*%
%TO.P,H_N_11,1*%
%TO.N,N/C*%
X38570000Y-13500000D03*
%TD*%
%TO.P,H_S_6,1*%
%TO.N,LED2_KG*%
X23330000Y-89000000D03*
%TD*%
%TO.P,H_N_23,1*%
%TO.N,N/C*%
X69050000Y-13500000D03*
%TD*%
%TO.P,H_N_24,1*%
%TO.N,N/C*%
X71590000Y-13500000D03*
%TD*%
%TO.P,H_N_22,1*%
%TO.N,N/C*%
X66510000Y-13500000D03*
%TD*%
%TO.P,H_S_17,1*%
%TO.N,LED_VCC*%
X51270000Y-89000000D03*
%TD*%
%TO.P,H_S_4,1*%
%TO.N,LED1_KR*%
X18250000Y-89000000D03*
%TD*%
%TO.P,H_N_13,1*%
%TO.N,N/C*%
X43650000Y-13500000D03*
%TD*%
%TO.P,H_S_21,1*%
%TO.N,LED_VCC*%
X61430000Y-89000000D03*
%TD*%
%TO.P,H_N_21,1*%
%TO.N,N/C*%
X63970000Y-13500000D03*
%TD*%
%TO.P,H_N_12,1*%
%TO.N,N/C*%
X41110000Y-13500000D03*
%TD*%
%TO.P,H_S_31,1*%
%TO.N,LED8_KB*%
X86830000Y-89000000D03*
%TD*%
%TO.P,H_S_3,1*%
%TO.N,LED1_KB*%
X15710000Y-89000000D03*
%TD*%
%TO.P,H_N_29,1*%
%TO.N,N/C*%
X84290000Y-13500000D03*
%TD*%
%TO.P,H_S_32,1*%
%TO.N,LED8_KR*%
X89370000Y-89000000D03*
%TD*%
%TO.P,H_N_16,1*%
%TO.N,N/C*%
X51270000Y-13500000D03*
%TD*%
%TO.P,H_N_17,1*%
%TO.N,N/C*%
X53810000Y-13500000D03*
%TD*%
%TO.P,H_S_14,1*%
%TO.N,LED4_KG*%
X43650000Y-89000000D03*
%TD*%
%TO.P,H_S_28,1*%
%TO.N,LED7_KR*%
X79210000Y-89000000D03*
%TD*%
%TO.P,H_S_11,1*%
%TO.N,LED3_KB*%
X36030000Y-89000000D03*
%TD*%
%TO.P,H_N_19,1*%
%TO.N,N/C*%
X58890000Y-13500000D03*
%TD*%
%TO.P,H_S_1,1*%
%TO.N,LED_VCC*%
X10630000Y-89000000D03*
%TD*%
%TO.P,H_S_7,1*%
%TO.N,LED2_KB*%
X25870000Y-89000000D03*
%TD*%
D11*
%TO.N,LED_VCC*%
X62000000Y-85500000D03*
X52000000Y-85500000D03*
X82000000Y-85500000D03*
X32000000Y-85500000D03*
X12000000Y-85500000D03*
X72000000Y-85500000D03*
X42000000Y-85500000D03*
X22000000Y-85500000D03*
%TO.N,GND*%
X60500000Y-79600000D03*
X7000000Y-92500000D03*
X40500000Y-79600000D03*
X7000000Y-14500000D03*
X20500000Y-79600000D03*
X93000000Y-92500000D03*
X80500000Y-79600000D03*
X93000000Y-14500000D03*
%TD*%
D12*
%TO.N,LED_VCC*%
X52000000Y-85500000D02*
X62000000Y-85500000D01*
X72000000Y-85500000D02*
X82000000Y-85500000D01*
X12000000Y-85500000D02*
X22000000Y-85500000D01*
X62000000Y-85500000D02*
X72000000Y-85500000D01*
X22000000Y-85500000D02*
X32000000Y-85500000D01*
X42000000Y-85500000D02*
X52000000Y-85500000D01*
X32000000Y-85500000D02*
X42000000Y-85500000D01*
%TD*%
%TA.AperFunction,Conductor*%
%TO.N,GND*%
G36*
X97459191Y-2518907D02*
G01*
X97495155Y-2568407D01*
X97500000Y-2599000D01*
X97500000Y-97401000D01*
X97481093Y-97459191D01*
X97431593Y-97495155D01*
X97401000Y-97500000D01*
X2599000Y-97500000D01*
X2540809Y-97481093D01*
X2504845Y-97431593D01*
X2500000Y-97401000D01*
X2500000Y-88896532D01*
X9579500Y-88896532D01*
X9579500Y-89103467D01*
X9619869Y-89306418D01*
X9699058Y-89497597D01*
X9699059Y-89497598D01*
X9814023Y-89669655D01*
X9960345Y-89815977D01*
X10132402Y-89930941D01*
X10323580Y-90010130D01*
X10526535Y-90050500D01*
X10526536Y-90050500D01*
X10733464Y-90050500D01*
X10733465Y-90050500D01*
X10936420Y-90010130D01*
X11127598Y-89930941D01*
X11299655Y-89815977D01*
X11445977Y-89669655D01*
X11560941Y-89497598D01*
X11640130Y-89306420D01*
X11680500Y-89103465D01*
X11680500Y-88896535D01*
X11680499Y-88896532D01*
X12119500Y-88896532D01*
X12119500Y-89103467D01*
X12159869Y-89306418D01*
X12239058Y-89497597D01*
X12239059Y-89497598D01*
X12354023Y-89669655D01*
X12500345Y-89815977D01*
X12672402Y-89930941D01*
X12863580Y-90010130D01*
X13066535Y-90050500D01*
X13066536Y-90050500D01*
X13273464Y-90050500D01*
X13273465Y-90050500D01*
X13476420Y-90010130D01*
X13667598Y-89930941D01*
X13839655Y-89815977D01*
X13985977Y-89669655D01*
X14100941Y-89497598D01*
X14180130Y-89306420D01*
X14220500Y-89103465D01*
X14220500Y-88896535D01*
X14220499Y-88896532D01*
X14659500Y-88896532D01*
X14659500Y-89103467D01*
X14699869Y-89306418D01*
X14779058Y-89497597D01*
X14779059Y-89497598D01*
X14894023Y-89669655D01*
X15040345Y-89815977D01*
X15212402Y-89930941D01*
X15403580Y-90010130D01*
X15606535Y-90050500D01*
X15606536Y-90050500D01*
X15813464Y-90050500D01*
X15813465Y-90050500D01*
X16016420Y-90010130D01*
X16207598Y-89930941D01*
X16379655Y-89815977D01*
X16525977Y-89669655D01*
X16640941Y-89497598D01*
X16720130Y-89306420D01*
X16760500Y-89103465D01*
X16760500Y-88896535D01*
X16760499Y-88896532D01*
X17199500Y-88896532D01*
X17199500Y-89103467D01*
X17239869Y-89306418D01*
X17319058Y-89497597D01*
X17319059Y-89497598D01*
X17434023Y-89669655D01*
X17580345Y-89815977D01*
X17752402Y-89930941D01*
X17943580Y-90010130D01*
X18146535Y-90050500D01*
X18146536Y-90050500D01*
X18353464Y-90050500D01*
X18353465Y-90050500D01*
X18556420Y-90010130D01*
X18747598Y-89930941D01*
X18919655Y-89815977D01*
X19065977Y-89669655D01*
X19180941Y-89497598D01*
X19260130Y-89306420D01*
X19300500Y-89103465D01*
X19300500Y-88896535D01*
X19300499Y-88896532D01*
X19739500Y-88896532D01*
X19739500Y-89103467D01*
X19779869Y-89306418D01*
X19859058Y-89497597D01*
X19859059Y-89497598D01*
X19974023Y-89669655D01*
X20120345Y-89815977D01*
X20292402Y-89930941D01*
X20483580Y-90010130D01*
X20686535Y-90050500D01*
X20686536Y-90050500D01*
X20893464Y-90050500D01*
X20893465Y-90050500D01*
X21096420Y-90010130D01*
X21287598Y-89930941D01*
X21459655Y-89815977D01*
X21605977Y-89669655D01*
X21720941Y-89497598D01*
X21800130Y-89306420D01*
X21840500Y-89103465D01*
X21840500Y-88896535D01*
X21840499Y-88896532D01*
X22279500Y-88896532D01*
X22279500Y-89103467D01*
X22319869Y-89306418D01*
X22399058Y-89497597D01*
X22399059Y-89497598D01*
X22514023Y-89669655D01*
X22660345Y-89815977D01*
X22832402Y-89930941D01*
X23023580Y-90010130D01*
X23226535Y-90050500D01*
X23226536Y-90050500D01*
X23433464Y-90050500D01*
X23433465Y-90050500D01*
X23636420Y-90010130D01*
X23827598Y-89930941D01*
X23999655Y-89815977D01*
X24145977Y-89669655D01*
X24260941Y-89497598D01*
X24340130Y-89306420D01*
X24380500Y-89103465D01*
X24380500Y-88896535D01*
X24380499Y-88896532D01*
X24819500Y-88896532D01*
X24819500Y-89103467D01*
X24859869Y-89306418D01*
X24939058Y-89497597D01*
X24939059Y-89497598D01*
X25054023Y-89669655D01*
X25200345Y-89815977D01*
X25372402Y-89930941D01*
X25563580Y-90010130D01*
X25766535Y-90050500D01*
X25766536Y-90050500D01*
X25973464Y-90050500D01*
X25973465Y-90050500D01*
X26176420Y-90010130D01*
X26367598Y-89930941D01*
X26539655Y-89815977D01*
X26685977Y-89669655D01*
X26800941Y-89497598D01*
X26880130Y-89306420D01*
X26920500Y-89103465D01*
X26920500Y-88896535D01*
X26920499Y-88896532D01*
X27359500Y-88896532D01*
X27359500Y-89103467D01*
X27399869Y-89306418D01*
X27479058Y-89497597D01*
X27479059Y-89497598D01*
X27594023Y-89669655D01*
X27740345Y-89815977D01*
X27912402Y-89930941D01*
X28103580Y-90010130D01*
X28306535Y-90050500D01*
X28306536Y-90050500D01*
X28513464Y-90050500D01*
X28513465Y-90050500D01*
X28716420Y-90010130D01*
X28907598Y-89930941D01*
X29079655Y-89815977D01*
X29225977Y-89669655D01*
X29340941Y-89497598D01*
X29420130Y-89306420D01*
X29460500Y-89103465D01*
X29460500Y-88896535D01*
X29460499Y-88896532D01*
X29899500Y-88896532D01*
X29899500Y-89103467D01*
X29939869Y-89306418D01*
X30019058Y-89497597D01*
X30019059Y-89497598D01*
X30134023Y-89669655D01*
X30280345Y-89815977D01*
X30452402Y-89930941D01*
X30643580Y-90010130D01*
X30846535Y-90050500D01*
X30846536Y-90050500D01*
X31053464Y-90050500D01*
X31053465Y-90050500D01*
X31256420Y-90010130D01*
X31447598Y-89930941D01*
X31619655Y-89815977D01*
X31765977Y-89669655D01*
X31880941Y-89497598D01*
X31960130Y-89306420D01*
X32000500Y-89103465D01*
X32000500Y-88896535D01*
X32000499Y-88896532D01*
X32439500Y-88896532D01*
X32439500Y-89103467D01*
X32479869Y-89306418D01*
X32559058Y-89497597D01*
X32559059Y-89497598D01*
X32674023Y-89669655D01*
X32820345Y-89815977D01*
X32992402Y-89930941D01*
X33183580Y-90010130D01*
X33386535Y-90050500D01*
X33386536Y-90050500D01*
X33593464Y-90050500D01*
X33593465Y-90050500D01*
X33796420Y-90010130D01*
X33987598Y-89930941D01*
X34159655Y-89815977D01*
X34305977Y-89669655D01*
X34420941Y-89497598D01*
X34500130Y-89306420D01*
X34540500Y-89103465D01*
X34540500Y-88896535D01*
X34540499Y-88896532D01*
X34979500Y-88896532D01*
X34979500Y-89103467D01*
X35019869Y-89306418D01*
X35099058Y-89497597D01*
X35099059Y-89497598D01*
X35214023Y-89669655D01*
X35360345Y-89815977D01*
X35532402Y-89930941D01*
X35723580Y-90010130D01*
X35926535Y-90050500D01*
X35926536Y-90050500D01*
X36133464Y-90050500D01*
X36133465Y-90050500D01*
X36336420Y-90010130D01*
X36527598Y-89930941D01*
X36699655Y-89815977D01*
X36845977Y-89669655D01*
X36960941Y-89497598D01*
X37040130Y-89306420D01*
X37080500Y-89103465D01*
X37080500Y-88896535D01*
X37080499Y-88896532D01*
X37519500Y-88896532D01*
X37519500Y-89103467D01*
X37559869Y-89306418D01*
X37639058Y-89497597D01*
X37639059Y-89497598D01*
X37754023Y-89669655D01*
X37900345Y-89815977D01*
X38072402Y-89930941D01*
X38263580Y-90010130D01*
X38466535Y-90050500D01*
X38466536Y-90050500D01*
X38673464Y-90050500D01*
X38673465Y-90050500D01*
X38876420Y-90010130D01*
X39067598Y-89930941D01*
X39239655Y-89815977D01*
X39385977Y-89669655D01*
X39500941Y-89497598D01*
X39580130Y-89306420D01*
X39620500Y-89103465D01*
X39620500Y-88896535D01*
X39620499Y-88896532D01*
X40059500Y-88896532D01*
X40059500Y-89103467D01*
X40099869Y-89306418D01*
X40179058Y-89497597D01*
X40179059Y-89497598D01*
X40294023Y-89669655D01*
X40440345Y-89815977D01*
X40612402Y-89930941D01*
X40803580Y-90010130D01*
X41006535Y-90050500D01*
X41006536Y-90050500D01*
X41213464Y-90050500D01*
X41213465Y-90050500D01*
X41416420Y-90010130D01*
X41607598Y-89930941D01*
X41779655Y-89815977D01*
X41925977Y-89669655D01*
X42040941Y-89497598D01*
X42120130Y-89306420D01*
X42160500Y-89103465D01*
X42160500Y-88896535D01*
X42160499Y-88896532D01*
X42599500Y-88896532D01*
X42599500Y-89103467D01*
X42639869Y-89306418D01*
X42719058Y-89497597D01*
X42719059Y-89497598D01*
X42834023Y-89669655D01*
X42980345Y-89815977D01*
X43152402Y-89930941D01*
X43343580Y-90010130D01*
X43546535Y-90050500D01*
X43546536Y-90050500D01*
X43753464Y-90050500D01*
X43753465Y-90050500D01*
X43956420Y-90010130D01*
X44147598Y-89930941D01*
X44319655Y-89815977D01*
X44465977Y-89669655D01*
X44580941Y-89497598D01*
X44660130Y-89306420D01*
X44700500Y-89103465D01*
X44700500Y-88896535D01*
X44700499Y-88896532D01*
X45139500Y-88896532D01*
X45139500Y-89103467D01*
X45179869Y-89306418D01*
X45259058Y-89497597D01*
X45259059Y-89497598D01*
X45374023Y-89669655D01*
X45520345Y-89815977D01*
X45692402Y-89930941D01*
X45883580Y-90010130D01*
X46086535Y-90050500D01*
X46086536Y-90050500D01*
X46293464Y-90050500D01*
X46293465Y-90050500D01*
X46496420Y-90010130D01*
X46687598Y-89930941D01*
X46859655Y-89815977D01*
X47005977Y-89669655D01*
X47120941Y-89497598D01*
X47200130Y-89306420D01*
X47240500Y-89103465D01*
X47240500Y-88896535D01*
X47240499Y-88896532D01*
X47679500Y-88896532D01*
X47679500Y-89103467D01*
X47719869Y-89306418D01*
X47799058Y-89497597D01*
X47799059Y-89497598D01*
X47914023Y-89669655D01*
X48060345Y-89815977D01*
X48232402Y-89930941D01*
X48423580Y-90010130D01*
X48626535Y-90050500D01*
X48626536Y-90050500D01*
X48833464Y-90050500D01*
X48833465Y-90050500D01*
X49036420Y-90010130D01*
X49227598Y-89930941D01*
X49399655Y-89815977D01*
X49545977Y-89669655D01*
X49660941Y-89497598D01*
X49740130Y-89306420D01*
X49780500Y-89103465D01*
X49780500Y-88896535D01*
X49780499Y-88896532D01*
X50219500Y-88896532D01*
X50219500Y-89103467D01*
X50259869Y-89306418D01*
X50339058Y-89497597D01*
X50339059Y-89497598D01*
X50454023Y-89669655D01*
X50600345Y-89815977D01*
X50772402Y-89930941D01*
X50963580Y-90010130D01*
X51166535Y-90050500D01*
X51166536Y-90050500D01*
X51373464Y-90050500D01*
X51373465Y-90050500D01*
X51576420Y-90010130D01*
X51767598Y-89930941D01*
X51939655Y-89815977D01*
X52085977Y-89669655D01*
X52200941Y-89497598D01*
X52280130Y-89306420D01*
X52320500Y-89103465D01*
X52320500Y-88896535D01*
X52320499Y-88896532D01*
X52759500Y-88896532D01*
X52759500Y-89103467D01*
X52799869Y-89306418D01*
X52879058Y-89497597D01*
X52879059Y-89497598D01*
X52994023Y-89669655D01*
X53140345Y-89815977D01*
X53312402Y-89930941D01*
X53503580Y-90010130D01*
X53706535Y-90050500D01*
X53706536Y-90050500D01*
X53913464Y-90050500D01*
X53913465Y-90050500D01*
X54116420Y-90010130D01*
X54307598Y-89930941D01*
X54479655Y-89815977D01*
X54625977Y-89669655D01*
X54740941Y-89497598D01*
X54820130Y-89306420D01*
X54860500Y-89103465D01*
X54860500Y-88896535D01*
X54860499Y-88896532D01*
X55299500Y-88896532D01*
X55299500Y-89103467D01*
X55339869Y-89306418D01*
X55419058Y-89497597D01*
X55419059Y-89497598D01*
X55534023Y-89669655D01*
X55680345Y-89815977D01*
X55852402Y-89930941D01*
X56043580Y-90010130D01*
X56246535Y-90050500D01*
X56246536Y-90050500D01*
X56453464Y-90050500D01*
X56453465Y-90050500D01*
X56656420Y-90010130D01*
X56847598Y-89930941D01*
X57019655Y-89815977D01*
X57165977Y-89669655D01*
X57280941Y-89497598D01*
X57360130Y-89306420D01*
X57400500Y-89103465D01*
X57400500Y-88896535D01*
X57400499Y-88896532D01*
X57839500Y-88896532D01*
X57839500Y-89103467D01*
X57879869Y-89306418D01*
X57959058Y-89497597D01*
X57959059Y-89497598D01*
X58074023Y-89669655D01*
X58220345Y-89815977D01*
X58392402Y-89930941D01*
X58583580Y-90010130D01*
X58786535Y-90050500D01*
X58786536Y-90050500D01*
X58993464Y-90050500D01*
X58993465Y-90050500D01*
X59196420Y-90010130D01*
X59387598Y-89930941D01*
X59559655Y-89815977D01*
X59705977Y-89669655D01*
X59820941Y-89497598D01*
X59900130Y-89306420D01*
X59940500Y-89103465D01*
X59940500Y-88896535D01*
X59940499Y-88896532D01*
X60379500Y-88896532D01*
X60379500Y-89103467D01*
X60419869Y-89306418D01*
X60499058Y-89497597D01*
X60499059Y-89497598D01*
X60614023Y-89669655D01*
X60760345Y-89815977D01*
X60932402Y-89930941D01*
X61123580Y-90010130D01*
X61326535Y-90050500D01*
X61326536Y-90050500D01*
X61533464Y-90050500D01*
X61533465Y-90050500D01*
X61736420Y-90010130D01*
X61927598Y-89930941D01*
X62099655Y-89815977D01*
X62245977Y-89669655D01*
X62360941Y-89497598D01*
X62440130Y-89306420D01*
X62480500Y-89103465D01*
X62480500Y-88896535D01*
X62480499Y-88896532D01*
X62919500Y-88896532D01*
X62919500Y-89103467D01*
X62959869Y-89306418D01*
X63039058Y-89497597D01*
X63039059Y-89497598D01*
X63154023Y-89669655D01*
X63300345Y-89815977D01*
X63472402Y-89930941D01*
X63663580Y-90010130D01*
X63866535Y-90050500D01*
X63866536Y-90050500D01*
X64073464Y-90050500D01*
X64073465Y-90050500D01*
X64276420Y-90010130D01*
X64467598Y-89930941D01*
X64639655Y-89815977D01*
X64785977Y-89669655D01*
X64900941Y-89497598D01*
X64980130Y-89306420D01*
X65020500Y-89103465D01*
X65020500Y-88896535D01*
X65020499Y-88896532D01*
X65459500Y-88896532D01*
X65459500Y-89103467D01*
X65499869Y-89306418D01*
X65579058Y-89497597D01*
X65579059Y-89497598D01*
X65694023Y-89669655D01*
X65840345Y-89815977D01*
X66012402Y-89930941D01*
X66203580Y-90010130D01*
X66406535Y-90050500D01*
X66406536Y-90050500D01*
X66613464Y-90050500D01*
X66613465Y-90050500D01*
X66816420Y-90010130D01*
X67007598Y-89930941D01*
X67179655Y-89815977D01*
X67325977Y-89669655D01*
X67440941Y-89497598D01*
X67520130Y-89306420D01*
X67560500Y-89103465D01*
X67560500Y-88896535D01*
X67560499Y-88896532D01*
X67999500Y-88896532D01*
X67999500Y-89103467D01*
X68039869Y-89306418D01*
X68119058Y-89497597D01*
X68119059Y-89497598D01*
X68234023Y-89669655D01*
X68380345Y-89815977D01*
X68552402Y-89930941D01*
X68743580Y-90010130D01*
X68946535Y-90050500D01*
X68946536Y-90050500D01*
X69153464Y-90050500D01*
X69153465Y-90050500D01*
X69356420Y-90010130D01*
X69547598Y-89930941D01*
X69719655Y-89815977D01*
X69865977Y-89669655D01*
X69980941Y-89497598D01*
X70060130Y-89306420D01*
X70100500Y-89103465D01*
X70100500Y-88896535D01*
X70100499Y-88896532D01*
X70539500Y-88896532D01*
X70539500Y-89103467D01*
X70579869Y-89306418D01*
X70659058Y-89497597D01*
X70659059Y-89497598D01*
X70774023Y-89669655D01*
X70920345Y-89815977D01*
X71092402Y-89930941D01*
X71283580Y-90010130D01*
X71486535Y-90050500D01*
X71486536Y-90050500D01*
X71693464Y-90050500D01*
X71693465Y-90050500D01*
X71896420Y-90010130D01*
X72087598Y-89930941D01*
X72259655Y-89815977D01*
X72405977Y-89669655D01*
X72520941Y-89497598D01*
X72600130Y-89306420D01*
X72640500Y-89103465D01*
X72640500Y-88896535D01*
X72640499Y-88896532D01*
X73079500Y-88896532D01*
X73079500Y-89103467D01*
X73119869Y-89306418D01*
X73199058Y-89497597D01*
X73199059Y-89497598D01*
X73314023Y-89669655D01*
X73460345Y-89815977D01*
X73632402Y-89930941D01*
X73823580Y-90010130D01*
X74026535Y-90050500D01*
X74026536Y-90050500D01*
X74233464Y-90050500D01*
X74233465Y-90050500D01*
X74436420Y-90010130D01*
X74627598Y-89930941D01*
X74799655Y-89815977D01*
X74945977Y-89669655D01*
X75060941Y-89497598D01*
X75140130Y-89306420D01*
X75180500Y-89103465D01*
X75180500Y-88896535D01*
X75180499Y-88896532D01*
X75619500Y-88896532D01*
X75619500Y-89103467D01*
X75659869Y-89306418D01*
X75739058Y-89497597D01*
X75739059Y-89497598D01*
X75854023Y-89669655D01*
X76000345Y-89815977D01*
X76172402Y-89930941D01*
X76363580Y-90010130D01*
X76566535Y-90050500D01*
X76566536Y-90050500D01*
X76773464Y-90050500D01*
X76773465Y-90050500D01*
X76976420Y-90010130D01*
X77167598Y-89930941D01*
X77339655Y-89815977D01*
X77485977Y-89669655D01*
X77600941Y-89497598D01*
X77680130Y-89306420D01*
X77720500Y-89103465D01*
X77720500Y-88896535D01*
X77720499Y-88896532D01*
X78159500Y-88896532D01*
X78159500Y-89103467D01*
X78199869Y-89306418D01*
X78279058Y-89497597D01*
X78279059Y-89497598D01*
X78394023Y-89669655D01*
X78540345Y-89815977D01*
X78712402Y-89930941D01*
X78903580Y-90010130D01*
X79106535Y-90050500D01*
X79106536Y-90050500D01*
X79313464Y-90050500D01*
X79313465Y-90050500D01*
X79516420Y-90010130D01*
X79707598Y-89930941D01*
X79879655Y-89815977D01*
X80025977Y-89669655D01*
X80140941Y-89497598D01*
X80220130Y-89306420D01*
X80260500Y-89103465D01*
X80260500Y-88896535D01*
X80260499Y-88896532D01*
X80699500Y-88896532D01*
X80699500Y-89103467D01*
X80739869Y-89306418D01*
X80819058Y-89497597D01*
X80819059Y-89497598D01*
X80934023Y-89669655D01*
X81080345Y-89815977D01*
X81252402Y-89930941D01*
X81443580Y-90010130D01*
X81646535Y-90050500D01*
X81646536Y-90050500D01*
X81853464Y-90050500D01*
X81853465Y-90050500D01*
X82056420Y-90010130D01*
X82247598Y-89930941D01*
X82419655Y-89815977D01*
X82565977Y-89669655D01*
X82680941Y-89497598D01*
X82760130Y-89306420D01*
X82800500Y-89103465D01*
X82800500Y-88896535D01*
X82800499Y-88896532D01*
X83239500Y-88896532D01*
X83239500Y-89103467D01*
X83279869Y-89306418D01*
X83359058Y-89497597D01*
X83359059Y-89497598D01*
X83474023Y-89669655D01*
X83620345Y-89815977D01*
X83792402Y-89930941D01*
X83983580Y-90010130D01*
X84186535Y-90050500D01*
X84186536Y-90050500D01*
X84393464Y-90050500D01*
X84393465Y-90050500D01*
X84596420Y-90010130D01*
X84787598Y-89930941D01*
X84959655Y-89815977D01*
X85105977Y-89669655D01*
X85220941Y-89497598D01*
X85300130Y-89306420D01*
X85340500Y-89103465D01*
X85340500Y-88896535D01*
X85340499Y-88896532D01*
X85779500Y-88896532D01*
X85779500Y-89103467D01*
X85819869Y-89306418D01*
X85899058Y-89497597D01*
X85899059Y-89497598D01*
X86014023Y-89669655D01*
X86160345Y-89815977D01*
X86332402Y-89930941D01*
X86523580Y-90010130D01*
X86726535Y-90050500D01*
X86726536Y-90050500D01*
X86933464Y-90050500D01*
X86933465Y-90050500D01*
X87136420Y-90010130D01*
X87327598Y-89930941D01*
X87499655Y-89815977D01*
X87645977Y-89669655D01*
X87760941Y-89497598D01*
X87840130Y-89306420D01*
X87880500Y-89103465D01*
X87880500Y-88896535D01*
X87880499Y-88896532D01*
X88319500Y-88896532D01*
X88319500Y-89103467D01*
X88359869Y-89306418D01*
X88439058Y-89497597D01*
X88439059Y-89497598D01*
X88554023Y-89669655D01*
X88700345Y-89815977D01*
X88872402Y-89930941D01*
X89063580Y-90010130D01*
X89266535Y-90050500D01*
X89266536Y-90050500D01*
X89473464Y-90050500D01*
X89473465Y-90050500D01*
X89676420Y-90010130D01*
X89867598Y-89930941D01*
X90039655Y-89815977D01*
X90185977Y-89669655D01*
X90300941Y-89497598D01*
X90380130Y-89306420D01*
X90420500Y-89103465D01*
X90420500Y-88896535D01*
X90380130Y-88693580D01*
X90300941Y-88502402D01*
X90185977Y-88330345D01*
X90039655Y-88184023D01*
X89867598Y-88069059D01*
X89867599Y-88069059D01*
X89867597Y-88069058D01*
X89676418Y-87989869D01*
X89473467Y-87949500D01*
X89473465Y-87949500D01*
X89266535Y-87949500D01*
X89266532Y-87949500D01*
X89063581Y-87989869D01*
X88872402Y-88069058D01*
X88700348Y-88184020D01*
X88554020Y-88330348D01*
X88439058Y-88502402D01*
X88359869Y-88693581D01*
X88319500Y-88896532D01*
X87880499Y-88896532D01*
X87840130Y-88693580D01*
X87760941Y-88502402D01*
X87645977Y-88330345D01*
X87499655Y-88184023D01*
X87327598Y-88069059D01*
X87327599Y-88069059D01*
X87327597Y-88069058D01*
X87136418Y-87989869D01*
X86933467Y-87949500D01*
X86933465Y-87949500D01*
X86726535Y-87949500D01*
X86726532Y-87949500D01*
X86523581Y-87989869D01*
X86332402Y-88069058D01*
X86160348Y-88184020D01*
X86014020Y-88330348D01*
X85899058Y-88502402D01*
X85819869Y-88693581D01*
X85779500Y-88896532D01*
X85340499Y-88896532D01*
X85300130Y-88693580D01*
X85220941Y-88502402D01*
X85105977Y-88330345D01*
X84959655Y-88184023D01*
X84787598Y-88069059D01*
X84787599Y-88069059D01*
X84787597Y-88069058D01*
X84596418Y-87989869D01*
X84393467Y-87949500D01*
X84393465Y-87949500D01*
X84186535Y-87949500D01*
X84186532Y-87949500D01*
X83983581Y-87989869D01*
X83792402Y-88069058D01*
X83620348Y-88184020D01*
X83474020Y-88330348D01*
X83359058Y-88502402D01*
X83279869Y-88693581D01*
X83239500Y-88896532D01*
X82800499Y-88896532D01*
X82760130Y-88693580D01*
X82680941Y-88502402D01*
X82565977Y-88330345D01*
X82419655Y-88184023D01*
X82247598Y-88069059D01*
X82247599Y-88069059D01*
X82247597Y-88069058D01*
X82056418Y-87989869D01*
X81853467Y-87949500D01*
X81853465Y-87949500D01*
X81646535Y-87949500D01*
X81646532Y-87949500D01*
X81443581Y-87989869D01*
X81252402Y-88069058D01*
X81080348Y-88184020D01*
X80934020Y-88330348D01*
X80819058Y-88502402D01*
X80739869Y-88693581D01*
X80699500Y-88896532D01*
X80260499Y-88896532D01*
X80220130Y-88693580D01*
X80140941Y-88502402D01*
X80025977Y-88330345D01*
X79879655Y-88184023D01*
X79707598Y-88069059D01*
X79707599Y-88069059D01*
X79707597Y-88069058D01*
X79516418Y-87989869D01*
X79313467Y-87949500D01*
X79313465Y-87949500D01*
X79106535Y-87949500D01*
X79106532Y-87949500D01*
X78903581Y-87989869D01*
X78712402Y-88069058D01*
X78540348Y-88184020D01*
X78394020Y-88330348D01*
X78279058Y-88502402D01*
X78199869Y-88693581D01*
X78159500Y-88896532D01*
X77720499Y-88896532D01*
X77680130Y-88693580D01*
X77600941Y-88502402D01*
X77485977Y-88330345D01*
X77339655Y-88184023D01*
X77167598Y-88069059D01*
X77167599Y-88069059D01*
X77167597Y-88069058D01*
X76976418Y-87989869D01*
X76773467Y-87949500D01*
X76773465Y-87949500D01*
X76566535Y-87949500D01*
X76566532Y-87949500D01*
X76363581Y-87989869D01*
X76172402Y-88069058D01*
X76000348Y-88184020D01*
X75854020Y-88330348D01*
X75739058Y-88502402D01*
X75659869Y-88693581D01*
X75619500Y-88896532D01*
X75180499Y-88896532D01*
X75140130Y-88693580D01*
X75060941Y-88502402D01*
X74945977Y-88330345D01*
X74799655Y-88184023D01*
X74627598Y-88069059D01*
X74627599Y-88069059D01*
X74627597Y-88069058D01*
X74436418Y-87989869D01*
X74233467Y-87949500D01*
X74233465Y-87949500D01*
X74026535Y-87949500D01*
X74026532Y-87949500D01*
X73823581Y-87989869D01*
X73632402Y-88069058D01*
X73460348Y-88184020D01*
X73314020Y-88330348D01*
X73199058Y-88502402D01*
X73119869Y-88693581D01*
X73079500Y-88896532D01*
X72640499Y-88896532D01*
X72600130Y-88693580D01*
X72520941Y-88502402D01*
X72405977Y-88330345D01*
X72259655Y-88184023D01*
X72087598Y-88069059D01*
X72087599Y-88069059D01*
X72087597Y-88069058D01*
X71896418Y-87989869D01*
X71693467Y-87949500D01*
X71693465Y-87949500D01*
X71486535Y-87949500D01*
X71486532Y-87949500D01*
X71283581Y-87989869D01*
X71092402Y-88069058D01*
X70920348Y-88184020D01*
X70774020Y-88330348D01*
X70659058Y-88502402D01*
X70579869Y-88693581D01*
X70539500Y-88896532D01*
X70100499Y-88896532D01*
X70060130Y-88693580D01*
X69980941Y-88502402D01*
X69865977Y-88330345D01*
X69719655Y-88184023D01*
X69547598Y-88069059D01*
X69547599Y-88069059D01*
X69547597Y-88069058D01*
X69356418Y-87989869D01*
X69153467Y-87949500D01*
X69153465Y-87949500D01*
X68946535Y-87949500D01*
X68946532Y-87949500D01*
X68743581Y-87989869D01*
X68552402Y-88069058D01*
X68380348Y-88184020D01*
X68234020Y-88330348D01*
X68119058Y-88502402D01*
X68039869Y-88693581D01*
X67999500Y-88896532D01*
X67560499Y-88896532D01*
X67520130Y-88693580D01*
X67440941Y-88502402D01*
X67325977Y-88330345D01*
X67179655Y-88184023D01*
X67007598Y-88069059D01*
X67007599Y-88069059D01*
X67007597Y-88069058D01*
X66816418Y-87989869D01*
X66613467Y-87949500D01*
X66613465Y-87949500D01*
X66406535Y-87949500D01*
X66406532Y-87949500D01*
X66203581Y-87989869D01*
X66012402Y-88069058D01*
X65840348Y-88184020D01*
X65694020Y-88330348D01*
X65579058Y-88502402D01*
X65499869Y-88693581D01*
X65459500Y-88896532D01*
X65020499Y-88896532D01*
X64980130Y-88693580D01*
X64900941Y-88502402D01*
X64785977Y-88330345D01*
X64639655Y-88184023D01*
X64467598Y-88069059D01*
X64467599Y-88069059D01*
X64467597Y-88069058D01*
X64276418Y-87989869D01*
X64073467Y-87949500D01*
X64073465Y-87949500D01*
X63866535Y-87949500D01*
X63866532Y-87949500D01*
X63663581Y-87989869D01*
X63472402Y-88069058D01*
X63300348Y-88184020D01*
X63154020Y-88330348D01*
X63039058Y-88502402D01*
X62959869Y-88693581D01*
X62919500Y-88896532D01*
X62480499Y-88896532D01*
X62440130Y-88693580D01*
X62360941Y-88502402D01*
X62245977Y-88330345D01*
X62099655Y-88184023D01*
X61927598Y-88069059D01*
X61927599Y-88069059D01*
X61927597Y-88069058D01*
X61736418Y-87989869D01*
X61533467Y-87949500D01*
X61533465Y-87949500D01*
X61326535Y-87949500D01*
X61326532Y-87949500D01*
X61123581Y-87989869D01*
X60932402Y-88069058D01*
X60760348Y-88184020D01*
X60614020Y-88330348D01*
X60499058Y-88502402D01*
X60419869Y-88693581D01*
X60379500Y-88896532D01*
X59940499Y-88896532D01*
X59900130Y-88693580D01*
X59820941Y-88502402D01*
X59705977Y-88330345D01*
X59559655Y-88184023D01*
X59387598Y-88069059D01*
X59387599Y-88069059D01*
X59387597Y-88069058D01*
X59196418Y-87989869D01*
X58993467Y-87949500D01*
X58993465Y-87949500D01*
X58786535Y-87949500D01*
X58786532Y-87949500D01*
X58583581Y-87989869D01*
X58392402Y-88069058D01*
X58220348Y-88184020D01*
X58074020Y-88330348D01*
X57959058Y-88502402D01*
X57879869Y-88693581D01*
X57839500Y-88896532D01*
X57400499Y-88896532D01*
X57360130Y-88693580D01*
X57280941Y-88502402D01*
X57165977Y-88330345D01*
X57019655Y-88184023D01*
X56847598Y-88069059D01*
X56847599Y-88069059D01*
X56847597Y-88069058D01*
X56656418Y-87989869D01*
X56453467Y-87949500D01*
X56453465Y-87949500D01*
X56246535Y-87949500D01*
X56246532Y-87949500D01*
X56043581Y-87989869D01*
X55852402Y-88069058D01*
X55680348Y-88184020D01*
X55534020Y-88330348D01*
X55419058Y-88502402D01*
X55339869Y-88693581D01*
X55299500Y-88896532D01*
X54860499Y-88896532D01*
X54820130Y-88693580D01*
X54740941Y-88502402D01*
X54625977Y-88330345D01*
X54479655Y-88184023D01*
X54307598Y-88069059D01*
X54307599Y-88069059D01*
X54307597Y-88069058D01*
X54116418Y-87989869D01*
X53913467Y-87949500D01*
X53913465Y-87949500D01*
X53706535Y-87949500D01*
X53706532Y-87949500D01*
X53503581Y-87989869D01*
X53312402Y-88069058D01*
X53140348Y-88184020D01*
X52994020Y-88330348D01*
X52879058Y-88502402D01*
X52799869Y-88693581D01*
X52759500Y-88896532D01*
X52320499Y-88896532D01*
X52280130Y-88693580D01*
X52200941Y-88502402D01*
X52085977Y-88330345D01*
X51939655Y-88184023D01*
X51767598Y-88069059D01*
X51767599Y-88069059D01*
X51767597Y-88069058D01*
X51576418Y-87989869D01*
X51373467Y-87949500D01*
X51373465Y-87949500D01*
X51166535Y-87949500D01*
X51166532Y-87949500D01*
X50963581Y-87989869D01*
X50772402Y-88069058D01*
X50600348Y-88184020D01*
X50454020Y-88330348D01*
X50339058Y-88502402D01*
X50259869Y-88693581D01*
X50219500Y-88896532D01*
X49780499Y-88896532D01*
X49740130Y-88693580D01*
X49660941Y-88502402D01*
X49545977Y-88330345D01*
X49399655Y-88184023D01*
X49227598Y-88069059D01*
X49227599Y-88069059D01*
X49227597Y-88069058D01*
X49036418Y-87989869D01*
X48833467Y-87949500D01*
X48833465Y-87949500D01*
X48626535Y-87949500D01*
X48626532Y-87949500D01*
X48423581Y-87989869D01*
X48232402Y-88069058D01*
X48060348Y-88184020D01*
X47914020Y-88330348D01*
X47799058Y-88502402D01*
X47719869Y-88693581D01*
X47679500Y-88896532D01*
X47240499Y-88896532D01*
X47200130Y-88693580D01*
X47120941Y-88502402D01*
X47005977Y-88330345D01*
X46859655Y-88184023D01*
X46687598Y-88069059D01*
X46687599Y-88069059D01*
X46687597Y-88069058D01*
X46496418Y-87989869D01*
X46293467Y-87949500D01*
X46293465Y-87949500D01*
X46086535Y-87949500D01*
X46086532Y-87949500D01*
X45883581Y-87989869D01*
X45692402Y-88069058D01*
X45520348Y-88184020D01*
X45374020Y-88330348D01*
X45259058Y-88502402D01*
X45179869Y-88693581D01*
X45139500Y-88896532D01*
X44700499Y-88896532D01*
X44660130Y-88693580D01*
X44580941Y-88502402D01*
X44465977Y-88330345D01*
X44319655Y-88184023D01*
X44147598Y-88069059D01*
X44147599Y-88069059D01*
X44147597Y-88069058D01*
X43956418Y-87989869D01*
X43753467Y-87949500D01*
X43753465Y-87949500D01*
X43546535Y-87949500D01*
X43546532Y-87949500D01*
X43343581Y-87989869D01*
X43152402Y-88069058D01*
X42980348Y-88184020D01*
X42834020Y-88330348D01*
X42719058Y-88502402D01*
X42639869Y-88693581D01*
X42599500Y-88896532D01*
X42160499Y-88896532D01*
X42120130Y-88693580D01*
X42040941Y-88502402D01*
X41925977Y-88330345D01*
X41779655Y-88184023D01*
X41607598Y-88069059D01*
X41607599Y-88069059D01*
X41607597Y-88069058D01*
X41416418Y-87989869D01*
X41213467Y-87949500D01*
X41213465Y-87949500D01*
X41006535Y-87949500D01*
X41006532Y-87949500D01*
X40803581Y-87989869D01*
X40612402Y-88069058D01*
X40440348Y-88184020D01*
X40294020Y-88330348D01*
X40179058Y-88502402D01*
X40099869Y-88693581D01*
X40059500Y-88896532D01*
X39620499Y-88896532D01*
X39580130Y-88693580D01*
X39500941Y-88502402D01*
X39385977Y-88330345D01*
X39239655Y-88184023D01*
X39067598Y-88069059D01*
X39067599Y-88069059D01*
X39067597Y-88069058D01*
X38876418Y-87989869D01*
X38673467Y-87949500D01*
X38673465Y-87949500D01*
X38466535Y-87949500D01*
X38466532Y-87949500D01*
X38263581Y-87989869D01*
X38072402Y-88069058D01*
X37900348Y-88184020D01*
X37754020Y-88330348D01*
X37639058Y-88502402D01*
X37559869Y-88693581D01*
X37519500Y-88896532D01*
X37080499Y-88896532D01*
X37040130Y-88693580D01*
X36960941Y-88502402D01*
X36845977Y-88330345D01*
X36699655Y-88184023D01*
X36527598Y-88069059D01*
X36527599Y-88069059D01*
X36527597Y-88069058D01*
X36336418Y-87989869D01*
X36133467Y-87949500D01*
X36133465Y-87949500D01*
X35926535Y-87949500D01*
X35926532Y-87949500D01*
X35723581Y-87989869D01*
X35532402Y-88069058D01*
X35360348Y-88184020D01*
X35214020Y-88330348D01*
X35099058Y-88502402D01*
X35019869Y-88693581D01*
X34979500Y-88896532D01*
X34540499Y-88896532D01*
X34500130Y-88693580D01*
X34420941Y-88502402D01*
X34305977Y-88330345D01*
X34159655Y-88184023D01*
X33987598Y-88069059D01*
X33987599Y-88069059D01*
X33987597Y-88069058D01*
X33796418Y-87989869D01*
X33593467Y-87949500D01*
X33593465Y-87949500D01*
X33386535Y-87949500D01*
X33386532Y-87949500D01*
X33183581Y-87989869D01*
X32992402Y-88069058D01*
X32820348Y-88184020D01*
X32674020Y-88330348D01*
X32559058Y-88502402D01*
X32479869Y-88693581D01*
X32439500Y-88896532D01*
X32000499Y-88896532D01*
X31960130Y-88693580D01*
X31880941Y-88502402D01*
X31765977Y-88330345D01*
X31619655Y-88184023D01*
X31447598Y-88069059D01*
X31447599Y-88069059D01*
X31447597Y-88069058D01*
X31256418Y-87989869D01*
X31053467Y-87949500D01*
X31053465Y-87949500D01*
X30846535Y-87949500D01*
X30846532Y-87949500D01*
X30643581Y-87989869D01*
X30452402Y-88069058D01*
X30280348Y-88184020D01*
X30134020Y-88330348D01*
X30019058Y-88502402D01*
X29939869Y-88693581D01*
X29899500Y-88896532D01*
X29460499Y-88896532D01*
X29420130Y-88693580D01*
X29340941Y-88502402D01*
X29225977Y-88330345D01*
X29079655Y-88184023D01*
X28907598Y-88069059D01*
X28907599Y-88069059D01*
X28907597Y-88069058D01*
X28716418Y-87989869D01*
X28513467Y-87949500D01*
X28513465Y-87949500D01*
X28306535Y-87949500D01*
X28306532Y-87949500D01*
X28103581Y-87989869D01*
X27912402Y-88069058D01*
X27740348Y-88184020D01*
X27594020Y-88330348D01*
X27479058Y-88502402D01*
X27399869Y-88693581D01*
X27359500Y-88896532D01*
X26920499Y-88896532D01*
X26880130Y-88693580D01*
X26800941Y-88502402D01*
X26685977Y-88330345D01*
X26539655Y-88184023D01*
X26367598Y-88069059D01*
X26367599Y-88069059D01*
X26367597Y-88069058D01*
X26176418Y-87989869D01*
X25973467Y-87949500D01*
X25973465Y-87949500D01*
X25766535Y-87949500D01*
X25766532Y-87949500D01*
X25563581Y-87989869D01*
X25372402Y-88069058D01*
X25200348Y-88184020D01*
X25054020Y-88330348D01*
X24939058Y-88502402D01*
X24859869Y-88693581D01*
X24819500Y-88896532D01*
X24380499Y-88896532D01*
X24340130Y-88693580D01*
X24260941Y-88502402D01*
X24145977Y-88330345D01*
X23999655Y-88184023D01*
X23827598Y-88069059D01*
X23827599Y-88069059D01*
X23827597Y-88069058D01*
X23636418Y-87989869D01*
X23433467Y-87949500D01*
X23433465Y-87949500D01*
X23226535Y-87949500D01*
X23226532Y-87949500D01*
X23023581Y-87989869D01*
X22832402Y-88069058D01*
X22660348Y-88184020D01*
X22514020Y-88330348D01*
X22399058Y-88502402D01*
X22319869Y-88693581D01*
X22279500Y-88896532D01*
X21840499Y-88896532D01*
X21800130Y-88693580D01*
X21720941Y-88502402D01*
X21605977Y-88330345D01*
X21459655Y-88184023D01*
X21287598Y-88069059D01*
X21287599Y-88069059D01*
X21287597Y-88069058D01*
X21096418Y-87989869D01*
X20893467Y-87949500D01*
X20893465Y-87949500D01*
X20686535Y-87949500D01*
X20686532Y-87949500D01*
X20483581Y-87989869D01*
X20292402Y-88069058D01*
X20120348Y-88184020D01*
X19974020Y-88330348D01*
X19859058Y-88502402D01*
X19779869Y-88693581D01*
X19739500Y-88896532D01*
X19300499Y-88896532D01*
X19260130Y-88693580D01*
X19180941Y-88502402D01*
X19065977Y-88330345D01*
X18919655Y-88184023D01*
X18747598Y-88069059D01*
X18747599Y-88069059D01*
X18747597Y-88069058D01*
X18556418Y-87989869D01*
X18353467Y-87949500D01*
X18353465Y-87949500D01*
X18146535Y-87949500D01*
X18146532Y-87949500D01*
X17943581Y-87989869D01*
X17752402Y-88069058D01*
X17580348Y-88184020D01*
X17434020Y-88330348D01*
X17319058Y-88502402D01*
X17239869Y-88693581D01*
X17199500Y-88896532D01*
X16760499Y-88896532D01*
X16720130Y-88693580D01*
X16640941Y-88502402D01*
X16525977Y-88330345D01*
X16379655Y-88184023D01*
X16207598Y-88069059D01*
X16207599Y-88069059D01*
X16207597Y-88069058D01*
X16016418Y-87989869D01*
X15813467Y-87949500D01*
X15813465Y-87949500D01*
X15606535Y-87949500D01*
X15606532Y-87949500D01*
X15403581Y-87989869D01*
X15212402Y-88069058D01*
X15040348Y-88184020D01*
X14894020Y-88330348D01*
X14779058Y-88502402D01*
X14699869Y-88693581D01*
X14659500Y-88896532D01*
X14220499Y-88896532D01*
X14180130Y-88693580D01*
X14100941Y-88502402D01*
X13985977Y-88330345D01*
X13839655Y-88184023D01*
X13667598Y-88069059D01*
X13667599Y-88069059D01*
X13667597Y-88069058D01*
X13476418Y-87989869D01*
X13273467Y-87949500D01*
X13273465Y-87949500D01*
X13066535Y-87949500D01*
X13066532Y-87949500D01*
X12863581Y-87989869D01*
X12672402Y-88069058D01*
X12500348Y-88184020D01*
X12354020Y-88330348D01*
X12239058Y-88502402D01*
X12159869Y-88693581D01*
X12119500Y-88896532D01*
X11680499Y-88896532D01*
X11640130Y-88693580D01*
X11560941Y-88502402D01*
X11445977Y-88330345D01*
X11299655Y-88184023D01*
X11127598Y-88069059D01*
X11127599Y-88069059D01*
X11127597Y-88069058D01*
X10936418Y-87989869D01*
X10733467Y-87949500D01*
X10733465Y-87949500D01*
X10526535Y-87949500D01*
X10526532Y-87949500D01*
X10323581Y-87989869D01*
X10132402Y-88069058D01*
X9960348Y-88184020D01*
X9814020Y-88330348D01*
X9699058Y-88502402D01*
X9619869Y-88693581D01*
X9579500Y-88896532D01*
X2500000Y-88896532D01*
X2500000Y-85420943D01*
X11399500Y-85420943D01*
X11399500Y-85579057D01*
X11440423Y-85731784D01*
X11519480Y-85868716D01*
X11631284Y-85980520D01*
X11768216Y-86059577D01*
X11920943Y-86100500D01*
X11920945Y-86100500D01*
X82079055Y-86100500D01*
X82079057Y-86100500D01*
X82231784Y-86059577D01*
X82368716Y-85980520D01*
X82480520Y-85868716D01*
X82559577Y-85731784D01*
X82600500Y-85579057D01*
X82600500Y-85420943D01*
X82559577Y-85268216D01*
X82480520Y-85131284D01*
X82368716Y-85019480D01*
X82231784Y-84940423D01*
X82079057Y-84899500D01*
X72079057Y-84899500D01*
X62079057Y-84899500D01*
X52079057Y-84899500D01*
X42079057Y-84899500D01*
X32079057Y-84899500D01*
X22079057Y-84899500D01*
X11920943Y-84899500D01*
X11768216Y-84940423D01*
X11631284Y-85019480D01*
X11519480Y-85131284D01*
X11440423Y-85268216D01*
X11399500Y-85420943D01*
X2500000Y-85420943D01*
X2500000Y-13396532D01*
X12119500Y-13396532D01*
X12119500Y-13603467D01*
X12159869Y-13806418D01*
X12239058Y-13997597D01*
X12239059Y-13997598D01*
X12354023Y-14169655D01*
X12500345Y-14315977D01*
X12672402Y-14430941D01*
X12863580Y-14510130D01*
X13066535Y-14550500D01*
X13066536Y-14550500D01*
X13273464Y-14550500D01*
X13273465Y-14550500D01*
X13476420Y-14510130D01*
X13667598Y-14430941D01*
X13839655Y-14315977D01*
X13985977Y-14169655D01*
X14100941Y-13997598D01*
X14180130Y-13806420D01*
X14220500Y-13603465D01*
X14220500Y-13396535D01*
X14220499Y-13396532D01*
X14659500Y-13396532D01*
X14659500Y-13603467D01*
X14699869Y-13806418D01*
X14779058Y-13997597D01*
X14779059Y-13997598D01*
X14894023Y-14169655D01*
X15040345Y-14315977D01*
X15212402Y-14430941D01*
X15403580Y-14510130D01*
X15606535Y-14550500D01*
X15606536Y-14550500D01*
X15813464Y-14550500D01*
X15813465Y-14550500D01*
X16016420Y-14510130D01*
X16207598Y-14430941D01*
X16379655Y-14315977D01*
X16525977Y-14169655D01*
X16640941Y-13997598D01*
X16720130Y-13806420D01*
X16760500Y-13603465D01*
X16760500Y-13396535D01*
X16760499Y-13396532D01*
X17199500Y-13396532D01*
X17199500Y-13603467D01*
X17239869Y-13806418D01*
X17319058Y-13997597D01*
X17319059Y-13997598D01*
X17434023Y-14169655D01*
X17580345Y-14315977D01*
X17752402Y-14430941D01*
X17943580Y-14510130D01*
X18146535Y-14550500D01*
X18146536Y-14550500D01*
X18353464Y-14550500D01*
X18353465Y-14550500D01*
X18556420Y-14510130D01*
X18747598Y-14430941D01*
X18919655Y-14315977D01*
X19065977Y-14169655D01*
X19180941Y-13997598D01*
X19260130Y-13806420D01*
X19300500Y-13603465D01*
X19300500Y-13396535D01*
X19300499Y-13396532D01*
X19739500Y-13396532D01*
X19739500Y-13603467D01*
X19779869Y-13806418D01*
X19859058Y-13997597D01*
X19859059Y-13997598D01*
X19974023Y-14169655D01*
X20120345Y-14315977D01*
X20292402Y-14430941D01*
X20483580Y-14510130D01*
X20686535Y-14550500D01*
X20686536Y-14550500D01*
X20893464Y-14550500D01*
X20893465Y-14550500D01*
X21096420Y-14510130D01*
X21287598Y-14430941D01*
X21459655Y-14315977D01*
X21605977Y-14169655D01*
X21720941Y-13997598D01*
X21800130Y-13806420D01*
X21840500Y-13603465D01*
X21840500Y-13396535D01*
X21840499Y-13396532D01*
X22279500Y-13396532D01*
X22279500Y-13603467D01*
X22319869Y-13806418D01*
X22399058Y-13997597D01*
X22399059Y-13997598D01*
X22514023Y-14169655D01*
X22660345Y-14315977D01*
X22832402Y-14430941D01*
X23023580Y-14510130D01*
X23226535Y-14550500D01*
X23226536Y-14550500D01*
X23433464Y-14550500D01*
X23433465Y-14550500D01*
X23636420Y-14510130D01*
X23827598Y-14430941D01*
X23999655Y-14315977D01*
X24145977Y-14169655D01*
X24260941Y-13997598D01*
X24340130Y-13806420D01*
X24380500Y-13603465D01*
X24380500Y-13396535D01*
X24380499Y-13396532D01*
X24819500Y-13396532D01*
X24819500Y-13603467D01*
X24859869Y-13806418D01*
X24939058Y-13997597D01*
X24939059Y-13997598D01*
X25054023Y-14169655D01*
X25200345Y-14315977D01*
X25372402Y-14430941D01*
X25563580Y-14510130D01*
X25766535Y-14550500D01*
X25766536Y-14550500D01*
X25973464Y-14550500D01*
X25973465Y-14550500D01*
X26176420Y-14510130D01*
X26367598Y-14430941D01*
X26539655Y-14315977D01*
X26685977Y-14169655D01*
X26800941Y-13997598D01*
X26880130Y-13806420D01*
X26920500Y-13603465D01*
X26920500Y-13396535D01*
X26920499Y-13396532D01*
X27359500Y-13396532D01*
X27359500Y-13603467D01*
X27399869Y-13806418D01*
X27479058Y-13997597D01*
X27479059Y-13997598D01*
X27594023Y-14169655D01*
X27740345Y-14315977D01*
X27912402Y-14430941D01*
X28103580Y-14510130D01*
X28306535Y-14550500D01*
X28306536Y-14550500D01*
X28513464Y-14550500D01*
X28513465Y-14550500D01*
X28716420Y-14510130D01*
X28907598Y-14430941D01*
X29079655Y-14315977D01*
X29225977Y-14169655D01*
X29340941Y-13997598D01*
X29420130Y-13806420D01*
X29460500Y-13603465D01*
X29460500Y-13396535D01*
X29460499Y-13396532D01*
X29899500Y-13396532D01*
X29899500Y-13603467D01*
X29939869Y-13806418D01*
X30019058Y-13997597D01*
X30019059Y-13997598D01*
X30134023Y-14169655D01*
X30280345Y-14315977D01*
X30452402Y-14430941D01*
X30643580Y-14510130D01*
X30846535Y-14550500D01*
X30846536Y-14550500D01*
X31053464Y-14550500D01*
X31053465Y-14550500D01*
X31256420Y-14510130D01*
X31447598Y-14430941D01*
X31619655Y-14315977D01*
X31765977Y-14169655D01*
X31880941Y-13997598D01*
X31960130Y-13806420D01*
X32000500Y-13603465D01*
X32000500Y-13396535D01*
X32000499Y-13396532D01*
X32439500Y-13396532D01*
X32439500Y-13603467D01*
X32479869Y-13806418D01*
X32559058Y-13997597D01*
X32559059Y-13997598D01*
X32674023Y-14169655D01*
X32820345Y-14315977D01*
X32992402Y-14430941D01*
X33183580Y-14510130D01*
X33386535Y-14550500D01*
X33386536Y-14550500D01*
X33593464Y-14550500D01*
X33593465Y-14550500D01*
X33796420Y-14510130D01*
X33987598Y-14430941D01*
X34159655Y-14315977D01*
X34305977Y-14169655D01*
X34420941Y-13997598D01*
X34500130Y-13806420D01*
X34540500Y-13603465D01*
X34540500Y-13396535D01*
X34540499Y-13396532D01*
X34979500Y-13396532D01*
X34979500Y-13603467D01*
X35019869Y-13806418D01*
X35099058Y-13997597D01*
X35099059Y-13997598D01*
X35214023Y-14169655D01*
X35360345Y-14315977D01*
X35532402Y-14430941D01*
X35723580Y-14510130D01*
X35926535Y-14550500D01*
X35926536Y-14550500D01*
X36133464Y-14550500D01*
X36133465Y-14550500D01*
X36336420Y-14510130D01*
X36527598Y-14430941D01*
X36699655Y-14315977D01*
X36845977Y-14169655D01*
X36960941Y-13997598D01*
X37040130Y-13806420D01*
X37080500Y-13603465D01*
X37080500Y-13396535D01*
X37080499Y-13396532D01*
X37519500Y-13396532D01*
X37519500Y-13603467D01*
X37559869Y-13806418D01*
X37639058Y-13997597D01*
X37639059Y-13997598D01*
X37754023Y-14169655D01*
X37900345Y-14315977D01*
X38072402Y-14430941D01*
X38263580Y-14510130D01*
X38466535Y-14550500D01*
X38466536Y-14550500D01*
X38673464Y-14550500D01*
X38673465Y-14550500D01*
X38876420Y-14510130D01*
X39067598Y-14430941D01*
X39239655Y-14315977D01*
X39385977Y-14169655D01*
X39500941Y-13997598D01*
X39580130Y-13806420D01*
X39620500Y-13603465D01*
X39620500Y-13396535D01*
X39620499Y-13396532D01*
X40059500Y-13396532D01*
X40059500Y-13603467D01*
X40099869Y-13806418D01*
X40179058Y-13997597D01*
X40179059Y-13997598D01*
X40294023Y-14169655D01*
X40440345Y-14315977D01*
X40612402Y-14430941D01*
X40803580Y-14510130D01*
X41006535Y-14550500D01*
X41006536Y-14550500D01*
X41213464Y-14550500D01*
X41213465Y-14550500D01*
X41416420Y-14510130D01*
X41607598Y-14430941D01*
X41779655Y-14315977D01*
X41925977Y-14169655D01*
X42040941Y-13997598D01*
X42120130Y-13806420D01*
X42160500Y-13603465D01*
X42160500Y-13396535D01*
X42160499Y-13396532D01*
X42599500Y-13396532D01*
X42599500Y-13603467D01*
X42639869Y-13806418D01*
X42719058Y-13997597D01*
X42719059Y-13997598D01*
X42834023Y-14169655D01*
X42980345Y-14315977D01*
X43152402Y-14430941D01*
X43343580Y-14510130D01*
X43546535Y-14550500D01*
X43546536Y-14550500D01*
X43753464Y-14550500D01*
X43753465Y-14550500D01*
X43956420Y-14510130D01*
X44147598Y-14430941D01*
X44319655Y-14315977D01*
X44465977Y-14169655D01*
X44580941Y-13997598D01*
X44660130Y-13806420D01*
X44700500Y-13603465D01*
X44700500Y-13396535D01*
X44700499Y-13396532D01*
X45139500Y-13396532D01*
X45139500Y-13603467D01*
X45179869Y-13806418D01*
X45259058Y-13997597D01*
X45259059Y-13997598D01*
X45374023Y-14169655D01*
X45520345Y-14315977D01*
X45692402Y-14430941D01*
X45883580Y-14510130D01*
X46086535Y-14550500D01*
X46086536Y-14550500D01*
X46293464Y-14550500D01*
X46293465Y-14550500D01*
X46496420Y-14510130D01*
X46687598Y-14430941D01*
X46859655Y-14315977D01*
X47005977Y-14169655D01*
X47120941Y-13997598D01*
X47200130Y-13806420D01*
X47240500Y-13603465D01*
X47240500Y-13396535D01*
X47240499Y-13396532D01*
X47679500Y-13396532D01*
X47679500Y-13603467D01*
X47719869Y-13806418D01*
X47799058Y-13997597D01*
X47799059Y-13997598D01*
X47914023Y-14169655D01*
X48060345Y-14315977D01*
X48232402Y-14430941D01*
X48423580Y-14510130D01*
X48626535Y-14550500D01*
X48626536Y-14550500D01*
X48833464Y-14550500D01*
X48833465Y-14550500D01*
X49036420Y-14510130D01*
X49227598Y-14430941D01*
X49399655Y-14315977D01*
X49545977Y-14169655D01*
X49660941Y-13997598D01*
X49740130Y-13806420D01*
X49780500Y-13603465D01*
X49780500Y-13396535D01*
X49780499Y-13396532D01*
X50219500Y-13396532D01*
X50219500Y-13603467D01*
X50259869Y-13806418D01*
X50339058Y-13997597D01*
X50339059Y-13997598D01*
X50454023Y-14169655D01*
X50600345Y-14315977D01*
X50772402Y-14430941D01*
X50963580Y-14510130D01*
X51166535Y-14550500D01*
X51166536Y-14550500D01*
X51373464Y-14550500D01*
X51373465Y-14550500D01*
X51576420Y-14510130D01*
X51767598Y-14430941D01*
X51939655Y-14315977D01*
X52085977Y-14169655D01*
X52200941Y-13997598D01*
X52280130Y-13806420D01*
X52320500Y-13603465D01*
X52320500Y-13396535D01*
X52320499Y-13396532D01*
X52759500Y-13396532D01*
X52759500Y-13603467D01*
X52799869Y-13806418D01*
X52879058Y-13997597D01*
X52879059Y-13997598D01*
X52994023Y-14169655D01*
X53140345Y-14315977D01*
X53312402Y-14430941D01*
X53503580Y-14510130D01*
X53706535Y-14550500D01*
X53706536Y-14550500D01*
X53913464Y-14550500D01*
X53913465Y-14550500D01*
X54116420Y-14510130D01*
X54307598Y-14430941D01*
X54479655Y-14315977D01*
X54625977Y-14169655D01*
X54740941Y-13997598D01*
X54820130Y-13806420D01*
X54860500Y-13603465D01*
X54860500Y-13396535D01*
X54860499Y-13396532D01*
X55299500Y-13396532D01*
X55299500Y-13603467D01*
X55339869Y-13806418D01*
X55419058Y-13997597D01*
X55419059Y-13997598D01*
X55534023Y-14169655D01*
X55680345Y-14315977D01*
X55852402Y-14430941D01*
X56043580Y-14510130D01*
X56246535Y-14550500D01*
X56246536Y-14550500D01*
X56453464Y-14550500D01*
X56453465Y-14550500D01*
X56656420Y-14510130D01*
X56847598Y-14430941D01*
X57019655Y-14315977D01*
X57165977Y-14169655D01*
X57280941Y-13997598D01*
X57360130Y-13806420D01*
X57400500Y-13603465D01*
X57400500Y-13396535D01*
X57400499Y-13396532D01*
X57839500Y-13396532D01*
X57839500Y-13603467D01*
X57879869Y-13806418D01*
X57959058Y-13997597D01*
X57959059Y-13997598D01*
X58074023Y-14169655D01*
X58220345Y-14315977D01*
X58392402Y-14430941D01*
X58583580Y-14510130D01*
X58786535Y-14550500D01*
X58786536Y-14550500D01*
X58993464Y-14550500D01*
X58993465Y-14550500D01*
X59196420Y-14510130D01*
X59387598Y-14430941D01*
X59559655Y-14315977D01*
X59705977Y-14169655D01*
X59820941Y-13997598D01*
X59900130Y-13806420D01*
X59940500Y-13603465D01*
X59940500Y-13396535D01*
X59940499Y-13396532D01*
X60379500Y-13396532D01*
X60379500Y-13603467D01*
X60419869Y-13806418D01*
X60499058Y-13997597D01*
X60499059Y-13997598D01*
X60614023Y-14169655D01*
X60760345Y-14315977D01*
X60932402Y-14430941D01*
X61123580Y-14510130D01*
X61326535Y-14550500D01*
X61326536Y-14550500D01*
X61533464Y-14550500D01*
X61533465Y-14550500D01*
X61736420Y-14510130D01*
X61927598Y-14430941D01*
X62099655Y-14315977D01*
X62245977Y-14169655D01*
X62360941Y-13997598D01*
X62440130Y-13806420D01*
X62480500Y-13603465D01*
X62480500Y-13396535D01*
X62480499Y-13396532D01*
X62919500Y-13396532D01*
X62919500Y-13603467D01*
X62959869Y-13806418D01*
X63039058Y-13997597D01*
X63039059Y-13997598D01*
X63154023Y-14169655D01*
X63300345Y-14315977D01*
X63472402Y-14430941D01*
X63663580Y-14510130D01*
X63866535Y-14550500D01*
X63866536Y-14550500D01*
X64073464Y-14550500D01*
X64073465Y-14550500D01*
X64276420Y-14510130D01*
X64467598Y-14430941D01*
X64639655Y-14315977D01*
X64785977Y-14169655D01*
X64900941Y-13997598D01*
X64980130Y-13806420D01*
X65020500Y-13603465D01*
X65020500Y-13396535D01*
X65020499Y-13396532D01*
X65459500Y-13396532D01*
X65459500Y-13603467D01*
X65499869Y-13806418D01*
X65579058Y-13997597D01*
X65579059Y-13997598D01*
X65694023Y-14169655D01*
X65840345Y-14315977D01*
X66012402Y-14430941D01*
X66203580Y-14510130D01*
X66406535Y-14550500D01*
X66406536Y-14550500D01*
X66613464Y-14550500D01*
X66613465Y-14550500D01*
X66816420Y-14510130D01*
X67007598Y-14430941D01*
X67179655Y-14315977D01*
X67325977Y-14169655D01*
X67440941Y-13997598D01*
X67520130Y-13806420D01*
X67560500Y-13603465D01*
X67560500Y-13396535D01*
X67560499Y-13396532D01*
X67999500Y-13396532D01*
X67999500Y-13603467D01*
X68039869Y-13806418D01*
X68119058Y-13997597D01*
X68119059Y-13997598D01*
X68234023Y-14169655D01*
X68380345Y-14315977D01*
X68552402Y-14430941D01*
X68743580Y-14510130D01*
X68946535Y-14550500D01*
X68946536Y-14550500D01*
X69153464Y-14550500D01*
X69153465Y-14550500D01*
X69356420Y-14510130D01*
X69547598Y-14430941D01*
X69719655Y-14315977D01*
X69865977Y-14169655D01*
X69980941Y-13997598D01*
X70060130Y-13806420D01*
X70100500Y-13603465D01*
X70100500Y-13396535D01*
X70100499Y-13396532D01*
X70539500Y-13396532D01*
X70539500Y-13603467D01*
X70579869Y-13806418D01*
X70659058Y-13997597D01*
X70659059Y-13997598D01*
X70774023Y-14169655D01*
X70920345Y-14315977D01*
X71092402Y-14430941D01*
X71283580Y-14510130D01*
X71486535Y-14550500D01*
X71486536Y-14550500D01*
X71693464Y-14550500D01*
X71693465Y-14550500D01*
X71896420Y-14510130D01*
X72087598Y-14430941D01*
X72259655Y-14315977D01*
X72405977Y-14169655D01*
X72520941Y-13997598D01*
X72600130Y-13806420D01*
X72640500Y-13603465D01*
X72640500Y-13396535D01*
X72640499Y-13396532D01*
X73079500Y-13396532D01*
X73079500Y-13603467D01*
X73119869Y-13806418D01*
X73199058Y-13997597D01*
X73199059Y-13997598D01*
X73314023Y-14169655D01*
X73460345Y-14315977D01*
X73632402Y-14430941D01*
X73823580Y-14510130D01*
X74026535Y-14550500D01*
X74026536Y-14550500D01*
X74233464Y-14550500D01*
X74233465Y-14550500D01*
X74436420Y-14510130D01*
X74627598Y-14430941D01*
X74799655Y-14315977D01*
X74945977Y-14169655D01*
X75060941Y-13997598D01*
X75140130Y-13806420D01*
X75180500Y-13603465D01*
X75180500Y-13396535D01*
X75180499Y-13396532D01*
X75619500Y-13396532D01*
X75619500Y-13603467D01*
X75659869Y-13806418D01*
X75739058Y-13997597D01*
X75739059Y-13997598D01*
X75854023Y-14169655D01*
X76000345Y-14315977D01*
X76172402Y-14430941D01*
X76363580Y-14510130D01*
X76566535Y-14550500D01*
X76566536Y-14550500D01*
X76773464Y-14550500D01*
X76773465Y-14550500D01*
X76976420Y-14510130D01*
X77167598Y-14430941D01*
X77339655Y-14315977D01*
X77485977Y-14169655D01*
X77600941Y-13997598D01*
X77680130Y-13806420D01*
X77720500Y-13603465D01*
X77720500Y-13396535D01*
X77720499Y-13396532D01*
X78159500Y-13396532D01*
X78159500Y-13603467D01*
X78199869Y-13806418D01*
X78279058Y-13997597D01*
X78279059Y-13997598D01*
X78394023Y-14169655D01*
X78540345Y-14315977D01*
X78712402Y-14430941D01*
X78903580Y-14510130D01*
X79106535Y-14550500D01*
X79106536Y-14550500D01*
X79313464Y-14550500D01*
X79313465Y-14550500D01*
X79516420Y-14510130D01*
X79707598Y-14430941D01*
X79879655Y-14315977D01*
X80025977Y-14169655D01*
X80140941Y-13997598D01*
X80220130Y-13806420D01*
X80260500Y-13603465D01*
X80260500Y-13396535D01*
X80260499Y-13396532D01*
X80699500Y-13396532D01*
X80699500Y-13603467D01*
X80739869Y-13806418D01*
X80819058Y-13997597D01*
X80819059Y-13997598D01*
X80934023Y-14169655D01*
X81080345Y-14315977D01*
X81252402Y-14430941D01*
X81443580Y-14510130D01*
X81646535Y-14550500D01*
X81646536Y-14550500D01*
X81853464Y-14550500D01*
X81853465Y-14550500D01*
X82056420Y-14510130D01*
X82247598Y-14430941D01*
X82419655Y-14315977D01*
X82565977Y-14169655D01*
X82680941Y-13997598D01*
X82760130Y-13806420D01*
X82800500Y-13603465D01*
X82800500Y-13396535D01*
X82800499Y-13396532D01*
X83239500Y-13396532D01*
X83239500Y-13603467D01*
X83279869Y-13806418D01*
X83359058Y-13997597D01*
X83359059Y-13997598D01*
X83474023Y-14169655D01*
X83620345Y-14315977D01*
X83792402Y-14430941D01*
X83983580Y-14510130D01*
X84186535Y-14550500D01*
X84186536Y-14550500D01*
X84393464Y-14550500D01*
X84393465Y-14550500D01*
X84596420Y-14510130D01*
X84787598Y-14430941D01*
X84959655Y-14315977D01*
X85105977Y-14169655D01*
X85220941Y-13997598D01*
X85300130Y-13806420D01*
X85340500Y-13603465D01*
X85340500Y-13396535D01*
X85340499Y-13396532D01*
X85779500Y-13396532D01*
X85779500Y-13603467D01*
X85819869Y-13806418D01*
X85899058Y-13997597D01*
X85899059Y-13997598D01*
X86014023Y-14169655D01*
X86160345Y-14315977D01*
X86332402Y-14430941D01*
X86523580Y-14510130D01*
X86726535Y-14550500D01*
X86726536Y-14550500D01*
X86933464Y-14550500D01*
X86933465Y-14550500D01*
X87136420Y-14510130D01*
X87327598Y-14430941D01*
X87499655Y-14315977D01*
X87645977Y-14169655D01*
X87760941Y-13997598D01*
X87840130Y-13806420D01*
X87880500Y-13603465D01*
X87880500Y-13396535D01*
X87840130Y-13193580D01*
X87760941Y-13002402D01*
X87645977Y-12830345D01*
X87499655Y-12684023D01*
X87327598Y-12569059D01*
X87327599Y-12569059D01*
X87327597Y-12569058D01*
X87136418Y-12489869D01*
X86933467Y-12449500D01*
X86933465Y-12449500D01*
X86726535Y-12449500D01*
X86726532Y-12449500D01*
X86523581Y-12489869D01*
X86332402Y-12569058D01*
X86160348Y-12684020D01*
X86014020Y-12830348D01*
X85899058Y-13002402D01*
X85819869Y-13193581D01*
X85779500Y-13396532D01*
X85340499Y-13396532D01*
X85300130Y-13193580D01*
X85220941Y-13002402D01*
X85105977Y-12830345D01*
X84959655Y-12684023D01*
X84787598Y-12569059D01*
X84787599Y-12569059D01*
X84787597Y-12569058D01*
X84596418Y-12489869D01*
X84393467Y-12449500D01*
X84393465Y-12449500D01*
X84186535Y-12449500D01*
X84186532Y-12449500D01*
X83983581Y-12489869D01*
X83792402Y-12569058D01*
X83620348Y-12684020D01*
X83474020Y-12830348D01*
X83359058Y-13002402D01*
X83279869Y-13193581D01*
X83239500Y-13396532D01*
X82800499Y-13396532D01*
X82760130Y-13193580D01*
X82680941Y-13002402D01*
X82565977Y-12830345D01*
X82419655Y-12684023D01*
X82247598Y-12569059D01*
X82247599Y-12569059D01*
X82247597Y-12569058D01*
X82056418Y-12489869D01*
X81853467Y-12449500D01*
X81853465Y-12449500D01*
X81646535Y-12449500D01*
X81646532Y-12449500D01*
X81443581Y-12489869D01*
X81252402Y-12569058D01*
X81080348Y-12684020D01*
X80934020Y-12830348D01*
X80819058Y-13002402D01*
X80739869Y-13193581D01*
X80699500Y-13396532D01*
X80260499Y-13396532D01*
X80220130Y-13193580D01*
X80140941Y-13002402D01*
X80025977Y-12830345D01*
X79879655Y-12684023D01*
X79707598Y-12569059D01*
X79707599Y-12569059D01*
X79707597Y-12569058D01*
X79516418Y-12489869D01*
X79313467Y-12449500D01*
X79313465Y-12449500D01*
X79106535Y-12449500D01*
X79106532Y-12449500D01*
X78903581Y-12489869D01*
X78712402Y-12569058D01*
X78540348Y-12684020D01*
X78394020Y-12830348D01*
X78279058Y-13002402D01*
X78199869Y-13193581D01*
X78159500Y-13396532D01*
X77720499Y-13396532D01*
X77680130Y-13193580D01*
X77600941Y-13002402D01*
X77485977Y-12830345D01*
X77339655Y-12684023D01*
X77167598Y-12569059D01*
X77167599Y-12569059D01*
X77167597Y-12569058D01*
X76976418Y-12489869D01*
X76773467Y-12449500D01*
X76773465Y-12449500D01*
X76566535Y-12449500D01*
X76566532Y-12449500D01*
X76363581Y-12489869D01*
X76172402Y-12569058D01*
X76000348Y-12684020D01*
X75854020Y-12830348D01*
X75739058Y-13002402D01*
X75659869Y-13193581D01*
X75619500Y-13396532D01*
X75180499Y-13396532D01*
X75140130Y-13193580D01*
X75060941Y-13002402D01*
X74945977Y-12830345D01*
X74799655Y-12684023D01*
X74627598Y-12569059D01*
X74627599Y-12569059D01*
X74627597Y-12569058D01*
X74436418Y-12489869D01*
X74233467Y-12449500D01*
X74233465Y-12449500D01*
X74026535Y-12449500D01*
X74026532Y-12449500D01*
X73823581Y-12489869D01*
X73632402Y-12569058D01*
X73460348Y-12684020D01*
X73314020Y-12830348D01*
X73199058Y-13002402D01*
X73119869Y-13193581D01*
X73079500Y-13396532D01*
X72640499Y-13396532D01*
X72600130Y-13193580D01*
X72520941Y-13002402D01*
X72405977Y-12830345D01*
X72259655Y-12684023D01*
X72087598Y-12569059D01*
X72087599Y-12569059D01*
X72087597Y-12569058D01*
X71896418Y-12489869D01*
X71693467Y-12449500D01*
X71693465Y-12449500D01*
X71486535Y-12449500D01*
X71486532Y-12449500D01*
X71283581Y-12489869D01*
X71092402Y-12569058D01*
X70920348Y-12684020D01*
X70774020Y-12830348D01*
X70659058Y-13002402D01*
X70579869Y-13193581D01*
X70539500Y-13396532D01*
X70100499Y-13396532D01*
X70060130Y-13193580D01*
X69980941Y-13002402D01*
X69865977Y-12830345D01*
X69719655Y-12684023D01*
X69547598Y-12569059D01*
X69547599Y-12569059D01*
X69547597Y-12569058D01*
X69356418Y-12489869D01*
X69153467Y-12449500D01*
X69153465Y-12449500D01*
X68946535Y-12449500D01*
X68946532Y-12449500D01*
X68743581Y-12489869D01*
X68552402Y-12569058D01*
X68380348Y-12684020D01*
X68234020Y-12830348D01*
X68119058Y-13002402D01*
X68039869Y-13193581D01*
X67999500Y-13396532D01*
X67560499Y-13396532D01*
X67520130Y-13193580D01*
X67440941Y-13002402D01*
X67325977Y-12830345D01*
X67179655Y-12684023D01*
X67007598Y-12569059D01*
X67007599Y-12569059D01*
X67007597Y-12569058D01*
X66816418Y-12489869D01*
X66613467Y-12449500D01*
X66613465Y-12449500D01*
X66406535Y-12449500D01*
X66406532Y-12449500D01*
X66203581Y-12489869D01*
X66012402Y-12569058D01*
X65840348Y-12684020D01*
X65694020Y-12830348D01*
X65579058Y-13002402D01*
X65499869Y-13193581D01*
X65459500Y-13396532D01*
X65020499Y-13396532D01*
X64980130Y-13193580D01*
X64900941Y-13002402D01*
X64785977Y-12830345D01*
X64639655Y-12684023D01*
X64467598Y-12569059D01*
X64467599Y-12569059D01*
X64467597Y-12569058D01*
X64276418Y-12489869D01*
X64073467Y-12449500D01*
X64073465Y-12449500D01*
X63866535Y-12449500D01*
X63866532Y-12449500D01*
X63663581Y-12489869D01*
X63472402Y-12569058D01*
X63300348Y-12684020D01*
X63154020Y-12830348D01*
X63039058Y-13002402D01*
X62959869Y-13193581D01*
X62919500Y-13396532D01*
X62480499Y-13396532D01*
X62440130Y-13193580D01*
X62360941Y-13002402D01*
X62245977Y-12830345D01*
X62099655Y-12684023D01*
X61927598Y-12569059D01*
X61927599Y-12569059D01*
X61927597Y-12569058D01*
X61736418Y-12489869D01*
X61533467Y-12449500D01*
X61533465Y-12449500D01*
X61326535Y-12449500D01*
X61326532Y-12449500D01*
X61123581Y-12489869D01*
X60932402Y-12569058D01*
X60760348Y-12684020D01*
X60614020Y-12830348D01*
X60499058Y-13002402D01*
X60419869Y-13193581D01*
X60379500Y-13396532D01*
X59940499Y-13396532D01*
X59900130Y-13193580D01*
X59820941Y-13002402D01*
X59705977Y-12830345D01*
X59559655Y-12684023D01*
X59387598Y-12569059D01*
X59387599Y-12569059D01*
X59387597Y-12569058D01*
X59196418Y-12489869D01*
X58993467Y-12449500D01*
X58993465Y-12449500D01*
X58786535Y-12449500D01*
X58786532Y-12449500D01*
X58583581Y-12489869D01*
X58392402Y-12569058D01*
X58220348Y-12684020D01*
X58074020Y-12830348D01*
X57959058Y-13002402D01*
X57879869Y-13193581D01*
X57839500Y-13396532D01*
X57400499Y-13396532D01*
X57360130Y-13193580D01*
X57280941Y-13002402D01*
X57165977Y-12830345D01*
X57019655Y-12684023D01*
X56847598Y-12569059D01*
X56847599Y-12569059D01*
X56847597Y-12569058D01*
X56656418Y-12489869D01*
X56453467Y-12449500D01*
X56453465Y-12449500D01*
X56246535Y-12449500D01*
X56246532Y-12449500D01*
X56043581Y-12489869D01*
X55852402Y-12569058D01*
X55680348Y-12684020D01*
X55534020Y-12830348D01*
X55419058Y-13002402D01*
X55339869Y-13193581D01*
X55299500Y-13396532D01*
X54860499Y-13396532D01*
X54820130Y-13193580D01*
X54740941Y-13002402D01*
X54625977Y-12830345D01*
X54479655Y-12684023D01*
X54307598Y-12569059D01*
X54307599Y-12569059D01*
X54307597Y-12569058D01*
X54116418Y-12489869D01*
X53913467Y-12449500D01*
X53913465Y-12449500D01*
X53706535Y-12449500D01*
X53706532Y-12449500D01*
X53503581Y-12489869D01*
X53312402Y-12569058D01*
X53140348Y-12684020D01*
X52994020Y-12830348D01*
X52879058Y-13002402D01*
X52799869Y-13193581D01*
X52759500Y-13396532D01*
X52320499Y-13396532D01*
X52280130Y-13193580D01*
X52200941Y-13002402D01*
X52085977Y-12830345D01*
X51939655Y-12684023D01*
X51767598Y-12569059D01*
X51767599Y-12569059D01*
X51767597Y-12569058D01*
X51576418Y-12489869D01*
X51373467Y-12449500D01*
X51373465Y-12449500D01*
X51166535Y-12449500D01*
X51166532Y-12449500D01*
X50963581Y-12489869D01*
X50772402Y-12569058D01*
X50600348Y-12684020D01*
X50454020Y-12830348D01*
X50339058Y-13002402D01*
X50259869Y-13193581D01*
X50219500Y-13396532D01*
X49780499Y-13396532D01*
X49740130Y-13193580D01*
X49660941Y-13002402D01*
X49545977Y-12830345D01*
X49399655Y-12684023D01*
X49227598Y-12569059D01*
X49227599Y-12569059D01*
X49227597Y-12569058D01*
X49036418Y-12489869D01*
X48833467Y-12449500D01*
X48833465Y-12449500D01*
X48626535Y-12449500D01*
X48626532Y-12449500D01*
X48423581Y-12489869D01*
X48232402Y-12569058D01*
X48060348Y-12684020D01*
X47914020Y-12830348D01*
X47799058Y-13002402D01*
X47719869Y-13193581D01*
X47679500Y-13396532D01*
X47240499Y-13396532D01*
X47200130Y-13193580D01*
X47120941Y-13002402D01*
X47005977Y-12830345D01*
X46859655Y-12684023D01*
X46687598Y-12569059D01*
X46687599Y-12569059D01*
X46687597Y-12569058D01*
X46496418Y-12489869D01*
X46293467Y-12449500D01*
X46293465Y-12449500D01*
X46086535Y-12449500D01*
X46086532Y-12449500D01*
X45883581Y-12489869D01*
X45692402Y-12569058D01*
X45520348Y-12684020D01*
X45374020Y-12830348D01*
X45259058Y-13002402D01*
X45179869Y-13193581D01*
X45139500Y-13396532D01*
X44700499Y-13396532D01*
X44660130Y-13193580D01*
X44580941Y-13002402D01*
X44465977Y-12830345D01*
X44319655Y-12684023D01*
X44147598Y-12569059D01*
X44147599Y-12569059D01*
X44147597Y-12569058D01*
X43956418Y-12489869D01*
X43753467Y-12449500D01*
X43753465Y-12449500D01*
X43546535Y-12449500D01*
X43546532Y-12449500D01*
X43343581Y-12489869D01*
X43152402Y-12569058D01*
X42980348Y-12684020D01*
X42834020Y-12830348D01*
X42719058Y-13002402D01*
X42639869Y-13193581D01*
X42599500Y-13396532D01*
X42160499Y-13396532D01*
X42120130Y-13193580D01*
X42040941Y-13002402D01*
X41925977Y-12830345D01*
X41779655Y-12684023D01*
X41607598Y-12569059D01*
X41607599Y-12569059D01*
X41607597Y-12569058D01*
X41416418Y-12489869D01*
X41213467Y-12449500D01*
X41213465Y-12449500D01*
X41006535Y-12449500D01*
X41006532Y-12449500D01*
X40803581Y-12489869D01*
X40612402Y-12569058D01*
X40440348Y-12684020D01*
X40294020Y-12830348D01*
X40179058Y-13002402D01*
X40099869Y-13193581D01*
X40059500Y-13396532D01*
X39620499Y-13396532D01*
X39580130Y-13193580D01*
X39500941Y-13002402D01*
X39385977Y-12830345D01*
X39239655Y-12684023D01*
X39067598Y-12569059D01*
X39067599Y-12569059D01*
X39067597Y-12569058D01*
X38876418Y-12489869D01*
X38673467Y-12449500D01*
X38673465Y-12449500D01*
X38466535Y-12449500D01*
X38466532Y-12449500D01*
X38263581Y-12489869D01*
X38072402Y-12569058D01*
X37900348Y-12684020D01*
X37754020Y-12830348D01*
X37639058Y-13002402D01*
X37559869Y-13193581D01*
X37519500Y-13396532D01*
X37080499Y-13396532D01*
X37040130Y-13193580D01*
X36960941Y-13002402D01*
X36845977Y-12830345D01*
X36699655Y-12684023D01*
X36527598Y-12569059D01*
X36527599Y-12569059D01*
X36527597Y-12569058D01*
X36336418Y-12489869D01*
X36133467Y-12449500D01*
X36133465Y-12449500D01*
X35926535Y-12449500D01*
X35926532Y-12449500D01*
X35723581Y-12489869D01*
X35532402Y-12569058D01*
X35360348Y-12684020D01*
X35214020Y-12830348D01*
X35099058Y-13002402D01*
X35019869Y-13193581D01*
X34979500Y-13396532D01*
X34540499Y-13396532D01*
X34500130Y-13193580D01*
X34420941Y-13002402D01*
X34305977Y-12830345D01*
X34159655Y-12684023D01*
X33987598Y-12569059D01*
X33987599Y-12569059D01*
X33987597Y-12569058D01*
X33796418Y-12489869D01*
X33593467Y-12449500D01*
X33593465Y-12449500D01*
X33386535Y-12449500D01*
X33386532Y-12449500D01*
X33183581Y-12489869D01*
X32992402Y-12569058D01*
X32820348Y-12684020D01*
X32674020Y-12830348D01*
X32559058Y-13002402D01*
X32479869Y-13193581D01*
X32439500Y-13396532D01*
X32000499Y-13396532D01*
X31960130Y-13193580D01*
X31880941Y-13002402D01*
X31765977Y-12830345D01*
X31619655Y-12684023D01*
X31447598Y-12569059D01*
X31447599Y-12569059D01*
X31447597Y-12569058D01*
X31256418Y-12489869D01*
X31053467Y-12449500D01*
X31053465Y-12449500D01*
X30846535Y-12449500D01*
X30846532Y-12449500D01*
X30643581Y-12489869D01*
X30452402Y-12569058D01*
X30280348Y-12684020D01*
X30134020Y-12830348D01*
X30019058Y-13002402D01*
X29939869Y-13193581D01*
X29899500Y-13396532D01*
X29460499Y-13396532D01*
X29420130Y-13193580D01*
X29340941Y-13002402D01*
X29225977Y-12830345D01*
X29079655Y-12684023D01*
X28907598Y-12569059D01*
X28907599Y-12569059D01*
X28907597Y-12569058D01*
X28716418Y-12489869D01*
X28513467Y-12449500D01*
X28513465Y-12449500D01*
X28306535Y-12449500D01*
X28306532Y-12449500D01*
X28103581Y-12489869D01*
X27912402Y-12569058D01*
X27740348Y-12684020D01*
X27594020Y-12830348D01*
X27479058Y-13002402D01*
X27399869Y-13193581D01*
X27359500Y-13396532D01*
X26920499Y-13396532D01*
X26880130Y-13193580D01*
X26800941Y-13002402D01*
X26685977Y-12830345D01*
X26539655Y-12684023D01*
X26367598Y-12569059D01*
X26367599Y-12569059D01*
X26367597Y-12569058D01*
X26176418Y-12489869D01*
X25973467Y-12449500D01*
X25973465Y-12449500D01*
X25766535Y-12449500D01*
X25766532Y-12449500D01*
X25563581Y-12489869D01*
X25372402Y-12569058D01*
X25200348Y-12684020D01*
X25054020Y-12830348D01*
X24939058Y-13002402D01*
X24859869Y-13193581D01*
X24819500Y-13396532D01*
X24380499Y-13396532D01*
X24340130Y-13193580D01*
X24260941Y-13002402D01*
X24145977Y-12830345D01*
X23999655Y-12684023D01*
X23827598Y-12569059D01*
X23827599Y-12569059D01*
X23827597Y-12569058D01*
X23636418Y-12489869D01*
X23433467Y-12449500D01*
X23433465Y-12449500D01*
X23226535Y-12449500D01*
X23226532Y-12449500D01*
X23023581Y-12489869D01*
X22832402Y-12569058D01*
X22660348Y-12684020D01*
X22514020Y-12830348D01*
X22399058Y-13002402D01*
X22319869Y-13193581D01*
X22279500Y-13396532D01*
X21840499Y-13396532D01*
X21800130Y-13193580D01*
X21720941Y-13002402D01*
X21605977Y-12830345D01*
X21459655Y-12684023D01*
X21287598Y-12569059D01*
X21287599Y-12569059D01*
X21287597Y-12569058D01*
X21096418Y-12489869D01*
X20893467Y-12449500D01*
X20893465Y-12449500D01*
X20686535Y-12449500D01*
X20686532Y-12449500D01*
X20483581Y-12489869D01*
X20292402Y-12569058D01*
X20120348Y-12684020D01*
X19974020Y-12830348D01*
X19859058Y-13002402D01*
X19779869Y-13193581D01*
X19739500Y-13396532D01*
X19300499Y-13396532D01*
X19260130Y-13193580D01*
X19180941Y-13002402D01*
X19065977Y-12830345D01*
X18919655Y-12684023D01*
X18747598Y-12569059D01*
X18747599Y-12569059D01*
X18747597Y-12569058D01*
X18556418Y-12489869D01*
X18353467Y-12449500D01*
X18353465Y-12449500D01*
X18146535Y-12449500D01*
X18146532Y-12449500D01*
X17943581Y-12489869D01*
X17752402Y-12569058D01*
X17580348Y-12684020D01*
X17434020Y-12830348D01*
X17319058Y-13002402D01*
X17239869Y-13193581D01*
X17199500Y-13396532D01*
X16760499Y-13396532D01*
X16720130Y-13193580D01*
X16640941Y-13002402D01*
X16525977Y-12830345D01*
X16379655Y-12684023D01*
X16207598Y-12569059D01*
X16207599Y-12569059D01*
X16207597Y-12569058D01*
X16016418Y-12489869D01*
X15813467Y-12449500D01*
X15813465Y-12449500D01*
X15606535Y-12449500D01*
X15606532Y-12449500D01*
X15403581Y-12489869D01*
X15212402Y-12569058D01*
X15040348Y-12684020D01*
X14894020Y-12830348D01*
X14779058Y-13002402D01*
X14699869Y-13193581D01*
X14659500Y-13396532D01*
X14220499Y-13396532D01*
X14180130Y-13193580D01*
X14100941Y-13002402D01*
X13985977Y-12830345D01*
X13839655Y-12684023D01*
X13667598Y-12569059D01*
X13667599Y-12569059D01*
X13667597Y-12569058D01*
X13476418Y-12489869D01*
X13273467Y-12449500D01*
X13273465Y-12449500D01*
X13066535Y-12449500D01*
X13066532Y-12449500D01*
X12863581Y-12489869D01*
X12672402Y-12569058D01*
X12500348Y-12684020D01*
X12354020Y-12830348D01*
X12239058Y-13002402D01*
X12159869Y-13193581D01*
X12119500Y-13396532D01*
X2500000Y-13396532D01*
X2500000Y-2599000D01*
X2518907Y-2540809D01*
X2568407Y-2504845D01*
X2599000Y-2500000D01*
X97401000Y-2500000D01*
X97459191Y-2518907D01*
G37*
%TD.AperFunction*%
%TD*%
M02*
