%TF.GenerationSoftware,KiCad,Pcbnew,9.0.8-9.0.8~ubuntu24.04.1*%
%TF.CreationDate,2026-05-19T22:49:28+02:00*%
%TF.ProjectId,tud-microled-v2,7475642d-6d69-4637-926f-6c65642d7632,v4.0*%
%TF.SameCoordinates,Original*%
%TF.FileFunction,Soldermask,Top*%
%TF.FilePolarity,Negative*%
%FSLAX46Y46*%
G04 Gerber Fmt 4.6, Leading zero omitted, Abs format (unit mm)*
G04 Created by KiCad (PCBNEW 9.0.8-9.0.8~ubuntu24.04.1) date 2026-05-19 22:49:28*
%MOMM*%
%LPD*%
G01*
G04 APERTURE LIST*
%ADD10R,0.400000X0.400000*%
%ADD11R,0.500000X0.600000*%
%ADD12R,1.270000X1.270000*%
%ADD13C,1.700000*%
G04 APERTURE END LIST*
D10*
%TO.C,D7*%
X71100000Y-77600000D03*
X71900000Y-77600000D03*
X71900000Y-78400000D03*
X71100000Y-78400000D03*
%TD*%
%TO.C,D3*%
X31100000Y-77600000D03*
X31900000Y-77600000D03*
X31900000Y-78400000D03*
X31100000Y-78400000D03*
%TD*%
%TO.C,DCL6_L6*%
X27850000Y-69600000D03*
X28650000Y-69600000D03*
X28650000Y-70400000D03*
X27850000Y-70400000D03*
%TD*%
%TO.C,DCL6_L5*%
X25350000Y-69600000D03*
X26150000Y-69600000D03*
X26150000Y-70400000D03*
X25350000Y-70400000D03*
%TD*%
%TO.C,DCL6_L4*%
X22850000Y-69600000D03*
X23650000Y-69600000D03*
X23650000Y-70400000D03*
X22850000Y-70400000D03*
%TD*%
%TO.C,DCL12_L6*%
X68350000Y-69600000D03*
X69150000Y-69600000D03*
X69150000Y-70400000D03*
X68350000Y-70400000D03*
%TD*%
%TO.C,D4*%
X41100000Y-77600000D03*
X41900000Y-77600000D03*
X41900000Y-78400000D03*
X41100000Y-78400000D03*
%TD*%
%TO.C,DCL6_L3*%
X20350000Y-69600000D03*
X21150000Y-69600000D03*
X21150000Y-70400000D03*
X20350000Y-70400000D03*
%TD*%
%TO.C,D8*%
X81100000Y-77600000D03*
X81900000Y-77600000D03*
X81900000Y-78400000D03*
X81100000Y-78400000D03*
%TD*%
D11*
%TO.C,TH4*%
X77200000Y-76800000D03*
X78200000Y-76800000D03*
%TD*%
D10*
%TO.C,DCL12_L7*%
X70850000Y-69600000D03*
X71650000Y-69600000D03*
X71650000Y-70400000D03*
X70850000Y-70400000D03*
%TD*%
%TO.C,DCL12_L9*%
X75850000Y-69600000D03*
X76650000Y-69600000D03*
X76650000Y-70400000D03*
X75850000Y-70400000D03*
%TD*%
%TO.C,DCL12_L4*%
X63350000Y-69600000D03*
X64150000Y-69600000D03*
X64150000Y-70400000D03*
X63350000Y-70400000D03*
%TD*%
%TO.C,DCL12_L5*%
X65850000Y-69600000D03*
X66650000Y-69600000D03*
X66650000Y-70400000D03*
X65850000Y-70400000D03*
%TD*%
D12*
%TO.C,R_EIS_LOAD*%
X74500000Y-35390000D03*
X76500000Y-35390000D03*
%TD*%
D10*
%TO.C,DCL12_L2*%
X58350000Y-69600000D03*
X59150000Y-69600000D03*
X59150000Y-70400000D03*
X58350000Y-70400000D03*
%TD*%
%TO.C,D2*%
X21100000Y-77600000D03*
X21900000Y-77600000D03*
X21900000Y-78400000D03*
X21100000Y-78400000D03*
%TD*%
%TO.C,D6*%
X61100000Y-77600000D03*
X61900000Y-77600000D03*
X61900000Y-78400000D03*
X61100000Y-78400000D03*
%TD*%
%TO.C,DCL12_L12*%
X83350000Y-69600000D03*
X84150000Y-69600000D03*
X84150000Y-70400000D03*
X83350000Y-70400000D03*
%TD*%
%TO.C,DCL12_L8*%
X73350000Y-69600000D03*
X74150000Y-69600000D03*
X74150000Y-70400000D03*
X73350000Y-70400000D03*
%TD*%
D11*
%TO.C,TH2*%
X37200000Y-76800000D03*
X38200000Y-76800000D03*
%TD*%
D10*
%TO.C,DCL12_L10*%
X78350000Y-69600000D03*
X79150000Y-69600000D03*
X79150000Y-70400000D03*
X78350000Y-70400000D03*
%TD*%
D11*
%TO.C,TH3*%
X57200000Y-76800000D03*
X58200000Y-76800000D03*
%TD*%
D10*
%TO.C,DCL12_L3*%
X60850000Y-69600000D03*
X61650000Y-69600000D03*
X61650000Y-70400000D03*
X60850000Y-70400000D03*
%TD*%
%TO.C,DCL12_L11*%
X80850000Y-69600000D03*
X81650000Y-69600000D03*
X81650000Y-70400000D03*
X80850000Y-70400000D03*
%TD*%
%TO.C,DCL12_L1*%
X55850000Y-69600000D03*
X56650000Y-69600000D03*
X56650000Y-70400000D03*
X55850000Y-70400000D03*
%TD*%
%TO.C,D1*%
X11100000Y-77600000D03*
X11900000Y-77600000D03*
X11900000Y-78400000D03*
X11100000Y-78400000D03*
%TD*%
%TO.C,D5*%
X51100000Y-77600000D03*
X51900000Y-77600000D03*
X51900000Y-78400000D03*
X51100000Y-78400000D03*
%TD*%
%TO.C,DCL6_L2*%
X17850000Y-69600000D03*
X18650000Y-69600000D03*
X18650000Y-70400000D03*
X17850000Y-70400000D03*
%TD*%
%TO.C,DCL6_L1*%
X15350000Y-69600000D03*
X16150000Y-69600000D03*
X16150000Y-70400000D03*
X15350000Y-70400000D03*
%TD*%
D11*
%TO.C,TH1*%
X17200000Y-76800000D03*
X18200000Y-76800000D03*
%TD*%
D13*
%TO.C,H_N*%
X7130000Y-13500000D03*
X9670000Y-13500000D03*
X12210000Y-13500000D03*
X14750000Y-13500000D03*
X17290000Y-13500000D03*
X19830000Y-13500000D03*
X22370000Y-13500000D03*
X24910000Y-13500000D03*
X27450000Y-13500000D03*
X29990000Y-13500000D03*
X32530000Y-13500000D03*
X35070000Y-13500000D03*
X37610000Y-13500000D03*
X40150000Y-13500000D03*
X42690000Y-13500000D03*
X45230000Y-13500000D03*
X47770000Y-13500000D03*
X50310000Y-13500000D03*
X52850000Y-13500000D03*
X55390000Y-13500000D03*
X57930000Y-13500000D03*
X60470000Y-13500000D03*
X63010000Y-13500000D03*
X65550000Y-13500000D03*
X68090000Y-13500000D03*
X70630000Y-13500000D03*
X73170000Y-13500000D03*
X75710000Y-13500000D03*
X78250000Y-13500000D03*
X80790000Y-13500000D03*
X83330000Y-13500000D03*
X85870000Y-13500000D03*
%TD*%
%TO.C,H_S*%
X7130000Y-85000000D03*
X9670000Y-85000000D03*
X12210000Y-85000000D03*
X14750000Y-85000000D03*
X17290000Y-85000000D03*
X19830000Y-85000000D03*
X22370000Y-85000000D03*
X24910000Y-85000000D03*
X27450000Y-85000000D03*
X29990000Y-85000000D03*
X32530000Y-85000000D03*
X35070000Y-85000000D03*
X37610000Y-85000000D03*
X40150000Y-85000000D03*
X42690000Y-85000000D03*
X45230000Y-85000000D03*
X47770000Y-85000000D03*
X50310000Y-85000000D03*
X52850000Y-85000000D03*
X55390000Y-85000000D03*
X57930000Y-85000000D03*
X60470000Y-85000000D03*
X63010000Y-85000000D03*
X65550000Y-85000000D03*
X68090000Y-85000000D03*
X70630000Y-85000000D03*
X73170000Y-85000000D03*
X75710000Y-85000000D03*
X78250000Y-85000000D03*
X80790000Y-85000000D03*
X83330000Y-85000000D03*
X85870000Y-85000000D03*
%TD*%
M02*
