%TF.GenerationSoftware,KiCad,Pcbnew,9.0.8-9.0.8~ubuntu24.04.1*%
%TF.CreationDate,2026-05-16T13:51:46+02:00*%
%TF.ProjectId,tud-microled-v2,7475642d-6d69-4637-926f-6c65642d7632,v2.0*%
%TF.SameCoordinates,Original*%
%TF.FileFunction,Paste,Top*%
%TF.FilePolarity,Positive*%
%FSLAX46Y46*%
G04 Gerber Fmt 4.6, Leading zero omitted, Abs format (unit mm)*
G04 Created by KiCad (PCBNEW 9.0.8-9.0.8~ubuntu24.04.1) date 2026-05-16 13:51:46*
%MOMM*%
%LPD*%
G01*
G04 APERTURE LIST*
G04 Aperture macros list*
%AMRoundRect*
0 Rectangle with rounded corners*
0 $1 Rounding radius*
0 $2 $3 $4 $5 $6 $7 $8 $9 X,Y pos of 4 corners*
0 Add a 4 corners polygon primitive as box body*
4,1,4,$2,$3,$4,$5,$6,$7,$8,$9,$2,$3,0*
0 Add four circle primitives for the rounded corners*
1,1,$1+$1,$2,$3*
1,1,$1+$1,$4,$5*
1,1,$1+$1,$6,$7*
1,1,$1+$1,$8,$9*
0 Add four rect primitives between the rounded corners*
20,1,$1+$1,$2,$3,$4,$5,0*
20,1,$1+$1,$4,$5,$6,$7,0*
20,1,$1+$1,$6,$7,$8,$9,0*
20,1,$1+$1,$8,$9,$2,$3,0*%
G04 Aperture macros list end*
%ADD10R,1.000000X1.000000*%
%ADD11R,0.500000X0.500000*%
%ADD12RoundRect,0.050000X-0.450000X-0.450000X0.450000X-0.450000X0.450000X0.450000X-0.450000X0.450000X0*%
%ADD13RoundRect,0.100000X-0.400000X-0.400000X0.400000X-0.400000X0.400000X0.400000X-0.400000X0.400000X0*%
%ADD14RoundRect,0.200000X-0.300000X-0.300000X0.300000X-0.300000X0.300000X0.300000X-0.300000X0.300000X0*%
%ADD15R,0.250000X2.500000*%
%ADD16R,0.500000X2.500000*%
%ADD17R,1.000000X2.500000*%
%ADD18R,0.250000X0.250000*%
%ADD19R,0.100000X0.100000*%
%ADD20R,1.270000X1.270000*%
%ADD21R,0.400000X0.400000*%
G04 APERTURE END LIST*
D10*
%TO.C,BP_R1C1*%
X14000000Y-21000000D03*
%TD*%
%TO.C,BP_R1C2*%
X17500000Y-21000000D03*
%TD*%
%TO.C,BP_R1C3*%
X21000000Y-21000000D03*
%TD*%
%TO.C,BP_R1C4*%
X24500000Y-21000000D03*
%TD*%
%TO.C,BP_R1C5*%
X28000000Y-21000000D03*
%TD*%
%TO.C,BP_R1C6*%
X31500000Y-21000000D03*
%TD*%
%TO.C,BP_R2C1*%
X14000000Y-24500000D03*
%TD*%
%TO.C,BP_R2C2*%
X17500000Y-24500000D03*
%TD*%
%TO.C,BP_R2C3*%
X21000000Y-24500000D03*
%TD*%
%TO.C,BP_R2C4*%
X24500000Y-24500000D03*
%TD*%
%TO.C,BP_R2C5*%
X28000000Y-24500000D03*
%TD*%
%TO.C,BP_R2C6*%
X31500000Y-24500000D03*
%TD*%
%TO.C,BP_R3C1*%
X14000000Y-28000000D03*
D11*
X13500000Y-27500000D03*
X14500000Y-27500000D03*
X13500000Y-28500000D03*
X14500000Y-28500000D03*
%TD*%
D10*
%TO.C,BP_R3C2*%
X17500000Y-28000000D03*
D11*
X17000000Y-27500000D03*
X18000000Y-27500000D03*
X17000000Y-28500000D03*
X18000000Y-28500000D03*
%TD*%
D10*
%TO.C,BP_R3C3*%
X21000000Y-28000000D03*
D11*
X20500000Y-27500000D03*
X21500000Y-27500000D03*
X20500000Y-28500000D03*
X21500000Y-28500000D03*
%TD*%
D10*
%TO.C,BP_R3C4*%
X24500000Y-28000000D03*
D11*
X24000000Y-27500000D03*
X25000000Y-27500000D03*
X24000000Y-28500000D03*
X25000000Y-28500000D03*
%TD*%
D10*
%TO.C,BP_R3C5*%
X28000000Y-28000000D03*
D11*
X27500000Y-27500000D03*
X28500000Y-27500000D03*
X27500000Y-28500000D03*
X28500000Y-28500000D03*
%TD*%
D10*
%TO.C,BP_R3C6*%
X31500000Y-28000000D03*
D11*
X31000000Y-27500000D03*
X32000000Y-27500000D03*
X31000000Y-28500000D03*
X32000000Y-28500000D03*
%TD*%
D10*
%TO.C,BP_R4C1*%
X14000000Y-31500000D03*
D11*
X13500000Y-31000000D03*
X14500000Y-31000000D03*
X13500000Y-32000000D03*
X14500000Y-32000000D03*
%TD*%
D10*
%TO.C,BP_R4C2*%
X17500000Y-31500000D03*
D11*
X17000000Y-31000000D03*
X18000000Y-31000000D03*
X17000000Y-32000000D03*
X18000000Y-32000000D03*
%TD*%
D10*
%TO.C,BP_R4C3*%
X21000000Y-31500000D03*
D11*
X20500000Y-31000000D03*
X21500000Y-31000000D03*
X20500000Y-32000000D03*
X21500000Y-32000000D03*
%TD*%
D10*
%TO.C,BP_R4C4*%
X24500000Y-31500000D03*
D11*
X24000000Y-31000000D03*
X25000000Y-31000000D03*
X24000000Y-32000000D03*
X25000000Y-32000000D03*
%TD*%
D10*
%TO.C,BP_R4C5*%
X28000000Y-31500000D03*
D11*
X27500000Y-31000000D03*
X28500000Y-31000000D03*
X27500000Y-32000000D03*
X28500000Y-32000000D03*
%TD*%
D10*
%TO.C,BP_R4C6*%
X31500000Y-31500000D03*
D11*
X31000000Y-31000000D03*
X32000000Y-31000000D03*
X31000000Y-32000000D03*
X32000000Y-32000000D03*
%TD*%
D12*
%TO.C,BP_R5C1*%
X14000000Y-35000000D03*
D11*
X13500000Y-34500000D03*
X14500000Y-34500000D03*
X13500000Y-35500000D03*
X14500000Y-35500000D03*
%TD*%
D13*
%TO.C,BP_R5C2*%
X17500000Y-35000000D03*
D11*
X17000000Y-34500000D03*
X18000000Y-34500000D03*
X17000000Y-35500000D03*
X18000000Y-35500000D03*
%TD*%
D14*
%TO.C,BP_R5C3*%
X21000000Y-35000000D03*
D11*
X20500000Y-34500000D03*
X21500000Y-34500000D03*
X20500000Y-35500000D03*
X21500000Y-35500000D03*
%TD*%
D12*
%TO.C,BP_R5C4*%
X24500000Y-35000000D03*
D11*
X24000000Y-34500000D03*
X25000000Y-34500000D03*
X24000000Y-35500000D03*
X25000000Y-35500000D03*
%TD*%
D13*
%TO.C,BP_R5C5*%
X28000000Y-35000000D03*
D11*
X27500000Y-34500000D03*
X28500000Y-34500000D03*
X27500000Y-35500000D03*
X28500000Y-35500000D03*
%TD*%
D14*
%TO.C,BP_R5C6*%
X31500000Y-35000000D03*
D11*
X31000000Y-34500000D03*
X32000000Y-34500000D03*
X31000000Y-35500000D03*
X32000000Y-35500000D03*
%TD*%
D12*
%TO.C,BP_R6C1*%
X14000000Y-38500000D03*
D11*
X13500000Y-38000000D03*
X14500000Y-38000000D03*
X13500000Y-39000000D03*
X14500000Y-39000000D03*
%TD*%
D13*
%TO.C,BP_R6C2*%
X17500000Y-38500000D03*
D11*
X17000000Y-38000000D03*
X18000000Y-38000000D03*
X17000000Y-39000000D03*
X18000000Y-39000000D03*
%TD*%
D14*
%TO.C,BP_R6C3*%
X21000000Y-38500000D03*
D11*
X20500000Y-38000000D03*
X21500000Y-38000000D03*
X20500000Y-39000000D03*
X21500000Y-39000000D03*
%TD*%
D12*
%TO.C,BP_R6C4*%
X24500000Y-38500000D03*
D11*
X24000000Y-38000000D03*
X25000000Y-38000000D03*
X24000000Y-39000000D03*
X25000000Y-39000000D03*
%TD*%
D13*
%TO.C,BP_R6C5*%
X28000000Y-38500000D03*
D11*
X27500000Y-38000000D03*
X28500000Y-38000000D03*
X27500000Y-39000000D03*
X28500000Y-39000000D03*
%TD*%
D14*
%TO.C,BP_R6C6*%
X31500000Y-38500000D03*
D11*
X31000000Y-38000000D03*
X32000000Y-38000000D03*
X31000000Y-39000000D03*
X32000000Y-39000000D03*
%TD*%
D15*
%TO.C,TLM_W0.25*%
X20807500Y-51500000D03*
X21062500Y-51500000D03*
X21322500Y-51500000D03*
X21592500Y-51500000D03*
X21892500Y-51500000D03*
X22242500Y-51500000D03*
X22692500Y-51500000D03*
%TD*%
D16*
%TO.C,TLM_W0.5*%
X47807500Y-51500000D03*
X48312500Y-51500000D03*
X48822500Y-51500000D03*
X49342500Y-51500000D03*
X49892500Y-51500000D03*
X50492500Y-51500000D03*
X51192500Y-51500000D03*
%TD*%
D17*
%TO.C,TLM_W1.0*%
X73807500Y-51500000D03*
X74812500Y-51500000D03*
X75822500Y-51500000D03*
X76842500Y-51500000D03*
X77892500Y-51500000D03*
X78992500Y-51500000D03*
X80192500Y-51500000D03*
%TD*%
D10*
%TO.C,VDP_W1.0*%
X13600000Y-62000000D03*
X16400000Y-62000000D03*
X15000000Y-60600000D03*
X15000000Y-63400000D03*
%TD*%
D11*
%TO.C,VDP_W0.5*%
X37100000Y-62000000D03*
X38900000Y-62000000D03*
X38000000Y-61100000D03*
X38000000Y-62900000D03*
%TD*%
D18*
%TO.C,VDP_W0.25*%
X61200000Y-62000000D03*
X62800000Y-62000000D03*
X62000000Y-61200000D03*
X62000000Y-62800000D03*
%TD*%
D19*
%TO.C,VDP_W0.1*%
X84200000Y-62000000D03*
X85800000Y-62000000D03*
X85000000Y-61200000D03*
X85000000Y-62800000D03*
%TD*%
D10*
%TO.C,DC_N6*%
X10300000Y-73000000D03*
X12100000Y-73000000D03*
X13900000Y-73000000D03*
X15700000Y-73000000D03*
X17500000Y-73000000D03*
X19300000Y-73000000D03*
X21100000Y-73000000D03*
X22900000Y-73000000D03*
X24700000Y-73000000D03*
X26500000Y-73000000D03*
X28300000Y-73000000D03*
X30100000Y-73000000D03*
X31900000Y-73000000D03*
X33700000Y-73000000D03*
%TD*%
D20*
%TO.C,PP_DC6_IN*%
X8300000Y-76500000D03*
%TD*%
%TO.C,PP_DC6_OUT*%
X35700000Y-76500000D03*
%TD*%
D10*
%TO.C,DC_N12*%
X47500000Y-73000000D03*
X49300000Y-73000000D03*
X51100000Y-73000000D03*
X52900000Y-73000000D03*
X54700000Y-73000000D03*
X56500000Y-73000000D03*
X58300000Y-73000000D03*
X60100000Y-73000000D03*
X61900000Y-73000000D03*
X63700000Y-73000000D03*
X65500000Y-73000000D03*
X67300000Y-73000000D03*
X69100000Y-73000000D03*
X70900000Y-73000000D03*
X72700000Y-73000000D03*
X74500000Y-73000000D03*
X76300000Y-73000000D03*
X78100000Y-73000000D03*
X79900000Y-73000000D03*
X81700000Y-73000000D03*
X83500000Y-73000000D03*
X85300000Y-73000000D03*
X87100000Y-73000000D03*
X88900000Y-73000000D03*
X90700000Y-73000000D03*
X92500000Y-73000000D03*
%TD*%
D20*
%TO.C,PP_DC12_IN*%
X45500000Y-76500000D03*
%TD*%
%TO.C,PP_DC12_OUT*%
X94500000Y-76500000D03*
%TD*%
D21*
%TO.C,D1*%
X14600000Y-82100000D03*
X15400000Y-82100000D03*
X15400000Y-82900000D03*
X14600000Y-82900000D03*
%TD*%
D20*
%TO.C,PP_D1_A*%
X12000000Y-85500000D03*
%TD*%
%TO.C,PP_D1_KG*%
X14000000Y-85500000D03*
%TD*%
%TO.C,PP_D1_KB*%
X16000000Y-85500000D03*
%TD*%
%TO.C,PP_D1_KR*%
X18000000Y-85500000D03*
%TD*%
D21*
%TO.C,D2*%
X24600000Y-82100000D03*
X25400000Y-82100000D03*
X25400000Y-82900000D03*
X24600000Y-82900000D03*
%TD*%
D20*
%TO.C,PP_D2_A*%
X22000000Y-85500000D03*
%TD*%
%TO.C,PP_D2_KG*%
X24000000Y-85500000D03*
%TD*%
%TO.C,PP_D2_KB*%
X26000000Y-85500000D03*
%TD*%
%TO.C,PP_D2_KR*%
X28000000Y-85500000D03*
%TD*%
D21*
%TO.C,D3*%
X34600000Y-82100000D03*
X35400000Y-82100000D03*
X35400000Y-82900000D03*
X34600000Y-82900000D03*
%TD*%
D20*
%TO.C,PP_D3_A*%
X32000000Y-85500000D03*
%TD*%
%TO.C,PP_D3_KG*%
X34000000Y-85500000D03*
%TD*%
%TO.C,PP_D3_KB*%
X36000000Y-85500000D03*
%TD*%
%TO.C,PP_D3_KR*%
X38000000Y-85500000D03*
%TD*%
D21*
%TO.C,D4*%
X44600000Y-82100000D03*
X45400000Y-82100000D03*
X45400000Y-82900000D03*
X44600000Y-82900000D03*
%TD*%
D20*
%TO.C,PP_D4_A*%
X42000000Y-85500000D03*
%TD*%
%TO.C,PP_D4_KG*%
X44000000Y-85500000D03*
%TD*%
%TO.C,PP_D4_KB*%
X46000000Y-85500000D03*
%TD*%
%TO.C,PP_D4_KR*%
X48000000Y-85500000D03*
%TD*%
D21*
%TO.C,D5*%
X54600000Y-82100000D03*
X55400000Y-82100000D03*
X55400000Y-82900000D03*
X54600000Y-82900000D03*
%TD*%
D20*
%TO.C,PP_D5_A*%
X52000000Y-85500000D03*
%TD*%
%TO.C,PP_D5_KG*%
X54000000Y-85500000D03*
%TD*%
%TO.C,PP_D5_KB*%
X56000000Y-85500000D03*
%TD*%
%TO.C,PP_D5_KR*%
X58000000Y-85500000D03*
%TD*%
D21*
%TO.C,D6*%
X64600000Y-82100000D03*
X65400000Y-82100000D03*
X65400000Y-82900000D03*
X64600000Y-82900000D03*
%TD*%
D20*
%TO.C,PP_D6_A*%
X62000000Y-85500000D03*
%TD*%
%TO.C,PP_D6_KG*%
X64000000Y-85500000D03*
%TD*%
%TO.C,PP_D6_KB*%
X66000000Y-85500000D03*
%TD*%
%TO.C,PP_D6_KR*%
X68000000Y-85500000D03*
%TD*%
D21*
%TO.C,D7*%
X74600000Y-82100000D03*
X75400000Y-82100000D03*
X75400000Y-82900000D03*
X74600000Y-82900000D03*
%TD*%
D20*
%TO.C,PP_D7_A*%
X72000000Y-85500000D03*
%TD*%
%TO.C,PP_D7_KG*%
X74000000Y-85500000D03*
%TD*%
%TO.C,PP_D7_KB*%
X76000000Y-85500000D03*
%TD*%
%TO.C,PP_D7_KR*%
X78000000Y-85500000D03*
%TD*%
D21*
%TO.C,D8*%
X84600000Y-82100000D03*
X85400000Y-82100000D03*
X85400000Y-82900000D03*
X84600000Y-82900000D03*
%TD*%
D20*
%TO.C,PP_D8_A*%
X82000000Y-85500000D03*
%TD*%
%TO.C,PP_D8_KG*%
X84000000Y-85500000D03*
%TD*%
%TO.C,PP_D8_KB*%
X86000000Y-85500000D03*
%TD*%
%TO.C,PP_D8_KR*%
X88000000Y-85500000D03*
%TD*%
M02*
