%TF.GenerationSoftware,KiCad,Pcbnew,9.0.8-9.0.8~ubuntu24.04.1*%
%TF.CreationDate,2026-05-16T16:56:05+02:00*%
%TF.ProjectId,tud-microled-v2,7475642d-6d69-4637-926f-6c65642d7632,v2.0*%
%TF.SameCoordinates,Original*%
%TF.FileFunction,Copper,L2,Bot*%
%TF.FilePolarity,Positive*%
%FSLAX46Y46*%
G04 Gerber Fmt 4.6, Leading zero omitted, Abs format (unit mm)*
G04 Created by KiCad (PCBNEW 9.0.8-9.0.8~ubuntu24.04.1) date 2026-05-16 16:56:05*
%MOMM*%
%LPD*%
G01*
G04 APERTURE LIST*
%TA.AperFunction,ComponentPad*%
%ADD10C,1.700000*%
%TD*%
%TA.AperFunction,ViaPad*%
%ADD11C,0.600000*%
%TD*%
%TA.AperFunction,Conductor*%
%ADD12C,0.800000*%
%TD*%
G04 APERTURE END LIST*
D10*
%TO.P,H_S_28,1*%
%TO.N,LED7_KR*%
X76710000Y-85000000D03*
%TD*%
%TO.P,H_N_16,1*%
%TO.N,N/C*%
X48770000Y-13500000D03*
%TD*%
%TO.P,H_N_12,1*%
%TO.N,N/C*%
X38610000Y-13500000D03*
%TD*%
%TO.P,H_N_10,1*%
%TO.N,DCL6_OUT*%
X33530000Y-13500000D03*
%TD*%
%TO.P,H_S_12,1*%
%TO.N,LED3_KR*%
X36070000Y-85000000D03*
%TD*%
%TO.P,H_N_23,1*%
%TO.N,N/C*%
X66550000Y-13500000D03*
%TD*%
%TO.P,H_S_11,1*%
%TO.N,LED3_KB*%
X33530000Y-85000000D03*
%TD*%
%TO.P,H_N_20,1*%
%TO.N,N/C*%
X58930000Y-13500000D03*
%TD*%
%TO.P,H_S_24,1*%
%TO.N,LED6_KR*%
X66550000Y-85000000D03*
%TD*%
%TO.P,H_N_22,1*%
%TO.N,DCL12_IN*%
X64010000Y-13500000D03*
%TD*%
%TO.P,H_N_2,1*%
%TO.N,N/C*%
X13210000Y-13500000D03*
%TD*%
%TO.P,H_S_9,1*%
%TO.N,LED_VCC*%
X28450000Y-85000000D03*
%TD*%
%TO.P,H_S_31,1*%
%TO.N,LED8_KB*%
X84330000Y-85000000D03*
%TD*%
%TO.P,H_N_18,1*%
%TO.N,N/C*%
X53850000Y-13500000D03*
%TD*%
%TO.P,H_N_9,1*%
%TO.N,N/C*%
X30990000Y-13500000D03*
%TD*%
%TO.P,H_N_6,1*%
%TO.N,N/C*%
X23370000Y-13500000D03*
%TD*%
%TO.P,H_N_11,1*%
%TO.N,N/C*%
X36070000Y-13500000D03*
%TD*%
%TO.P,H_N_1,1*%
%TO.N,DCL6_IN*%
X10670000Y-13500000D03*
%TD*%
%TO.P,H_S_22,1*%
%TO.N,LED6_KG*%
X61470000Y-85000000D03*
%TD*%
%TO.P,H_S_30,1*%
%TO.N,LED8_KG*%
X81790000Y-85000000D03*
%TD*%
%TO.P,H_S_27,1*%
%TO.N,LED7_KB*%
X74170000Y-85000000D03*
%TD*%
%TO.P,H_S_5,1*%
%TO.N,LED_VCC*%
X18290000Y-85000000D03*
%TD*%
%TO.P,H_S_17,1*%
%TO.N,LED_VCC*%
X48770000Y-85000000D03*
%TD*%
%TO.P,H_N_13,1*%
%TO.N,N/C*%
X41150000Y-13500000D03*
%TD*%
%TO.P,H_S_16,1*%
%TO.N,LED4_KR*%
X46230000Y-85000000D03*
%TD*%
%TO.P,H_N_3,1*%
%TO.N,N/C*%
X15750000Y-13500000D03*
%TD*%
%TO.P,H_S_6,1*%
%TO.N,LED2_KG*%
X20830000Y-85000000D03*
%TD*%
%TO.P,H_S_2,1*%
%TO.N,LED1_KG*%
X10670000Y-85000000D03*
%TD*%
%TO.P,H_N_5,1*%
%TO.N,N/C*%
X20830000Y-13500000D03*
%TD*%
%TO.P,H_N_30,1*%
%TO.N,DCL12_OUT*%
X84330000Y-13500000D03*
%TD*%
%TO.P,H_N_29,1*%
%TO.N,N/C*%
X81790000Y-13500000D03*
%TD*%
%TO.P,H_S_25,1*%
%TO.N,LED_VCC*%
X69090000Y-85000000D03*
%TD*%
%TO.P,H_S_15,1*%
%TO.N,LED4_KB*%
X43690000Y-85000000D03*
%TD*%
%TO.P,H_N_8,1*%
%TO.N,N/C*%
X28450000Y-13500000D03*
%TD*%
%TO.P,H_N_28,1*%
%TO.N,N/C*%
X79250000Y-13500000D03*
%TD*%
%TO.P,H_S_7,1*%
%TO.N,LED2_KB*%
X23370000Y-85000000D03*
%TD*%
%TO.P,H_S_18,1*%
%TO.N,LED5_KG*%
X51310000Y-85000000D03*
%TD*%
%TO.P,H_S_29,1*%
%TO.N,LED_VCC*%
X79250000Y-85000000D03*
%TD*%
%TO.P,H_N_24,1*%
%TO.N,N/C*%
X69090000Y-13500000D03*
%TD*%
%TO.P,H_S_32,1*%
%TO.N,LED8_KR*%
X86870000Y-85000000D03*
%TD*%
%TO.P,H_N_15,1*%
%TO.N,N/C*%
X46230000Y-13500000D03*
%TD*%
%TO.P,H_S_21,1*%
%TO.N,LED_VCC*%
X58930000Y-85000000D03*
%TD*%
%TO.P,H_S_13,1*%
%TO.N,LED_VCC*%
X38610000Y-85000000D03*
%TD*%
%TO.P,H_N_21,1*%
%TO.N,N/C*%
X61470000Y-13500000D03*
%TD*%
%TO.P,H_N_27,1*%
%TO.N,N/C*%
X76710000Y-13500000D03*
%TD*%
%TO.P,H_N_4,1*%
%TO.N,N/C*%
X18290000Y-13500000D03*
%TD*%
%TO.P,H_N_26,1*%
%TO.N,N/C*%
X74170000Y-13500000D03*
%TD*%
%TO.P,H_N_17,1*%
%TO.N,N/C*%
X51310000Y-13500000D03*
%TD*%
%TO.P,H_S_1,1*%
%TO.N,LED_VCC*%
X8130000Y-85000000D03*
%TD*%
%TO.P,H_S_14,1*%
%TO.N,LED4_KG*%
X41150000Y-85000000D03*
%TD*%
%TO.P,H_S_4,1*%
%TO.N,LED1_KR*%
X15750000Y-85000000D03*
%TD*%
%TO.P,H_N_25,1*%
%TO.N,N/C*%
X71630000Y-13500000D03*
%TD*%
%TO.P,H_N_14,1*%
%TO.N,N/C*%
X43690000Y-13500000D03*
%TD*%
%TO.P,H_S_20,1*%
%TO.N,LED5_KR*%
X56390000Y-85000000D03*
%TD*%
%TO.P,H_S_26,1*%
%TO.N,LED7_KG*%
X71630000Y-85000000D03*
%TD*%
%TO.P,H_N_7,1*%
%TO.N,N/C*%
X25910000Y-13500000D03*
%TD*%
%TO.P,H_S_3,1*%
%TO.N,LED1_KB*%
X13210000Y-85000000D03*
%TD*%
%TO.P,H_S_19,1*%
%TO.N,LED5_KB*%
X53850000Y-85000000D03*
%TD*%
%TO.P,H_S_23,1*%
%TO.N,LED6_KB*%
X64010000Y-85000000D03*
%TD*%
%TO.P,H_S_8,1*%
%TO.N,LED2_KR*%
X25910000Y-85000000D03*
%TD*%
%TO.P,H_N_19,1*%
%TO.N,N/C*%
X56390000Y-13500000D03*
%TD*%
%TO.P,H_S_10,1*%
%TO.N,LED3_KG*%
X30990000Y-85000000D03*
%TD*%
D11*
%TO.N,LED_VCC*%
X49500000Y-81000000D03*
X79500000Y-81000000D03*
X59500000Y-81000000D03*
X9500000Y-81000000D03*
X29500000Y-81000000D03*
X19500000Y-81000000D03*
X69500000Y-81000000D03*
X39500000Y-81000000D03*
%TO.N,GND*%
X40500000Y-76500000D03*
X80500000Y-76500000D03*
X88000000Y-89500000D03*
X88000000Y-16000000D03*
X60500000Y-76500000D03*
X7000000Y-16000000D03*
X7000000Y-89500000D03*
X20500000Y-76500000D03*
%TD*%
D12*
%TO.N,LED_VCC*%
X59500000Y-81000000D02*
X69500000Y-81000000D01*
X39500000Y-81000000D02*
X49500000Y-81000000D01*
X29500000Y-81000000D02*
X39500000Y-81000000D01*
X49500000Y-81000000D02*
X59500000Y-81000000D01*
X19500000Y-81000000D02*
X29500000Y-81000000D01*
X9500000Y-81000000D02*
X19500000Y-81000000D01*
X69500000Y-81000000D02*
X79500000Y-81000000D01*
%TD*%
%TA.AperFunction,Conductor*%
%TO.N,GND*%
G36*
X92459191Y-2518907D02*
G01*
X92495155Y-2568407D01*
X92500000Y-2599000D01*
X92500000Y-92401000D01*
X92481093Y-92459191D01*
X92431593Y-92495155D01*
X92401000Y-92500000D01*
X2599000Y-92500000D01*
X2540809Y-92481093D01*
X2504845Y-92431593D01*
X2500000Y-92401000D01*
X2500000Y-84896532D01*
X7079500Y-84896532D01*
X7079500Y-85103467D01*
X7119869Y-85306418D01*
X7199058Y-85497597D01*
X7199059Y-85497598D01*
X7314023Y-85669655D01*
X7460345Y-85815977D01*
X7632402Y-85930941D01*
X7823580Y-86010130D01*
X8026535Y-86050500D01*
X8026536Y-86050500D01*
X8233464Y-86050500D01*
X8233465Y-86050500D01*
X8436420Y-86010130D01*
X8627598Y-85930941D01*
X8799655Y-85815977D01*
X8945977Y-85669655D01*
X9060941Y-85497598D01*
X9140130Y-85306420D01*
X9180500Y-85103465D01*
X9180500Y-84896535D01*
X9180499Y-84896532D01*
X9619500Y-84896532D01*
X9619500Y-85103467D01*
X9659869Y-85306418D01*
X9739058Y-85497597D01*
X9739059Y-85497598D01*
X9854023Y-85669655D01*
X10000345Y-85815977D01*
X10172402Y-85930941D01*
X10363580Y-86010130D01*
X10566535Y-86050500D01*
X10566536Y-86050500D01*
X10773464Y-86050500D01*
X10773465Y-86050500D01*
X10976420Y-86010130D01*
X11167598Y-85930941D01*
X11339655Y-85815977D01*
X11485977Y-85669655D01*
X11600941Y-85497598D01*
X11680130Y-85306420D01*
X11720500Y-85103465D01*
X11720500Y-84896535D01*
X11720499Y-84896532D01*
X12159500Y-84896532D01*
X12159500Y-85103467D01*
X12199869Y-85306418D01*
X12279058Y-85497597D01*
X12279059Y-85497598D01*
X12394023Y-85669655D01*
X12540345Y-85815977D01*
X12712402Y-85930941D01*
X12903580Y-86010130D01*
X13106535Y-86050500D01*
X13106536Y-86050500D01*
X13313464Y-86050500D01*
X13313465Y-86050500D01*
X13516420Y-86010130D01*
X13707598Y-85930941D01*
X13879655Y-85815977D01*
X14025977Y-85669655D01*
X14140941Y-85497598D01*
X14220130Y-85306420D01*
X14260500Y-85103465D01*
X14260500Y-84896535D01*
X14260499Y-84896532D01*
X14699500Y-84896532D01*
X14699500Y-85103467D01*
X14739869Y-85306418D01*
X14819058Y-85497597D01*
X14819059Y-85497598D01*
X14934023Y-85669655D01*
X15080345Y-85815977D01*
X15252402Y-85930941D01*
X15443580Y-86010130D01*
X15646535Y-86050500D01*
X15646536Y-86050500D01*
X15853464Y-86050500D01*
X15853465Y-86050500D01*
X16056420Y-86010130D01*
X16247598Y-85930941D01*
X16419655Y-85815977D01*
X16565977Y-85669655D01*
X16680941Y-85497598D01*
X16760130Y-85306420D01*
X16800500Y-85103465D01*
X16800500Y-84896535D01*
X16800499Y-84896532D01*
X17239500Y-84896532D01*
X17239500Y-85103467D01*
X17279869Y-85306418D01*
X17359058Y-85497597D01*
X17359059Y-85497598D01*
X17474023Y-85669655D01*
X17620345Y-85815977D01*
X17792402Y-85930941D01*
X17983580Y-86010130D01*
X18186535Y-86050500D01*
X18186536Y-86050500D01*
X18393464Y-86050500D01*
X18393465Y-86050500D01*
X18596420Y-86010130D01*
X18787598Y-85930941D01*
X18959655Y-85815977D01*
X19105977Y-85669655D01*
X19220941Y-85497598D01*
X19300130Y-85306420D01*
X19340500Y-85103465D01*
X19340500Y-84896535D01*
X19340499Y-84896532D01*
X19779500Y-84896532D01*
X19779500Y-85103467D01*
X19819869Y-85306418D01*
X19899058Y-85497597D01*
X19899059Y-85497598D01*
X20014023Y-85669655D01*
X20160345Y-85815977D01*
X20332402Y-85930941D01*
X20523580Y-86010130D01*
X20726535Y-86050500D01*
X20726536Y-86050500D01*
X20933464Y-86050500D01*
X20933465Y-86050500D01*
X21136420Y-86010130D01*
X21327598Y-85930941D01*
X21499655Y-85815977D01*
X21645977Y-85669655D01*
X21760941Y-85497598D01*
X21840130Y-85306420D01*
X21880500Y-85103465D01*
X21880500Y-84896535D01*
X21880499Y-84896532D01*
X22319500Y-84896532D01*
X22319500Y-85103467D01*
X22359869Y-85306418D01*
X22439058Y-85497597D01*
X22439059Y-85497598D01*
X22554023Y-85669655D01*
X22700345Y-85815977D01*
X22872402Y-85930941D01*
X23063580Y-86010130D01*
X23266535Y-86050500D01*
X23266536Y-86050500D01*
X23473464Y-86050500D01*
X23473465Y-86050500D01*
X23676420Y-86010130D01*
X23867598Y-85930941D01*
X24039655Y-85815977D01*
X24185977Y-85669655D01*
X24300941Y-85497598D01*
X24380130Y-85306420D01*
X24420500Y-85103465D01*
X24420500Y-84896535D01*
X24420499Y-84896532D01*
X24859500Y-84896532D01*
X24859500Y-85103467D01*
X24899869Y-85306418D01*
X24979058Y-85497597D01*
X24979059Y-85497598D01*
X25094023Y-85669655D01*
X25240345Y-85815977D01*
X25412402Y-85930941D01*
X25603580Y-86010130D01*
X25806535Y-86050500D01*
X25806536Y-86050500D01*
X26013464Y-86050500D01*
X26013465Y-86050500D01*
X26216420Y-86010130D01*
X26407598Y-85930941D01*
X26579655Y-85815977D01*
X26725977Y-85669655D01*
X26840941Y-85497598D01*
X26920130Y-85306420D01*
X26960500Y-85103465D01*
X26960500Y-84896535D01*
X26960499Y-84896532D01*
X27399500Y-84896532D01*
X27399500Y-85103467D01*
X27439869Y-85306418D01*
X27519058Y-85497597D01*
X27519059Y-85497598D01*
X27634023Y-85669655D01*
X27780345Y-85815977D01*
X27952402Y-85930941D01*
X28143580Y-86010130D01*
X28346535Y-86050500D01*
X28346536Y-86050500D01*
X28553464Y-86050500D01*
X28553465Y-86050500D01*
X28756420Y-86010130D01*
X28947598Y-85930941D01*
X29119655Y-85815977D01*
X29265977Y-85669655D01*
X29380941Y-85497598D01*
X29460130Y-85306420D01*
X29500500Y-85103465D01*
X29500500Y-84896535D01*
X29500499Y-84896532D01*
X29939500Y-84896532D01*
X29939500Y-85103467D01*
X29979869Y-85306418D01*
X30059058Y-85497597D01*
X30059059Y-85497598D01*
X30174023Y-85669655D01*
X30320345Y-85815977D01*
X30492402Y-85930941D01*
X30683580Y-86010130D01*
X30886535Y-86050500D01*
X30886536Y-86050500D01*
X31093464Y-86050500D01*
X31093465Y-86050500D01*
X31296420Y-86010130D01*
X31487598Y-85930941D01*
X31659655Y-85815977D01*
X31805977Y-85669655D01*
X31920941Y-85497598D01*
X32000130Y-85306420D01*
X32040500Y-85103465D01*
X32040500Y-84896535D01*
X32040499Y-84896532D01*
X32479500Y-84896532D01*
X32479500Y-85103467D01*
X32519869Y-85306418D01*
X32599058Y-85497597D01*
X32599059Y-85497598D01*
X32714023Y-85669655D01*
X32860345Y-85815977D01*
X33032402Y-85930941D01*
X33223580Y-86010130D01*
X33426535Y-86050500D01*
X33426536Y-86050500D01*
X33633464Y-86050500D01*
X33633465Y-86050500D01*
X33836420Y-86010130D01*
X34027598Y-85930941D01*
X34199655Y-85815977D01*
X34345977Y-85669655D01*
X34460941Y-85497598D01*
X34540130Y-85306420D01*
X34580500Y-85103465D01*
X34580500Y-84896535D01*
X34580499Y-84896532D01*
X35019500Y-84896532D01*
X35019500Y-85103467D01*
X35059869Y-85306418D01*
X35139058Y-85497597D01*
X35139059Y-85497598D01*
X35254023Y-85669655D01*
X35400345Y-85815977D01*
X35572402Y-85930941D01*
X35763580Y-86010130D01*
X35966535Y-86050500D01*
X35966536Y-86050500D01*
X36173464Y-86050500D01*
X36173465Y-86050500D01*
X36376420Y-86010130D01*
X36567598Y-85930941D01*
X36739655Y-85815977D01*
X36885977Y-85669655D01*
X37000941Y-85497598D01*
X37080130Y-85306420D01*
X37120500Y-85103465D01*
X37120500Y-84896535D01*
X37120499Y-84896532D01*
X37559500Y-84896532D01*
X37559500Y-85103467D01*
X37599869Y-85306418D01*
X37679058Y-85497597D01*
X37679059Y-85497598D01*
X37794023Y-85669655D01*
X37940345Y-85815977D01*
X38112402Y-85930941D01*
X38303580Y-86010130D01*
X38506535Y-86050500D01*
X38506536Y-86050500D01*
X38713464Y-86050500D01*
X38713465Y-86050500D01*
X38916420Y-86010130D01*
X39107598Y-85930941D01*
X39279655Y-85815977D01*
X39425977Y-85669655D01*
X39540941Y-85497598D01*
X39620130Y-85306420D01*
X39660500Y-85103465D01*
X39660500Y-84896535D01*
X39660499Y-84896532D01*
X40099500Y-84896532D01*
X40099500Y-85103467D01*
X40139869Y-85306418D01*
X40219058Y-85497597D01*
X40219059Y-85497598D01*
X40334023Y-85669655D01*
X40480345Y-85815977D01*
X40652402Y-85930941D01*
X40843580Y-86010130D01*
X41046535Y-86050500D01*
X41046536Y-86050500D01*
X41253464Y-86050500D01*
X41253465Y-86050500D01*
X41456420Y-86010130D01*
X41647598Y-85930941D01*
X41819655Y-85815977D01*
X41965977Y-85669655D01*
X42080941Y-85497598D01*
X42160130Y-85306420D01*
X42200500Y-85103465D01*
X42200500Y-84896535D01*
X42200499Y-84896532D01*
X42639500Y-84896532D01*
X42639500Y-85103467D01*
X42679869Y-85306418D01*
X42759058Y-85497597D01*
X42759059Y-85497598D01*
X42874023Y-85669655D01*
X43020345Y-85815977D01*
X43192402Y-85930941D01*
X43383580Y-86010130D01*
X43586535Y-86050500D01*
X43586536Y-86050500D01*
X43793464Y-86050500D01*
X43793465Y-86050500D01*
X43996420Y-86010130D01*
X44187598Y-85930941D01*
X44359655Y-85815977D01*
X44505977Y-85669655D01*
X44620941Y-85497598D01*
X44700130Y-85306420D01*
X44740500Y-85103465D01*
X44740500Y-84896535D01*
X44740499Y-84896532D01*
X45179500Y-84896532D01*
X45179500Y-85103467D01*
X45219869Y-85306418D01*
X45299058Y-85497597D01*
X45299059Y-85497598D01*
X45414023Y-85669655D01*
X45560345Y-85815977D01*
X45732402Y-85930941D01*
X45923580Y-86010130D01*
X46126535Y-86050500D01*
X46126536Y-86050500D01*
X46333464Y-86050500D01*
X46333465Y-86050500D01*
X46536420Y-86010130D01*
X46727598Y-85930941D01*
X46899655Y-85815977D01*
X47045977Y-85669655D01*
X47160941Y-85497598D01*
X47240130Y-85306420D01*
X47280500Y-85103465D01*
X47280500Y-84896535D01*
X47280499Y-84896532D01*
X47719500Y-84896532D01*
X47719500Y-85103467D01*
X47759869Y-85306418D01*
X47839058Y-85497597D01*
X47839059Y-85497598D01*
X47954023Y-85669655D01*
X48100345Y-85815977D01*
X48272402Y-85930941D01*
X48463580Y-86010130D01*
X48666535Y-86050500D01*
X48666536Y-86050500D01*
X48873464Y-86050500D01*
X48873465Y-86050500D01*
X49076420Y-86010130D01*
X49267598Y-85930941D01*
X49439655Y-85815977D01*
X49585977Y-85669655D01*
X49700941Y-85497598D01*
X49780130Y-85306420D01*
X49820500Y-85103465D01*
X49820500Y-84896535D01*
X49820499Y-84896532D01*
X50259500Y-84896532D01*
X50259500Y-85103467D01*
X50299869Y-85306418D01*
X50379058Y-85497597D01*
X50379059Y-85497598D01*
X50494023Y-85669655D01*
X50640345Y-85815977D01*
X50812402Y-85930941D01*
X51003580Y-86010130D01*
X51206535Y-86050500D01*
X51206536Y-86050500D01*
X51413464Y-86050500D01*
X51413465Y-86050500D01*
X51616420Y-86010130D01*
X51807598Y-85930941D01*
X51979655Y-85815977D01*
X52125977Y-85669655D01*
X52240941Y-85497598D01*
X52320130Y-85306420D01*
X52360500Y-85103465D01*
X52360500Y-84896535D01*
X52360499Y-84896532D01*
X52799500Y-84896532D01*
X52799500Y-85103467D01*
X52839869Y-85306418D01*
X52919058Y-85497597D01*
X52919059Y-85497598D01*
X53034023Y-85669655D01*
X53180345Y-85815977D01*
X53352402Y-85930941D01*
X53543580Y-86010130D01*
X53746535Y-86050500D01*
X53746536Y-86050500D01*
X53953464Y-86050500D01*
X53953465Y-86050500D01*
X54156420Y-86010130D01*
X54347598Y-85930941D01*
X54519655Y-85815977D01*
X54665977Y-85669655D01*
X54780941Y-85497598D01*
X54860130Y-85306420D01*
X54900500Y-85103465D01*
X54900500Y-84896535D01*
X54900499Y-84896532D01*
X55339500Y-84896532D01*
X55339500Y-85103467D01*
X55379869Y-85306418D01*
X55459058Y-85497597D01*
X55459059Y-85497598D01*
X55574023Y-85669655D01*
X55720345Y-85815977D01*
X55892402Y-85930941D01*
X56083580Y-86010130D01*
X56286535Y-86050500D01*
X56286536Y-86050500D01*
X56493464Y-86050500D01*
X56493465Y-86050500D01*
X56696420Y-86010130D01*
X56887598Y-85930941D01*
X57059655Y-85815977D01*
X57205977Y-85669655D01*
X57320941Y-85497598D01*
X57400130Y-85306420D01*
X57440500Y-85103465D01*
X57440500Y-84896535D01*
X57440499Y-84896532D01*
X57879500Y-84896532D01*
X57879500Y-85103467D01*
X57919869Y-85306418D01*
X57999058Y-85497597D01*
X57999059Y-85497598D01*
X58114023Y-85669655D01*
X58260345Y-85815977D01*
X58432402Y-85930941D01*
X58623580Y-86010130D01*
X58826535Y-86050500D01*
X58826536Y-86050500D01*
X59033464Y-86050500D01*
X59033465Y-86050500D01*
X59236420Y-86010130D01*
X59427598Y-85930941D01*
X59599655Y-85815977D01*
X59745977Y-85669655D01*
X59860941Y-85497598D01*
X59940130Y-85306420D01*
X59980500Y-85103465D01*
X59980500Y-84896535D01*
X59980499Y-84896532D01*
X60419500Y-84896532D01*
X60419500Y-85103467D01*
X60459869Y-85306418D01*
X60539058Y-85497597D01*
X60539059Y-85497598D01*
X60654023Y-85669655D01*
X60800345Y-85815977D01*
X60972402Y-85930941D01*
X61163580Y-86010130D01*
X61366535Y-86050500D01*
X61366536Y-86050500D01*
X61573464Y-86050500D01*
X61573465Y-86050500D01*
X61776420Y-86010130D01*
X61967598Y-85930941D01*
X62139655Y-85815977D01*
X62285977Y-85669655D01*
X62400941Y-85497598D01*
X62480130Y-85306420D01*
X62520500Y-85103465D01*
X62520500Y-84896535D01*
X62520499Y-84896532D01*
X62959500Y-84896532D01*
X62959500Y-85103467D01*
X62999869Y-85306418D01*
X63079058Y-85497597D01*
X63079059Y-85497598D01*
X63194023Y-85669655D01*
X63340345Y-85815977D01*
X63512402Y-85930941D01*
X63703580Y-86010130D01*
X63906535Y-86050500D01*
X63906536Y-86050500D01*
X64113464Y-86050500D01*
X64113465Y-86050500D01*
X64316420Y-86010130D01*
X64507598Y-85930941D01*
X64679655Y-85815977D01*
X64825977Y-85669655D01*
X64940941Y-85497598D01*
X65020130Y-85306420D01*
X65060500Y-85103465D01*
X65060500Y-84896535D01*
X65060499Y-84896532D01*
X65499500Y-84896532D01*
X65499500Y-85103467D01*
X65539869Y-85306418D01*
X65619058Y-85497597D01*
X65619059Y-85497598D01*
X65734023Y-85669655D01*
X65880345Y-85815977D01*
X66052402Y-85930941D01*
X66243580Y-86010130D01*
X66446535Y-86050500D01*
X66446536Y-86050500D01*
X66653464Y-86050500D01*
X66653465Y-86050500D01*
X66856420Y-86010130D01*
X67047598Y-85930941D01*
X67219655Y-85815977D01*
X67365977Y-85669655D01*
X67480941Y-85497598D01*
X67560130Y-85306420D01*
X67600500Y-85103465D01*
X67600500Y-84896535D01*
X67600499Y-84896532D01*
X68039500Y-84896532D01*
X68039500Y-85103467D01*
X68079869Y-85306418D01*
X68159058Y-85497597D01*
X68159059Y-85497598D01*
X68274023Y-85669655D01*
X68420345Y-85815977D01*
X68592402Y-85930941D01*
X68783580Y-86010130D01*
X68986535Y-86050500D01*
X68986536Y-86050500D01*
X69193464Y-86050500D01*
X69193465Y-86050500D01*
X69396420Y-86010130D01*
X69587598Y-85930941D01*
X69759655Y-85815977D01*
X69905977Y-85669655D01*
X70020941Y-85497598D01*
X70100130Y-85306420D01*
X70140500Y-85103465D01*
X70140500Y-84896535D01*
X70140499Y-84896532D01*
X70579500Y-84896532D01*
X70579500Y-85103467D01*
X70619869Y-85306418D01*
X70699058Y-85497597D01*
X70699059Y-85497598D01*
X70814023Y-85669655D01*
X70960345Y-85815977D01*
X71132402Y-85930941D01*
X71323580Y-86010130D01*
X71526535Y-86050500D01*
X71526536Y-86050500D01*
X71733464Y-86050500D01*
X71733465Y-86050500D01*
X71936420Y-86010130D01*
X72127598Y-85930941D01*
X72299655Y-85815977D01*
X72445977Y-85669655D01*
X72560941Y-85497598D01*
X72640130Y-85306420D01*
X72680500Y-85103465D01*
X72680500Y-84896535D01*
X72680499Y-84896532D01*
X73119500Y-84896532D01*
X73119500Y-85103467D01*
X73159869Y-85306418D01*
X73239058Y-85497597D01*
X73239059Y-85497598D01*
X73354023Y-85669655D01*
X73500345Y-85815977D01*
X73672402Y-85930941D01*
X73863580Y-86010130D01*
X74066535Y-86050500D01*
X74066536Y-86050500D01*
X74273464Y-86050500D01*
X74273465Y-86050500D01*
X74476420Y-86010130D01*
X74667598Y-85930941D01*
X74839655Y-85815977D01*
X74985977Y-85669655D01*
X75100941Y-85497598D01*
X75180130Y-85306420D01*
X75220500Y-85103465D01*
X75220500Y-84896535D01*
X75220499Y-84896532D01*
X75659500Y-84896532D01*
X75659500Y-85103467D01*
X75699869Y-85306418D01*
X75779058Y-85497597D01*
X75779059Y-85497598D01*
X75894023Y-85669655D01*
X76040345Y-85815977D01*
X76212402Y-85930941D01*
X76403580Y-86010130D01*
X76606535Y-86050500D01*
X76606536Y-86050500D01*
X76813464Y-86050500D01*
X76813465Y-86050500D01*
X77016420Y-86010130D01*
X77207598Y-85930941D01*
X77379655Y-85815977D01*
X77525977Y-85669655D01*
X77640941Y-85497598D01*
X77720130Y-85306420D01*
X77760500Y-85103465D01*
X77760500Y-84896535D01*
X77760499Y-84896532D01*
X78199500Y-84896532D01*
X78199500Y-85103467D01*
X78239869Y-85306418D01*
X78319058Y-85497597D01*
X78319059Y-85497598D01*
X78434023Y-85669655D01*
X78580345Y-85815977D01*
X78752402Y-85930941D01*
X78943580Y-86010130D01*
X79146535Y-86050500D01*
X79146536Y-86050500D01*
X79353464Y-86050500D01*
X79353465Y-86050500D01*
X79556420Y-86010130D01*
X79747598Y-85930941D01*
X79919655Y-85815977D01*
X80065977Y-85669655D01*
X80180941Y-85497598D01*
X80260130Y-85306420D01*
X80300500Y-85103465D01*
X80300500Y-84896535D01*
X80300499Y-84896532D01*
X80739500Y-84896532D01*
X80739500Y-85103467D01*
X80779869Y-85306418D01*
X80859058Y-85497597D01*
X80859059Y-85497598D01*
X80974023Y-85669655D01*
X81120345Y-85815977D01*
X81292402Y-85930941D01*
X81483580Y-86010130D01*
X81686535Y-86050500D01*
X81686536Y-86050500D01*
X81893464Y-86050500D01*
X81893465Y-86050500D01*
X82096420Y-86010130D01*
X82287598Y-85930941D01*
X82459655Y-85815977D01*
X82605977Y-85669655D01*
X82720941Y-85497598D01*
X82800130Y-85306420D01*
X82840500Y-85103465D01*
X82840500Y-84896535D01*
X82840499Y-84896532D01*
X83279500Y-84896532D01*
X83279500Y-85103467D01*
X83319869Y-85306418D01*
X83399058Y-85497597D01*
X83399059Y-85497598D01*
X83514023Y-85669655D01*
X83660345Y-85815977D01*
X83832402Y-85930941D01*
X84023580Y-86010130D01*
X84226535Y-86050500D01*
X84226536Y-86050500D01*
X84433464Y-86050500D01*
X84433465Y-86050500D01*
X84636420Y-86010130D01*
X84827598Y-85930941D01*
X84999655Y-85815977D01*
X85145977Y-85669655D01*
X85260941Y-85497598D01*
X85340130Y-85306420D01*
X85380500Y-85103465D01*
X85380500Y-84896535D01*
X85380499Y-84896532D01*
X85819500Y-84896532D01*
X85819500Y-85103467D01*
X85859869Y-85306418D01*
X85939058Y-85497597D01*
X85939059Y-85497598D01*
X86054023Y-85669655D01*
X86200345Y-85815977D01*
X86372402Y-85930941D01*
X86563580Y-86010130D01*
X86766535Y-86050500D01*
X86766536Y-86050500D01*
X86973464Y-86050500D01*
X86973465Y-86050500D01*
X87176420Y-86010130D01*
X87367598Y-85930941D01*
X87539655Y-85815977D01*
X87685977Y-85669655D01*
X87800941Y-85497598D01*
X87880130Y-85306420D01*
X87920500Y-85103465D01*
X87920500Y-84896535D01*
X87880130Y-84693580D01*
X87800941Y-84502402D01*
X87685977Y-84330345D01*
X87539655Y-84184023D01*
X87367598Y-84069059D01*
X87367599Y-84069059D01*
X87367597Y-84069058D01*
X87176418Y-83989869D01*
X86973467Y-83949500D01*
X86973465Y-83949500D01*
X86766535Y-83949500D01*
X86766532Y-83949500D01*
X86563581Y-83989869D01*
X86372402Y-84069058D01*
X86200348Y-84184020D01*
X86054020Y-84330348D01*
X85939058Y-84502402D01*
X85859869Y-84693581D01*
X85819500Y-84896532D01*
X85380499Y-84896532D01*
X85340130Y-84693580D01*
X85260941Y-84502402D01*
X85145977Y-84330345D01*
X84999655Y-84184023D01*
X84827598Y-84069059D01*
X84827599Y-84069059D01*
X84827597Y-84069058D01*
X84636418Y-83989869D01*
X84433467Y-83949500D01*
X84433465Y-83949500D01*
X84226535Y-83949500D01*
X84226532Y-83949500D01*
X84023581Y-83989869D01*
X83832402Y-84069058D01*
X83660348Y-84184020D01*
X83514020Y-84330348D01*
X83399058Y-84502402D01*
X83319869Y-84693581D01*
X83279500Y-84896532D01*
X82840499Y-84896532D01*
X82800130Y-84693580D01*
X82720941Y-84502402D01*
X82605977Y-84330345D01*
X82459655Y-84184023D01*
X82287598Y-84069059D01*
X82287599Y-84069059D01*
X82287597Y-84069058D01*
X82096418Y-83989869D01*
X81893467Y-83949500D01*
X81893465Y-83949500D01*
X81686535Y-83949500D01*
X81686532Y-83949500D01*
X81483581Y-83989869D01*
X81292402Y-84069058D01*
X81120348Y-84184020D01*
X80974020Y-84330348D01*
X80859058Y-84502402D01*
X80779869Y-84693581D01*
X80739500Y-84896532D01*
X80300499Y-84896532D01*
X80260130Y-84693580D01*
X80180941Y-84502402D01*
X80065977Y-84330345D01*
X79919655Y-84184023D01*
X79747598Y-84069059D01*
X79747599Y-84069059D01*
X79747597Y-84069058D01*
X79556418Y-83989869D01*
X79353467Y-83949500D01*
X79353465Y-83949500D01*
X79146535Y-83949500D01*
X79146532Y-83949500D01*
X78943581Y-83989869D01*
X78752402Y-84069058D01*
X78580348Y-84184020D01*
X78434020Y-84330348D01*
X78319058Y-84502402D01*
X78239869Y-84693581D01*
X78199500Y-84896532D01*
X77760499Y-84896532D01*
X77720130Y-84693580D01*
X77640941Y-84502402D01*
X77525977Y-84330345D01*
X77379655Y-84184023D01*
X77207598Y-84069059D01*
X77207599Y-84069059D01*
X77207597Y-84069058D01*
X77016418Y-83989869D01*
X76813467Y-83949500D01*
X76813465Y-83949500D01*
X76606535Y-83949500D01*
X76606532Y-83949500D01*
X76403581Y-83989869D01*
X76212402Y-84069058D01*
X76040348Y-84184020D01*
X75894020Y-84330348D01*
X75779058Y-84502402D01*
X75699869Y-84693581D01*
X75659500Y-84896532D01*
X75220499Y-84896532D01*
X75180130Y-84693580D01*
X75100941Y-84502402D01*
X74985977Y-84330345D01*
X74839655Y-84184023D01*
X74667598Y-84069059D01*
X74667599Y-84069059D01*
X74667597Y-84069058D01*
X74476418Y-83989869D01*
X74273467Y-83949500D01*
X74273465Y-83949500D01*
X74066535Y-83949500D01*
X74066532Y-83949500D01*
X73863581Y-83989869D01*
X73672402Y-84069058D01*
X73500348Y-84184020D01*
X73354020Y-84330348D01*
X73239058Y-84502402D01*
X73159869Y-84693581D01*
X73119500Y-84896532D01*
X72680499Y-84896532D01*
X72640130Y-84693580D01*
X72560941Y-84502402D01*
X72445977Y-84330345D01*
X72299655Y-84184023D01*
X72127598Y-84069059D01*
X72127599Y-84069059D01*
X72127597Y-84069058D01*
X71936418Y-83989869D01*
X71733467Y-83949500D01*
X71733465Y-83949500D01*
X71526535Y-83949500D01*
X71526532Y-83949500D01*
X71323581Y-83989869D01*
X71132402Y-84069058D01*
X70960348Y-84184020D01*
X70814020Y-84330348D01*
X70699058Y-84502402D01*
X70619869Y-84693581D01*
X70579500Y-84896532D01*
X70140499Y-84896532D01*
X70100130Y-84693580D01*
X70020941Y-84502402D01*
X69905977Y-84330345D01*
X69759655Y-84184023D01*
X69587598Y-84069059D01*
X69587599Y-84069059D01*
X69587597Y-84069058D01*
X69396418Y-83989869D01*
X69193467Y-83949500D01*
X69193465Y-83949500D01*
X68986535Y-83949500D01*
X68986532Y-83949500D01*
X68783581Y-83989869D01*
X68592402Y-84069058D01*
X68420348Y-84184020D01*
X68274020Y-84330348D01*
X68159058Y-84502402D01*
X68079869Y-84693581D01*
X68039500Y-84896532D01*
X67600499Y-84896532D01*
X67560130Y-84693580D01*
X67480941Y-84502402D01*
X67365977Y-84330345D01*
X67219655Y-84184023D01*
X67047598Y-84069059D01*
X67047599Y-84069059D01*
X67047597Y-84069058D01*
X66856418Y-83989869D01*
X66653467Y-83949500D01*
X66653465Y-83949500D01*
X66446535Y-83949500D01*
X66446532Y-83949500D01*
X66243581Y-83989869D01*
X66052402Y-84069058D01*
X65880348Y-84184020D01*
X65734020Y-84330348D01*
X65619058Y-84502402D01*
X65539869Y-84693581D01*
X65499500Y-84896532D01*
X65060499Y-84896532D01*
X65020130Y-84693580D01*
X64940941Y-84502402D01*
X64825977Y-84330345D01*
X64679655Y-84184023D01*
X64507598Y-84069059D01*
X64507599Y-84069059D01*
X64507597Y-84069058D01*
X64316418Y-83989869D01*
X64113467Y-83949500D01*
X64113465Y-83949500D01*
X63906535Y-83949500D01*
X63906532Y-83949500D01*
X63703581Y-83989869D01*
X63512402Y-84069058D01*
X63340348Y-84184020D01*
X63194020Y-84330348D01*
X63079058Y-84502402D01*
X62999869Y-84693581D01*
X62959500Y-84896532D01*
X62520499Y-84896532D01*
X62480130Y-84693580D01*
X62400941Y-84502402D01*
X62285977Y-84330345D01*
X62139655Y-84184023D01*
X61967598Y-84069059D01*
X61967599Y-84069059D01*
X61967597Y-84069058D01*
X61776418Y-83989869D01*
X61573467Y-83949500D01*
X61573465Y-83949500D01*
X61366535Y-83949500D01*
X61366532Y-83949500D01*
X61163581Y-83989869D01*
X60972402Y-84069058D01*
X60800348Y-84184020D01*
X60654020Y-84330348D01*
X60539058Y-84502402D01*
X60459869Y-84693581D01*
X60419500Y-84896532D01*
X59980499Y-84896532D01*
X59940130Y-84693580D01*
X59860941Y-84502402D01*
X59745977Y-84330345D01*
X59599655Y-84184023D01*
X59427598Y-84069059D01*
X59427599Y-84069059D01*
X59427597Y-84069058D01*
X59236418Y-83989869D01*
X59033467Y-83949500D01*
X59033465Y-83949500D01*
X58826535Y-83949500D01*
X58826532Y-83949500D01*
X58623581Y-83989869D01*
X58432402Y-84069058D01*
X58260348Y-84184020D01*
X58114020Y-84330348D01*
X57999058Y-84502402D01*
X57919869Y-84693581D01*
X57879500Y-84896532D01*
X57440499Y-84896532D01*
X57400130Y-84693580D01*
X57320941Y-84502402D01*
X57205977Y-84330345D01*
X57059655Y-84184023D01*
X56887598Y-84069059D01*
X56887599Y-84069059D01*
X56887597Y-84069058D01*
X56696418Y-83989869D01*
X56493467Y-83949500D01*
X56493465Y-83949500D01*
X56286535Y-83949500D01*
X56286532Y-83949500D01*
X56083581Y-83989869D01*
X55892402Y-84069058D01*
X55720348Y-84184020D01*
X55574020Y-84330348D01*
X55459058Y-84502402D01*
X55379869Y-84693581D01*
X55339500Y-84896532D01*
X54900499Y-84896532D01*
X54860130Y-84693580D01*
X54780941Y-84502402D01*
X54665977Y-84330345D01*
X54519655Y-84184023D01*
X54347598Y-84069059D01*
X54347599Y-84069059D01*
X54347597Y-84069058D01*
X54156418Y-83989869D01*
X53953467Y-83949500D01*
X53953465Y-83949500D01*
X53746535Y-83949500D01*
X53746532Y-83949500D01*
X53543581Y-83989869D01*
X53352402Y-84069058D01*
X53180348Y-84184020D01*
X53034020Y-84330348D01*
X52919058Y-84502402D01*
X52839869Y-84693581D01*
X52799500Y-84896532D01*
X52360499Y-84896532D01*
X52320130Y-84693580D01*
X52240941Y-84502402D01*
X52125977Y-84330345D01*
X51979655Y-84184023D01*
X51807598Y-84069059D01*
X51807599Y-84069059D01*
X51807597Y-84069058D01*
X51616418Y-83989869D01*
X51413467Y-83949500D01*
X51413465Y-83949500D01*
X51206535Y-83949500D01*
X51206532Y-83949500D01*
X51003581Y-83989869D01*
X50812402Y-84069058D01*
X50640348Y-84184020D01*
X50494020Y-84330348D01*
X50379058Y-84502402D01*
X50299869Y-84693581D01*
X50259500Y-84896532D01*
X49820499Y-84896532D01*
X49780130Y-84693580D01*
X49700941Y-84502402D01*
X49585977Y-84330345D01*
X49439655Y-84184023D01*
X49267598Y-84069059D01*
X49267599Y-84069059D01*
X49267597Y-84069058D01*
X49076418Y-83989869D01*
X48873467Y-83949500D01*
X48873465Y-83949500D01*
X48666535Y-83949500D01*
X48666532Y-83949500D01*
X48463581Y-83989869D01*
X48272402Y-84069058D01*
X48100348Y-84184020D01*
X47954020Y-84330348D01*
X47839058Y-84502402D01*
X47759869Y-84693581D01*
X47719500Y-84896532D01*
X47280499Y-84896532D01*
X47240130Y-84693580D01*
X47160941Y-84502402D01*
X47045977Y-84330345D01*
X46899655Y-84184023D01*
X46727598Y-84069059D01*
X46727599Y-84069059D01*
X46727597Y-84069058D01*
X46536418Y-83989869D01*
X46333467Y-83949500D01*
X46333465Y-83949500D01*
X46126535Y-83949500D01*
X46126532Y-83949500D01*
X45923581Y-83989869D01*
X45732402Y-84069058D01*
X45560348Y-84184020D01*
X45414020Y-84330348D01*
X45299058Y-84502402D01*
X45219869Y-84693581D01*
X45179500Y-84896532D01*
X44740499Y-84896532D01*
X44700130Y-84693580D01*
X44620941Y-84502402D01*
X44505977Y-84330345D01*
X44359655Y-84184023D01*
X44187598Y-84069059D01*
X44187599Y-84069059D01*
X44187597Y-84069058D01*
X43996418Y-83989869D01*
X43793467Y-83949500D01*
X43793465Y-83949500D01*
X43586535Y-83949500D01*
X43586532Y-83949500D01*
X43383581Y-83989869D01*
X43192402Y-84069058D01*
X43020348Y-84184020D01*
X42874020Y-84330348D01*
X42759058Y-84502402D01*
X42679869Y-84693581D01*
X42639500Y-84896532D01*
X42200499Y-84896532D01*
X42160130Y-84693580D01*
X42080941Y-84502402D01*
X41965977Y-84330345D01*
X41819655Y-84184023D01*
X41647598Y-84069059D01*
X41647599Y-84069059D01*
X41647597Y-84069058D01*
X41456418Y-83989869D01*
X41253467Y-83949500D01*
X41253465Y-83949500D01*
X41046535Y-83949500D01*
X41046532Y-83949500D01*
X40843581Y-83989869D01*
X40652402Y-84069058D01*
X40480348Y-84184020D01*
X40334020Y-84330348D01*
X40219058Y-84502402D01*
X40139869Y-84693581D01*
X40099500Y-84896532D01*
X39660499Y-84896532D01*
X39620130Y-84693580D01*
X39540941Y-84502402D01*
X39425977Y-84330345D01*
X39279655Y-84184023D01*
X39107598Y-84069059D01*
X39107599Y-84069059D01*
X39107597Y-84069058D01*
X38916418Y-83989869D01*
X38713467Y-83949500D01*
X38713465Y-83949500D01*
X38506535Y-83949500D01*
X38506532Y-83949500D01*
X38303581Y-83989869D01*
X38112402Y-84069058D01*
X37940348Y-84184020D01*
X37794020Y-84330348D01*
X37679058Y-84502402D01*
X37599869Y-84693581D01*
X37559500Y-84896532D01*
X37120499Y-84896532D01*
X37080130Y-84693580D01*
X37000941Y-84502402D01*
X36885977Y-84330345D01*
X36739655Y-84184023D01*
X36567598Y-84069059D01*
X36567599Y-84069059D01*
X36567597Y-84069058D01*
X36376418Y-83989869D01*
X36173467Y-83949500D01*
X36173465Y-83949500D01*
X35966535Y-83949500D01*
X35966532Y-83949500D01*
X35763581Y-83989869D01*
X35572402Y-84069058D01*
X35400348Y-84184020D01*
X35254020Y-84330348D01*
X35139058Y-84502402D01*
X35059869Y-84693581D01*
X35019500Y-84896532D01*
X34580499Y-84896532D01*
X34540130Y-84693580D01*
X34460941Y-84502402D01*
X34345977Y-84330345D01*
X34199655Y-84184023D01*
X34027598Y-84069059D01*
X34027599Y-84069059D01*
X34027597Y-84069058D01*
X33836418Y-83989869D01*
X33633467Y-83949500D01*
X33633465Y-83949500D01*
X33426535Y-83949500D01*
X33426532Y-83949500D01*
X33223581Y-83989869D01*
X33032402Y-84069058D01*
X32860348Y-84184020D01*
X32714020Y-84330348D01*
X32599058Y-84502402D01*
X32519869Y-84693581D01*
X32479500Y-84896532D01*
X32040499Y-84896532D01*
X32000130Y-84693580D01*
X31920941Y-84502402D01*
X31805977Y-84330345D01*
X31659655Y-84184023D01*
X31487598Y-84069059D01*
X31487599Y-84069059D01*
X31487597Y-84069058D01*
X31296418Y-83989869D01*
X31093467Y-83949500D01*
X31093465Y-83949500D01*
X30886535Y-83949500D01*
X30886532Y-83949500D01*
X30683581Y-83989869D01*
X30492402Y-84069058D01*
X30320348Y-84184020D01*
X30174020Y-84330348D01*
X30059058Y-84502402D01*
X29979869Y-84693581D01*
X29939500Y-84896532D01*
X29500499Y-84896532D01*
X29460130Y-84693580D01*
X29380941Y-84502402D01*
X29265977Y-84330345D01*
X29119655Y-84184023D01*
X28947598Y-84069059D01*
X28947599Y-84069059D01*
X28947597Y-84069058D01*
X28756418Y-83989869D01*
X28553467Y-83949500D01*
X28553465Y-83949500D01*
X28346535Y-83949500D01*
X28346532Y-83949500D01*
X28143581Y-83989869D01*
X27952402Y-84069058D01*
X27780348Y-84184020D01*
X27634020Y-84330348D01*
X27519058Y-84502402D01*
X27439869Y-84693581D01*
X27399500Y-84896532D01*
X26960499Y-84896532D01*
X26920130Y-84693580D01*
X26840941Y-84502402D01*
X26725977Y-84330345D01*
X26579655Y-84184023D01*
X26407598Y-84069059D01*
X26407599Y-84069059D01*
X26407597Y-84069058D01*
X26216418Y-83989869D01*
X26013467Y-83949500D01*
X26013465Y-83949500D01*
X25806535Y-83949500D01*
X25806532Y-83949500D01*
X25603581Y-83989869D01*
X25412402Y-84069058D01*
X25240348Y-84184020D01*
X25094020Y-84330348D01*
X24979058Y-84502402D01*
X24899869Y-84693581D01*
X24859500Y-84896532D01*
X24420499Y-84896532D01*
X24380130Y-84693580D01*
X24300941Y-84502402D01*
X24185977Y-84330345D01*
X24039655Y-84184023D01*
X23867598Y-84069059D01*
X23867599Y-84069059D01*
X23867597Y-84069058D01*
X23676418Y-83989869D01*
X23473467Y-83949500D01*
X23473465Y-83949500D01*
X23266535Y-83949500D01*
X23266532Y-83949500D01*
X23063581Y-83989869D01*
X22872402Y-84069058D01*
X22700348Y-84184020D01*
X22554020Y-84330348D01*
X22439058Y-84502402D01*
X22359869Y-84693581D01*
X22319500Y-84896532D01*
X21880499Y-84896532D01*
X21840130Y-84693580D01*
X21760941Y-84502402D01*
X21645977Y-84330345D01*
X21499655Y-84184023D01*
X21327598Y-84069059D01*
X21327599Y-84069059D01*
X21327597Y-84069058D01*
X21136418Y-83989869D01*
X20933467Y-83949500D01*
X20933465Y-83949500D01*
X20726535Y-83949500D01*
X20726532Y-83949500D01*
X20523581Y-83989869D01*
X20332402Y-84069058D01*
X20160348Y-84184020D01*
X20014020Y-84330348D01*
X19899058Y-84502402D01*
X19819869Y-84693581D01*
X19779500Y-84896532D01*
X19340499Y-84896532D01*
X19300130Y-84693580D01*
X19220941Y-84502402D01*
X19105977Y-84330345D01*
X18959655Y-84184023D01*
X18787598Y-84069059D01*
X18787599Y-84069059D01*
X18787597Y-84069058D01*
X18596418Y-83989869D01*
X18393467Y-83949500D01*
X18393465Y-83949500D01*
X18186535Y-83949500D01*
X18186532Y-83949500D01*
X17983581Y-83989869D01*
X17792402Y-84069058D01*
X17620348Y-84184020D01*
X17474020Y-84330348D01*
X17359058Y-84502402D01*
X17279869Y-84693581D01*
X17239500Y-84896532D01*
X16800499Y-84896532D01*
X16760130Y-84693580D01*
X16680941Y-84502402D01*
X16565977Y-84330345D01*
X16419655Y-84184023D01*
X16247598Y-84069059D01*
X16247599Y-84069059D01*
X16247597Y-84069058D01*
X16056418Y-83989869D01*
X15853467Y-83949500D01*
X15853465Y-83949500D01*
X15646535Y-83949500D01*
X15646532Y-83949500D01*
X15443581Y-83989869D01*
X15252402Y-84069058D01*
X15080348Y-84184020D01*
X14934020Y-84330348D01*
X14819058Y-84502402D01*
X14739869Y-84693581D01*
X14699500Y-84896532D01*
X14260499Y-84896532D01*
X14220130Y-84693580D01*
X14140941Y-84502402D01*
X14025977Y-84330345D01*
X13879655Y-84184023D01*
X13707598Y-84069059D01*
X13707599Y-84069059D01*
X13707597Y-84069058D01*
X13516418Y-83989869D01*
X13313467Y-83949500D01*
X13313465Y-83949500D01*
X13106535Y-83949500D01*
X13106532Y-83949500D01*
X12903581Y-83989869D01*
X12712402Y-84069058D01*
X12540348Y-84184020D01*
X12394020Y-84330348D01*
X12279058Y-84502402D01*
X12199869Y-84693581D01*
X12159500Y-84896532D01*
X11720499Y-84896532D01*
X11680130Y-84693580D01*
X11600941Y-84502402D01*
X11485977Y-84330345D01*
X11339655Y-84184023D01*
X11167598Y-84069059D01*
X11167599Y-84069059D01*
X11167597Y-84069058D01*
X10976418Y-83989869D01*
X10773467Y-83949500D01*
X10773465Y-83949500D01*
X10566535Y-83949500D01*
X10566532Y-83949500D01*
X10363581Y-83989869D01*
X10172402Y-84069058D01*
X10000348Y-84184020D01*
X9854020Y-84330348D01*
X9739058Y-84502402D01*
X9659869Y-84693581D01*
X9619500Y-84896532D01*
X9180499Y-84896532D01*
X9140130Y-84693580D01*
X9060941Y-84502402D01*
X8945977Y-84330345D01*
X8799655Y-84184023D01*
X8627598Y-84069059D01*
X8627599Y-84069059D01*
X8627597Y-84069058D01*
X8436418Y-83989869D01*
X8233467Y-83949500D01*
X8233465Y-83949500D01*
X8026535Y-83949500D01*
X8026532Y-83949500D01*
X7823581Y-83989869D01*
X7632402Y-84069058D01*
X7460348Y-84184020D01*
X7314020Y-84330348D01*
X7199058Y-84502402D01*
X7119869Y-84693581D01*
X7079500Y-84896532D01*
X2500000Y-84896532D01*
X2500000Y-80920943D01*
X8899500Y-80920943D01*
X8899500Y-81079057D01*
X8940423Y-81231784D01*
X9019480Y-81368716D01*
X9131284Y-81480520D01*
X9268216Y-81559577D01*
X9420943Y-81600500D01*
X9420945Y-81600500D01*
X79579055Y-81600500D01*
X79579057Y-81600500D01*
X79731784Y-81559577D01*
X79868716Y-81480520D01*
X79980520Y-81368716D01*
X80059577Y-81231784D01*
X80100500Y-81079057D01*
X80100500Y-80920943D01*
X80059577Y-80768216D01*
X79980520Y-80631284D01*
X79868716Y-80519480D01*
X79731784Y-80440423D01*
X79579057Y-80399500D01*
X69579057Y-80399500D01*
X59579057Y-80399500D01*
X49579057Y-80399500D01*
X39579057Y-80399500D01*
X29579057Y-80399500D01*
X19579057Y-80399500D01*
X9420943Y-80399500D01*
X9268216Y-80440423D01*
X9131284Y-80519480D01*
X9019480Y-80631284D01*
X8940423Y-80768216D01*
X8899500Y-80920943D01*
X2500000Y-80920943D01*
X2500000Y-13396532D01*
X9619500Y-13396532D01*
X9619500Y-13603467D01*
X9659869Y-13806418D01*
X9739058Y-13997597D01*
X9739059Y-13997598D01*
X9854023Y-14169655D01*
X10000345Y-14315977D01*
X10172402Y-14430941D01*
X10363580Y-14510130D01*
X10566535Y-14550500D01*
X10566536Y-14550500D01*
X10773464Y-14550500D01*
X10773465Y-14550500D01*
X10976420Y-14510130D01*
X11167598Y-14430941D01*
X11339655Y-14315977D01*
X11485977Y-14169655D01*
X11600941Y-13997598D01*
X11680130Y-13806420D01*
X11720500Y-13603465D01*
X11720500Y-13396535D01*
X11720499Y-13396532D01*
X12159500Y-13396532D01*
X12159500Y-13603467D01*
X12199869Y-13806418D01*
X12279058Y-13997597D01*
X12279059Y-13997598D01*
X12394023Y-14169655D01*
X12540345Y-14315977D01*
X12712402Y-14430941D01*
X12903580Y-14510130D01*
X13106535Y-14550500D01*
X13106536Y-14550500D01*
X13313464Y-14550500D01*
X13313465Y-14550500D01*
X13516420Y-14510130D01*
X13707598Y-14430941D01*
X13879655Y-14315977D01*
X14025977Y-14169655D01*
X14140941Y-13997598D01*
X14220130Y-13806420D01*
X14260500Y-13603465D01*
X14260500Y-13396535D01*
X14260499Y-13396532D01*
X14699500Y-13396532D01*
X14699500Y-13603467D01*
X14739869Y-13806418D01*
X14819058Y-13997597D01*
X14819059Y-13997598D01*
X14934023Y-14169655D01*
X15080345Y-14315977D01*
X15252402Y-14430941D01*
X15443580Y-14510130D01*
X15646535Y-14550500D01*
X15646536Y-14550500D01*
X15853464Y-14550500D01*
X15853465Y-14550500D01*
X16056420Y-14510130D01*
X16247598Y-14430941D01*
X16419655Y-14315977D01*
X16565977Y-14169655D01*
X16680941Y-13997598D01*
X16760130Y-13806420D01*
X16800500Y-13603465D01*
X16800500Y-13396535D01*
X16800499Y-13396532D01*
X17239500Y-13396532D01*
X17239500Y-13603467D01*
X17279869Y-13806418D01*
X17359058Y-13997597D01*
X17359059Y-13997598D01*
X17474023Y-14169655D01*
X17620345Y-14315977D01*
X17792402Y-14430941D01*
X17983580Y-14510130D01*
X18186535Y-14550500D01*
X18186536Y-14550500D01*
X18393464Y-14550500D01*
X18393465Y-14550500D01*
X18596420Y-14510130D01*
X18787598Y-14430941D01*
X18959655Y-14315977D01*
X19105977Y-14169655D01*
X19220941Y-13997598D01*
X19300130Y-13806420D01*
X19340500Y-13603465D01*
X19340500Y-13396535D01*
X19340499Y-13396532D01*
X19779500Y-13396532D01*
X19779500Y-13603467D01*
X19819869Y-13806418D01*
X19899058Y-13997597D01*
X19899059Y-13997598D01*
X20014023Y-14169655D01*
X20160345Y-14315977D01*
X20332402Y-14430941D01*
X20523580Y-14510130D01*
X20726535Y-14550500D01*
X20726536Y-14550500D01*
X20933464Y-14550500D01*
X20933465Y-14550500D01*
X21136420Y-14510130D01*
X21327598Y-14430941D01*
X21499655Y-14315977D01*
X21645977Y-14169655D01*
X21760941Y-13997598D01*
X21840130Y-13806420D01*
X21880500Y-13603465D01*
X21880500Y-13396535D01*
X21880499Y-13396532D01*
X22319500Y-13396532D01*
X22319500Y-13603467D01*
X22359869Y-13806418D01*
X22439058Y-13997597D01*
X22439059Y-13997598D01*
X22554023Y-14169655D01*
X22700345Y-14315977D01*
X22872402Y-14430941D01*
X23063580Y-14510130D01*
X23266535Y-14550500D01*
X23266536Y-14550500D01*
X23473464Y-14550500D01*
X23473465Y-14550500D01*
X23676420Y-14510130D01*
X23867598Y-14430941D01*
X24039655Y-14315977D01*
X24185977Y-14169655D01*
X24300941Y-13997598D01*
X24380130Y-13806420D01*
X24420500Y-13603465D01*
X24420500Y-13396535D01*
X24420499Y-13396532D01*
X24859500Y-13396532D01*
X24859500Y-13603467D01*
X24899869Y-13806418D01*
X24979058Y-13997597D01*
X24979059Y-13997598D01*
X25094023Y-14169655D01*
X25240345Y-14315977D01*
X25412402Y-14430941D01*
X25603580Y-14510130D01*
X25806535Y-14550500D01*
X25806536Y-14550500D01*
X26013464Y-14550500D01*
X26013465Y-14550500D01*
X26216420Y-14510130D01*
X26407598Y-14430941D01*
X26579655Y-14315977D01*
X26725977Y-14169655D01*
X26840941Y-13997598D01*
X26920130Y-13806420D01*
X26960500Y-13603465D01*
X26960500Y-13396535D01*
X26960499Y-13396532D01*
X27399500Y-13396532D01*
X27399500Y-13603467D01*
X27439869Y-13806418D01*
X27519058Y-13997597D01*
X27519059Y-13997598D01*
X27634023Y-14169655D01*
X27780345Y-14315977D01*
X27952402Y-14430941D01*
X28143580Y-14510130D01*
X28346535Y-14550500D01*
X28346536Y-14550500D01*
X28553464Y-14550500D01*
X28553465Y-14550500D01*
X28756420Y-14510130D01*
X28947598Y-14430941D01*
X29119655Y-14315977D01*
X29265977Y-14169655D01*
X29380941Y-13997598D01*
X29460130Y-13806420D01*
X29500500Y-13603465D01*
X29500500Y-13396535D01*
X29500499Y-13396532D01*
X29939500Y-13396532D01*
X29939500Y-13603467D01*
X29979869Y-13806418D01*
X30059058Y-13997597D01*
X30059059Y-13997598D01*
X30174023Y-14169655D01*
X30320345Y-14315977D01*
X30492402Y-14430941D01*
X30683580Y-14510130D01*
X30886535Y-14550500D01*
X30886536Y-14550500D01*
X31093464Y-14550500D01*
X31093465Y-14550500D01*
X31296420Y-14510130D01*
X31487598Y-14430941D01*
X31659655Y-14315977D01*
X31805977Y-14169655D01*
X31920941Y-13997598D01*
X32000130Y-13806420D01*
X32040500Y-13603465D01*
X32040500Y-13396535D01*
X32040499Y-13396532D01*
X32479500Y-13396532D01*
X32479500Y-13603467D01*
X32519869Y-13806418D01*
X32599058Y-13997597D01*
X32599059Y-13997598D01*
X32714023Y-14169655D01*
X32860345Y-14315977D01*
X33032402Y-14430941D01*
X33223580Y-14510130D01*
X33426535Y-14550500D01*
X33426536Y-14550500D01*
X33633464Y-14550500D01*
X33633465Y-14550500D01*
X33836420Y-14510130D01*
X34027598Y-14430941D01*
X34199655Y-14315977D01*
X34345977Y-14169655D01*
X34460941Y-13997598D01*
X34540130Y-13806420D01*
X34580500Y-13603465D01*
X34580500Y-13396535D01*
X34580499Y-13396532D01*
X35019500Y-13396532D01*
X35019500Y-13603467D01*
X35059869Y-13806418D01*
X35139058Y-13997597D01*
X35139059Y-13997598D01*
X35254023Y-14169655D01*
X35400345Y-14315977D01*
X35572402Y-14430941D01*
X35763580Y-14510130D01*
X35966535Y-14550500D01*
X35966536Y-14550500D01*
X36173464Y-14550500D01*
X36173465Y-14550500D01*
X36376420Y-14510130D01*
X36567598Y-14430941D01*
X36739655Y-14315977D01*
X36885977Y-14169655D01*
X37000941Y-13997598D01*
X37080130Y-13806420D01*
X37120500Y-13603465D01*
X37120500Y-13396535D01*
X37120499Y-13396532D01*
X37559500Y-13396532D01*
X37559500Y-13603467D01*
X37599869Y-13806418D01*
X37679058Y-13997597D01*
X37679059Y-13997598D01*
X37794023Y-14169655D01*
X37940345Y-14315977D01*
X38112402Y-14430941D01*
X38303580Y-14510130D01*
X38506535Y-14550500D01*
X38506536Y-14550500D01*
X38713464Y-14550500D01*
X38713465Y-14550500D01*
X38916420Y-14510130D01*
X39107598Y-14430941D01*
X39279655Y-14315977D01*
X39425977Y-14169655D01*
X39540941Y-13997598D01*
X39620130Y-13806420D01*
X39660500Y-13603465D01*
X39660500Y-13396535D01*
X39660499Y-13396532D01*
X40099500Y-13396532D01*
X40099500Y-13603467D01*
X40139869Y-13806418D01*
X40219058Y-13997597D01*
X40219059Y-13997598D01*
X40334023Y-14169655D01*
X40480345Y-14315977D01*
X40652402Y-14430941D01*
X40843580Y-14510130D01*
X41046535Y-14550500D01*
X41046536Y-14550500D01*
X41253464Y-14550500D01*
X41253465Y-14550500D01*
X41456420Y-14510130D01*
X41647598Y-14430941D01*
X41819655Y-14315977D01*
X41965977Y-14169655D01*
X42080941Y-13997598D01*
X42160130Y-13806420D01*
X42200500Y-13603465D01*
X42200500Y-13396535D01*
X42200499Y-13396532D01*
X42639500Y-13396532D01*
X42639500Y-13603467D01*
X42679869Y-13806418D01*
X42759058Y-13997597D01*
X42759059Y-13997598D01*
X42874023Y-14169655D01*
X43020345Y-14315977D01*
X43192402Y-14430941D01*
X43383580Y-14510130D01*
X43586535Y-14550500D01*
X43586536Y-14550500D01*
X43793464Y-14550500D01*
X43793465Y-14550500D01*
X43996420Y-14510130D01*
X44187598Y-14430941D01*
X44359655Y-14315977D01*
X44505977Y-14169655D01*
X44620941Y-13997598D01*
X44700130Y-13806420D01*
X44740500Y-13603465D01*
X44740500Y-13396535D01*
X44740499Y-13396532D01*
X45179500Y-13396532D01*
X45179500Y-13603467D01*
X45219869Y-13806418D01*
X45299058Y-13997597D01*
X45299059Y-13997598D01*
X45414023Y-14169655D01*
X45560345Y-14315977D01*
X45732402Y-14430941D01*
X45923580Y-14510130D01*
X46126535Y-14550500D01*
X46126536Y-14550500D01*
X46333464Y-14550500D01*
X46333465Y-14550500D01*
X46536420Y-14510130D01*
X46727598Y-14430941D01*
X46899655Y-14315977D01*
X47045977Y-14169655D01*
X47160941Y-13997598D01*
X47240130Y-13806420D01*
X47280500Y-13603465D01*
X47280500Y-13396535D01*
X47280499Y-13396532D01*
X47719500Y-13396532D01*
X47719500Y-13603467D01*
X47759869Y-13806418D01*
X47839058Y-13997597D01*
X47839059Y-13997598D01*
X47954023Y-14169655D01*
X48100345Y-14315977D01*
X48272402Y-14430941D01*
X48463580Y-14510130D01*
X48666535Y-14550500D01*
X48666536Y-14550500D01*
X48873464Y-14550500D01*
X48873465Y-14550500D01*
X49076420Y-14510130D01*
X49267598Y-14430941D01*
X49439655Y-14315977D01*
X49585977Y-14169655D01*
X49700941Y-13997598D01*
X49780130Y-13806420D01*
X49820500Y-13603465D01*
X49820500Y-13396535D01*
X49820499Y-13396532D01*
X50259500Y-13396532D01*
X50259500Y-13603467D01*
X50299869Y-13806418D01*
X50379058Y-13997597D01*
X50379059Y-13997598D01*
X50494023Y-14169655D01*
X50640345Y-14315977D01*
X50812402Y-14430941D01*
X51003580Y-14510130D01*
X51206535Y-14550500D01*
X51206536Y-14550500D01*
X51413464Y-14550500D01*
X51413465Y-14550500D01*
X51616420Y-14510130D01*
X51807598Y-14430941D01*
X51979655Y-14315977D01*
X52125977Y-14169655D01*
X52240941Y-13997598D01*
X52320130Y-13806420D01*
X52360500Y-13603465D01*
X52360500Y-13396535D01*
X52360499Y-13396532D01*
X52799500Y-13396532D01*
X52799500Y-13603467D01*
X52839869Y-13806418D01*
X52919058Y-13997597D01*
X52919059Y-13997598D01*
X53034023Y-14169655D01*
X53180345Y-14315977D01*
X53352402Y-14430941D01*
X53543580Y-14510130D01*
X53746535Y-14550500D01*
X53746536Y-14550500D01*
X53953464Y-14550500D01*
X53953465Y-14550500D01*
X54156420Y-14510130D01*
X54347598Y-14430941D01*
X54519655Y-14315977D01*
X54665977Y-14169655D01*
X54780941Y-13997598D01*
X54860130Y-13806420D01*
X54900500Y-13603465D01*
X54900500Y-13396535D01*
X54900499Y-13396532D01*
X55339500Y-13396532D01*
X55339500Y-13603467D01*
X55379869Y-13806418D01*
X55459058Y-13997597D01*
X55459059Y-13997598D01*
X55574023Y-14169655D01*
X55720345Y-14315977D01*
X55892402Y-14430941D01*
X56083580Y-14510130D01*
X56286535Y-14550500D01*
X56286536Y-14550500D01*
X56493464Y-14550500D01*
X56493465Y-14550500D01*
X56696420Y-14510130D01*
X56887598Y-14430941D01*
X57059655Y-14315977D01*
X57205977Y-14169655D01*
X57320941Y-13997598D01*
X57400130Y-13806420D01*
X57440500Y-13603465D01*
X57440500Y-13396535D01*
X57440499Y-13396532D01*
X57879500Y-13396532D01*
X57879500Y-13603467D01*
X57919869Y-13806418D01*
X57999058Y-13997597D01*
X57999059Y-13997598D01*
X58114023Y-14169655D01*
X58260345Y-14315977D01*
X58432402Y-14430941D01*
X58623580Y-14510130D01*
X58826535Y-14550500D01*
X58826536Y-14550500D01*
X59033464Y-14550500D01*
X59033465Y-14550500D01*
X59236420Y-14510130D01*
X59427598Y-14430941D01*
X59599655Y-14315977D01*
X59745977Y-14169655D01*
X59860941Y-13997598D01*
X59940130Y-13806420D01*
X59980500Y-13603465D01*
X59980500Y-13396535D01*
X59980499Y-13396532D01*
X60419500Y-13396532D01*
X60419500Y-13603467D01*
X60459869Y-13806418D01*
X60539058Y-13997597D01*
X60539059Y-13997598D01*
X60654023Y-14169655D01*
X60800345Y-14315977D01*
X60972402Y-14430941D01*
X61163580Y-14510130D01*
X61366535Y-14550500D01*
X61366536Y-14550500D01*
X61573464Y-14550500D01*
X61573465Y-14550500D01*
X61776420Y-14510130D01*
X61967598Y-14430941D01*
X62139655Y-14315977D01*
X62285977Y-14169655D01*
X62400941Y-13997598D01*
X62480130Y-13806420D01*
X62520500Y-13603465D01*
X62520500Y-13396535D01*
X62520499Y-13396532D01*
X62959500Y-13396532D01*
X62959500Y-13603467D01*
X62999869Y-13806418D01*
X63079058Y-13997597D01*
X63079059Y-13997598D01*
X63194023Y-14169655D01*
X63340345Y-14315977D01*
X63512402Y-14430941D01*
X63703580Y-14510130D01*
X63906535Y-14550500D01*
X63906536Y-14550500D01*
X64113464Y-14550500D01*
X64113465Y-14550500D01*
X64316420Y-14510130D01*
X64507598Y-14430941D01*
X64679655Y-14315977D01*
X64825977Y-14169655D01*
X64940941Y-13997598D01*
X65020130Y-13806420D01*
X65060500Y-13603465D01*
X65060500Y-13396535D01*
X65060499Y-13396532D01*
X65499500Y-13396532D01*
X65499500Y-13603467D01*
X65539869Y-13806418D01*
X65619058Y-13997597D01*
X65619059Y-13997598D01*
X65734023Y-14169655D01*
X65880345Y-14315977D01*
X66052402Y-14430941D01*
X66243580Y-14510130D01*
X66446535Y-14550500D01*
X66446536Y-14550500D01*
X66653464Y-14550500D01*
X66653465Y-14550500D01*
X66856420Y-14510130D01*
X67047598Y-14430941D01*
X67219655Y-14315977D01*
X67365977Y-14169655D01*
X67480941Y-13997598D01*
X67560130Y-13806420D01*
X67600500Y-13603465D01*
X67600500Y-13396535D01*
X67600499Y-13396532D01*
X68039500Y-13396532D01*
X68039500Y-13603467D01*
X68079869Y-13806418D01*
X68159058Y-13997597D01*
X68159059Y-13997598D01*
X68274023Y-14169655D01*
X68420345Y-14315977D01*
X68592402Y-14430941D01*
X68783580Y-14510130D01*
X68986535Y-14550500D01*
X68986536Y-14550500D01*
X69193464Y-14550500D01*
X69193465Y-14550500D01*
X69396420Y-14510130D01*
X69587598Y-14430941D01*
X69759655Y-14315977D01*
X69905977Y-14169655D01*
X70020941Y-13997598D01*
X70100130Y-13806420D01*
X70140500Y-13603465D01*
X70140500Y-13396535D01*
X70140499Y-13396532D01*
X70579500Y-13396532D01*
X70579500Y-13603467D01*
X70619869Y-13806418D01*
X70699058Y-13997597D01*
X70699059Y-13997598D01*
X70814023Y-14169655D01*
X70960345Y-14315977D01*
X71132402Y-14430941D01*
X71323580Y-14510130D01*
X71526535Y-14550500D01*
X71526536Y-14550500D01*
X71733464Y-14550500D01*
X71733465Y-14550500D01*
X71936420Y-14510130D01*
X72127598Y-14430941D01*
X72299655Y-14315977D01*
X72445977Y-14169655D01*
X72560941Y-13997598D01*
X72640130Y-13806420D01*
X72680500Y-13603465D01*
X72680500Y-13396535D01*
X72680499Y-13396532D01*
X73119500Y-13396532D01*
X73119500Y-13603467D01*
X73159869Y-13806418D01*
X73239058Y-13997597D01*
X73239059Y-13997598D01*
X73354023Y-14169655D01*
X73500345Y-14315977D01*
X73672402Y-14430941D01*
X73863580Y-14510130D01*
X74066535Y-14550500D01*
X74066536Y-14550500D01*
X74273464Y-14550500D01*
X74273465Y-14550500D01*
X74476420Y-14510130D01*
X74667598Y-14430941D01*
X74839655Y-14315977D01*
X74985977Y-14169655D01*
X75100941Y-13997598D01*
X75180130Y-13806420D01*
X75220500Y-13603465D01*
X75220500Y-13396535D01*
X75220499Y-13396532D01*
X75659500Y-13396532D01*
X75659500Y-13603467D01*
X75699869Y-13806418D01*
X75779058Y-13997597D01*
X75779059Y-13997598D01*
X75894023Y-14169655D01*
X76040345Y-14315977D01*
X76212402Y-14430941D01*
X76403580Y-14510130D01*
X76606535Y-14550500D01*
X76606536Y-14550500D01*
X76813464Y-14550500D01*
X76813465Y-14550500D01*
X77016420Y-14510130D01*
X77207598Y-14430941D01*
X77379655Y-14315977D01*
X77525977Y-14169655D01*
X77640941Y-13997598D01*
X77720130Y-13806420D01*
X77760500Y-13603465D01*
X77760500Y-13396535D01*
X77760499Y-13396532D01*
X78199500Y-13396532D01*
X78199500Y-13603467D01*
X78239869Y-13806418D01*
X78319058Y-13997597D01*
X78319059Y-13997598D01*
X78434023Y-14169655D01*
X78580345Y-14315977D01*
X78752402Y-14430941D01*
X78943580Y-14510130D01*
X79146535Y-14550500D01*
X79146536Y-14550500D01*
X79353464Y-14550500D01*
X79353465Y-14550500D01*
X79556420Y-14510130D01*
X79747598Y-14430941D01*
X79919655Y-14315977D01*
X80065977Y-14169655D01*
X80180941Y-13997598D01*
X80260130Y-13806420D01*
X80300500Y-13603465D01*
X80300500Y-13396535D01*
X80300499Y-13396532D01*
X80739500Y-13396532D01*
X80739500Y-13603467D01*
X80779869Y-13806418D01*
X80859058Y-13997597D01*
X80859059Y-13997598D01*
X80974023Y-14169655D01*
X81120345Y-14315977D01*
X81292402Y-14430941D01*
X81483580Y-14510130D01*
X81686535Y-14550500D01*
X81686536Y-14550500D01*
X81893464Y-14550500D01*
X81893465Y-14550500D01*
X82096420Y-14510130D01*
X82287598Y-14430941D01*
X82459655Y-14315977D01*
X82605977Y-14169655D01*
X82720941Y-13997598D01*
X82800130Y-13806420D01*
X82840500Y-13603465D01*
X82840500Y-13396535D01*
X82840499Y-13396532D01*
X83279500Y-13396532D01*
X83279500Y-13603467D01*
X83319869Y-13806418D01*
X83399058Y-13997597D01*
X83399059Y-13997598D01*
X83514023Y-14169655D01*
X83660345Y-14315977D01*
X83832402Y-14430941D01*
X84023580Y-14510130D01*
X84226535Y-14550500D01*
X84226536Y-14550500D01*
X84433464Y-14550500D01*
X84433465Y-14550500D01*
X84636420Y-14510130D01*
X84827598Y-14430941D01*
X84999655Y-14315977D01*
X85145977Y-14169655D01*
X85260941Y-13997598D01*
X85340130Y-13806420D01*
X85380500Y-13603465D01*
X85380500Y-13396535D01*
X85340130Y-13193580D01*
X85260941Y-13002402D01*
X85145977Y-12830345D01*
X84999655Y-12684023D01*
X84827598Y-12569059D01*
X84827599Y-12569059D01*
X84827597Y-12569058D01*
X84636418Y-12489869D01*
X84433467Y-12449500D01*
X84433465Y-12449500D01*
X84226535Y-12449500D01*
X84226532Y-12449500D01*
X84023581Y-12489869D01*
X83832402Y-12569058D01*
X83660348Y-12684020D01*
X83514020Y-12830348D01*
X83399058Y-13002402D01*
X83319869Y-13193581D01*
X83279500Y-13396532D01*
X82840499Y-13396532D01*
X82800130Y-13193580D01*
X82720941Y-13002402D01*
X82605977Y-12830345D01*
X82459655Y-12684023D01*
X82287598Y-12569059D01*
X82287599Y-12569059D01*
X82287597Y-12569058D01*
X82096418Y-12489869D01*
X81893467Y-12449500D01*
X81893465Y-12449500D01*
X81686535Y-12449500D01*
X81686532Y-12449500D01*
X81483581Y-12489869D01*
X81292402Y-12569058D01*
X81120348Y-12684020D01*
X80974020Y-12830348D01*
X80859058Y-13002402D01*
X80779869Y-13193581D01*
X80739500Y-13396532D01*
X80300499Y-13396532D01*
X80260130Y-13193580D01*
X80180941Y-13002402D01*
X80065977Y-12830345D01*
X79919655Y-12684023D01*
X79747598Y-12569059D01*
X79747599Y-12569059D01*
X79747597Y-12569058D01*
X79556418Y-12489869D01*
X79353467Y-12449500D01*
X79353465Y-12449500D01*
X79146535Y-12449500D01*
X79146532Y-12449500D01*
X78943581Y-12489869D01*
X78752402Y-12569058D01*
X78580348Y-12684020D01*
X78434020Y-12830348D01*
X78319058Y-13002402D01*
X78239869Y-13193581D01*
X78199500Y-13396532D01*
X77760499Y-13396532D01*
X77720130Y-13193580D01*
X77640941Y-13002402D01*
X77525977Y-12830345D01*
X77379655Y-12684023D01*
X77207598Y-12569059D01*
X77207599Y-12569059D01*
X77207597Y-12569058D01*
X77016418Y-12489869D01*
X76813467Y-12449500D01*
X76813465Y-12449500D01*
X76606535Y-12449500D01*
X76606532Y-12449500D01*
X76403581Y-12489869D01*
X76212402Y-12569058D01*
X76040348Y-12684020D01*
X75894020Y-12830348D01*
X75779058Y-13002402D01*
X75699869Y-13193581D01*
X75659500Y-13396532D01*
X75220499Y-13396532D01*
X75180130Y-13193580D01*
X75100941Y-13002402D01*
X74985977Y-12830345D01*
X74839655Y-12684023D01*
X74667598Y-12569059D01*
X74667599Y-12569059D01*
X74667597Y-12569058D01*
X74476418Y-12489869D01*
X74273467Y-12449500D01*
X74273465Y-12449500D01*
X74066535Y-12449500D01*
X74066532Y-12449500D01*
X73863581Y-12489869D01*
X73672402Y-12569058D01*
X73500348Y-12684020D01*
X73354020Y-12830348D01*
X73239058Y-13002402D01*
X73159869Y-13193581D01*
X73119500Y-13396532D01*
X72680499Y-13396532D01*
X72640130Y-13193580D01*
X72560941Y-13002402D01*
X72445977Y-12830345D01*
X72299655Y-12684023D01*
X72127598Y-12569059D01*
X72127599Y-12569059D01*
X72127597Y-12569058D01*
X71936418Y-12489869D01*
X71733467Y-12449500D01*
X71733465Y-12449500D01*
X71526535Y-12449500D01*
X71526532Y-12449500D01*
X71323581Y-12489869D01*
X71132402Y-12569058D01*
X70960348Y-12684020D01*
X70814020Y-12830348D01*
X70699058Y-13002402D01*
X70619869Y-13193581D01*
X70579500Y-13396532D01*
X70140499Y-13396532D01*
X70100130Y-13193580D01*
X70020941Y-13002402D01*
X69905977Y-12830345D01*
X69759655Y-12684023D01*
X69587598Y-12569059D01*
X69587599Y-12569059D01*
X69587597Y-12569058D01*
X69396418Y-12489869D01*
X69193467Y-12449500D01*
X69193465Y-12449500D01*
X68986535Y-12449500D01*
X68986532Y-12449500D01*
X68783581Y-12489869D01*
X68592402Y-12569058D01*
X68420348Y-12684020D01*
X68274020Y-12830348D01*
X68159058Y-13002402D01*
X68079869Y-13193581D01*
X68039500Y-13396532D01*
X67600499Y-13396532D01*
X67560130Y-13193580D01*
X67480941Y-13002402D01*
X67365977Y-12830345D01*
X67219655Y-12684023D01*
X67047598Y-12569059D01*
X67047599Y-12569059D01*
X67047597Y-12569058D01*
X66856418Y-12489869D01*
X66653467Y-12449500D01*
X66653465Y-12449500D01*
X66446535Y-12449500D01*
X66446532Y-12449500D01*
X66243581Y-12489869D01*
X66052402Y-12569058D01*
X65880348Y-12684020D01*
X65734020Y-12830348D01*
X65619058Y-13002402D01*
X65539869Y-13193581D01*
X65499500Y-13396532D01*
X65060499Y-13396532D01*
X65020130Y-13193580D01*
X64940941Y-13002402D01*
X64825977Y-12830345D01*
X64679655Y-12684023D01*
X64507598Y-12569059D01*
X64507599Y-12569059D01*
X64507597Y-12569058D01*
X64316418Y-12489869D01*
X64113467Y-12449500D01*
X64113465Y-12449500D01*
X63906535Y-12449500D01*
X63906532Y-12449500D01*
X63703581Y-12489869D01*
X63512402Y-12569058D01*
X63340348Y-12684020D01*
X63194020Y-12830348D01*
X63079058Y-13002402D01*
X62999869Y-13193581D01*
X62959500Y-13396532D01*
X62520499Y-13396532D01*
X62480130Y-13193580D01*
X62400941Y-13002402D01*
X62285977Y-12830345D01*
X62139655Y-12684023D01*
X61967598Y-12569059D01*
X61967599Y-12569059D01*
X61967597Y-12569058D01*
X61776418Y-12489869D01*
X61573467Y-12449500D01*
X61573465Y-12449500D01*
X61366535Y-12449500D01*
X61366532Y-12449500D01*
X61163581Y-12489869D01*
X60972402Y-12569058D01*
X60800348Y-12684020D01*
X60654020Y-12830348D01*
X60539058Y-13002402D01*
X60459869Y-13193581D01*
X60419500Y-13396532D01*
X59980499Y-13396532D01*
X59940130Y-13193580D01*
X59860941Y-13002402D01*
X59745977Y-12830345D01*
X59599655Y-12684023D01*
X59427598Y-12569059D01*
X59427599Y-12569059D01*
X59427597Y-12569058D01*
X59236418Y-12489869D01*
X59033467Y-12449500D01*
X59033465Y-12449500D01*
X58826535Y-12449500D01*
X58826532Y-12449500D01*
X58623581Y-12489869D01*
X58432402Y-12569058D01*
X58260348Y-12684020D01*
X58114020Y-12830348D01*
X57999058Y-13002402D01*
X57919869Y-13193581D01*
X57879500Y-13396532D01*
X57440499Y-13396532D01*
X57400130Y-13193580D01*
X57320941Y-13002402D01*
X57205977Y-12830345D01*
X57059655Y-12684023D01*
X56887598Y-12569059D01*
X56887599Y-12569059D01*
X56887597Y-12569058D01*
X56696418Y-12489869D01*
X56493467Y-12449500D01*
X56493465Y-12449500D01*
X56286535Y-12449500D01*
X56286532Y-12449500D01*
X56083581Y-12489869D01*
X55892402Y-12569058D01*
X55720348Y-12684020D01*
X55574020Y-12830348D01*
X55459058Y-13002402D01*
X55379869Y-13193581D01*
X55339500Y-13396532D01*
X54900499Y-13396532D01*
X54860130Y-13193580D01*
X54780941Y-13002402D01*
X54665977Y-12830345D01*
X54519655Y-12684023D01*
X54347598Y-12569059D01*
X54347599Y-12569059D01*
X54347597Y-12569058D01*
X54156418Y-12489869D01*
X53953467Y-12449500D01*
X53953465Y-12449500D01*
X53746535Y-12449500D01*
X53746532Y-12449500D01*
X53543581Y-12489869D01*
X53352402Y-12569058D01*
X53180348Y-12684020D01*
X53034020Y-12830348D01*
X52919058Y-13002402D01*
X52839869Y-13193581D01*
X52799500Y-13396532D01*
X52360499Y-13396532D01*
X52320130Y-13193580D01*
X52240941Y-13002402D01*
X52125977Y-12830345D01*
X51979655Y-12684023D01*
X51807598Y-12569059D01*
X51807599Y-12569059D01*
X51807597Y-12569058D01*
X51616418Y-12489869D01*
X51413467Y-12449500D01*
X51413465Y-12449500D01*
X51206535Y-12449500D01*
X51206532Y-12449500D01*
X51003581Y-12489869D01*
X50812402Y-12569058D01*
X50640348Y-12684020D01*
X50494020Y-12830348D01*
X50379058Y-13002402D01*
X50299869Y-13193581D01*
X50259500Y-13396532D01*
X49820499Y-13396532D01*
X49780130Y-13193580D01*
X49700941Y-13002402D01*
X49585977Y-12830345D01*
X49439655Y-12684023D01*
X49267598Y-12569059D01*
X49267599Y-12569059D01*
X49267597Y-12569058D01*
X49076418Y-12489869D01*
X48873467Y-12449500D01*
X48873465Y-12449500D01*
X48666535Y-12449500D01*
X48666532Y-12449500D01*
X48463581Y-12489869D01*
X48272402Y-12569058D01*
X48100348Y-12684020D01*
X47954020Y-12830348D01*
X47839058Y-13002402D01*
X47759869Y-13193581D01*
X47719500Y-13396532D01*
X47280499Y-13396532D01*
X47240130Y-13193580D01*
X47160941Y-13002402D01*
X47045977Y-12830345D01*
X46899655Y-12684023D01*
X46727598Y-12569059D01*
X46727599Y-12569059D01*
X46727597Y-12569058D01*
X46536418Y-12489869D01*
X46333467Y-12449500D01*
X46333465Y-12449500D01*
X46126535Y-12449500D01*
X46126532Y-12449500D01*
X45923581Y-12489869D01*
X45732402Y-12569058D01*
X45560348Y-12684020D01*
X45414020Y-12830348D01*
X45299058Y-13002402D01*
X45219869Y-13193581D01*
X45179500Y-13396532D01*
X44740499Y-13396532D01*
X44700130Y-13193580D01*
X44620941Y-13002402D01*
X44505977Y-12830345D01*
X44359655Y-12684023D01*
X44187598Y-12569059D01*
X44187599Y-12569059D01*
X44187597Y-12569058D01*
X43996418Y-12489869D01*
X43793467Y-12449500D01*
X43793465Y-12449500D01*
X43586535Y-12449500D01*
X43586532Y-12449500D01*
X43383581Y-12489869D01*
X43192402Y-12569058D01*
X43020348Y-12684020D01*
X42874020Y-12830348D01*
X42759058Y-13002402D01*
X42679869Y-13193581D01*
X42639500Y-13396532D01*
X42200499Y-13396532D01*
X42160130Y-13193580D01*
X42080941Y-13002402D01*
X41965977Y-12830345D01*
X41819655Y-12684023D01*
X41647598Y-12569059D01*
X41647599Y-12569059D01*
X41647597Y-12569058D01*
X41456418Y-12489869D01*
X41253467Y-12449500D01*
X41253465Y-12449500D01*
X41046535Y-12449500D01*
X41046532Y-12449500D01*
X40843581Y-12489869D01*
X40652402Y-12569058D01*
X40480348Y-12684020D01*
X40334020Y-12830348D01*
X40219058Y-13002402D01*
X40139869Y-13193581D01*
X40099500Y-13396532D01*
X39660499Y-13396532D01*
X39620130Y-13193580D01*
X39540941Y-13002402D01*
X39425977Y-12830345D01*
X39279655Y-12684023D01*
X39107598Y-12569059D01*
X39107599Y-12569059D01*
X39107597Y-12569058D01*
X38916418Y-12489869D01*
X38713467Y-12449500D01*
X38713465Y-12449500D01*
X38506535Y-12449500D01*
X38506532Y-12449500D01*
X38303581Y-12489869D01*
X38112402Y-12569058D01*
X37940348Y-12684020D01*
X37794020Y-12830348D01*
X37679058Y-13002402D01*
X37599869Y-13193581D01*
X37559500Y-13396532D01*
X37120499Y-13396532D01*
X37080130Y-13193580D01*
X37000941Y-13002402D01*
X36885977Y-12830345D01*
X36739655Y-12684023D01*
X36567598Y-12569059D01*
X36567599Y-12569059D01*
X36567597Y-12569058D01*
X36376418Y-12489869D01*
X36173467Y-12449500D01*
X36173465Y-12449500D01*
X35966535Y-12449500D01*
X35966532Y-12449500D01*
X35763581Y-12489869D01*
X35572402Y-12569058D01*
X35400348Y-12684020D01*
X35254020Y-12830348D01*
X35139058Y-13002402D01*
X35059869Y-13193581D01*
X35019500Y-13396532D01*
X34580499Y-13396532D01*
X34540130Y-13193580D01*
X34460941Y-13002402D01*
X34345977Y-12830345D01*
X34199655Y-12684023D01*
X34027598Y-12569059D01*
X34027599Y-12569059D01*
X34027597Y-12569058D01*
X33836418Y-12489869D01*
X33633467Y-12449500D01*
X33633465Y-12449500D01*
X33426535Y-12449500D01*
X33426532Y-12449500D01*
X33223581Y-12489869D01*
X33032402Y-12569058D01*
X32860348Y-12684020D01*
X32714020Y-12830348D01*
X32599058Y-13002402D01*
X32519869Y-13193581D01*
X32479500Y-13396532D01*
X32040499Y-13396532D01*
X32000130Y-13193580D01*
X31920941Y-13002402D01*
X31805977Y-12830345D01*
X31659655Y-12684023D01*
X31487598Y-12569059D01*
X31487599Y-12569059D01*
X31487597Y-12569058D01*
X31296418Y-12489869D01*
X31093467Y-12449500D01*
X31093465Y-12449500D01*
X30886535Y-12449500D01*
X30886532Y-12449500D01*
X30683581Y-12489869D01*
X30492402Y-12569058D01*
X30320348Y-12684020D01*
X30174020Y-12830348D01*
X30059058Y-13002402D01*
X29979869Y-13193581D01*
X29939500Y-13396532D01*
X29500499Y-13396532D01*
X29460130Y-13193580D01*
X29380941Y-13002402D01*
X29265977Y-12830345D01*
X29119655Y-12684023D01*
X28947598Y-12569059D01*
X28947599Y-12569059D01*
X28947597Y-12569058D01*
X28756418Y-12489869D01*
X28553467Y-12449500D01*
X28553465Y-12449500D01*
X28346535Y-12449500D01*
X28346532Y-12449500D01*
X28143581Y-12489869D01*
X27952402Y-12569058D01*
X27780348Y-12684020D01*
X27634020Y-12830348D01*
X27519058Y-13002402D01*
X27439869Y-13193581D01*
X27399500Y-13396532D01*
X26960499Y-13396532D01*
X26920130Y-13193580D01*
X26840941Y-13002402D01*
X26725977Y-12830345D01*
X26579655Y-12684023D01*
X26407598Y-12569059D01*
X26407599Y-12569059D01*
X26407597Y-12569058D01*
X26216418Y-12489869D01*
X26013467Y-12449500D01*
X26013465Y-12449500D01*
X25806535Y-12449500D01*
X25806532Y-12449500D01*
X25603581Y-12489869D01*
X25412402Y-12569058D01*
X25240348Y-12684020D01*
X25094020Y-12830348D01*
X24979058Y-13002402D01*
X24899869Y-13193581D01*
X24859500Y-13396532D01*
X24420499Y-13396532D01*
X24380130Y-13193580D01*
X24300941Y-13002402D01*
X24185977Y-12830345D01*
X24039655Y-12684023D01*
X23867598Y-12569059D01*
X23867599Y-12569059D01*
X23867597Y-12569058D01*
X23676418Y-12489869D01*
X23473467Y-12449500D01*
X23473465Y-12449500D01*
X23266535Y-12449500D01*
X23266532Y-12449500D01*
X23063581Y-12489869D01*
X22872402Y-12569058D01*
X22700348Y-12684020D01*
X22554020Y-12830348D01*
X22439058Y-13002402D01*
X22359869Y-13193581D01*
X22319500Y-13396532D01*
X21880499Y-13396532D01*
X21840130Y-13193580D01*
X21760941Y-13002402D01*
X21645977Y-12830345D01*
X21499655Y-12684023D01*
X21327598Y-12569059D01*
X21327599Y-12569059D01*
X21327597Y-12569058D01*
X21136418Y-12489869D01*
X20933467Y-12449500D01*
X20933465Y-12449500D01*
X20726535Y-12449500D01*
X20726532Y-12449500D01*
X20523581Y-12489869D01*
X20332402Y-12569058D01*
X20160348Y-12684020D01*
X20014020Y-12830348D01*
X19899058Y-13002402D01*
X19819869Y-13193581D01*
X19779500Y-13396532D01*
X19340499Y-13396532D01*
X19300130Y-13193580D01*
X19220941Y-13002402D01*
X19105977Y-12830345D01*
X18959655Y-12684023D01*
X18787598Y-12569059D01*
X18787599Y-12569059D01*
X18787597Y-12569058D01*
X18596418Y-12489869D01*
X18393467Y-12449500D01*
X18393465Y-12449500D01*
X18186535Y-12449500D01*
X18186532Y-12449500D01*
X17983581Y-12489869D01*
X17792402Y-12569058D01*
X17620348Y-12684020D01*
X17474020Y-12830348D01*
X17359058Y-13002402D01*
X17279869Y-13193581D01*
X17239500Y-13396532D01*
X16800499Y-13396532D01*
X16760130Y-13193580D01*
X16680941Y-13002402D01*
X16565977Y-12830345D01*
X16419655Y-12684023D01*
X16247598Y-12569059D01*
X16247599Y-12569059D01*
X16247597Y-12569058D01*
X16056418Y-12489869D01*
X15853467Y-12449500D01*
X15853465Y-12449500D01*
X15646535Y-12449500D01*
X15646532Y-12449500D01*
X15443581Y-12489869D01*
X15252402Y-12569058D01*
X15080348Y-12684020D01*
X14934020Y-12830348D01*
X14819058Y-13002402D01*
X14739869Y-13193581D01*
X14699500Y-13396532D01*
X14260499Y-13396532D01*
X14220130Y-13193580D01*
X14140941Y-13002402D01*
X14025977Y-12830345D01*
X13879655Y-12684023D01*
X13707598Y-12569059D01*
X13707599Y-12569059D01*
X13707597Y-12569058D01*
X13516418Y-12489869D01*
X13313467Y-12449500D01*
X13313465Y-12449500D01*
X13106535Y-12449500D01*
X13106532Y-12449500D01*
X12903581Y-12489869D01*
X12712402Y-12569058D01*
X12540348Y-12684020D01*
X12394020Y-12830348D01*
X12279058Y-13002402D01*
X12199869Y-13193581D01*
X12159500Y-13396532D01*
X11720499Y-13396532D01*
X11680130Y-13193580D01*
X11600941Y-13002402D01*
X11485977Y-12830345D01*
X11339655Y-12684023D01*
X11167598Y-12569059D01*
X11167599Y-12569059D01*
X11167597Y-12569058D01*
X10976418Y-12489869D01*
X10773467Y-12449500D01*
X10773465Y-12449500D01*
X10566535Y-12449500D01*
X10566532Y-12449500D01*
X10363581Y-12489869D01*
X10172402Y-12569058D01*
X10000348Y-12684020D01*
X9854020Y-12830348D01*
X9739058Y-13002402D01*
X9659869Y-13193581D01*
X9619500Y-13396532D01*
X2500000Y-13396532D01*
X2500000Y-2599000D01*
X2518907Y-2540809D01*
X2568407Y-2504845D01*
X2599000Y-2500000D01*
X92401000Y-2500000D01*
X92459191Y-2518907D01*
G37*
%TD.AperFunction*%
%TD*%
M02*
