%TF.GenerationSoftware,KiCad,Pcbnew,9.0.8-9.0.8~ubuntu24.04.1*%
%TF.CreationDate,2026-05-16T17:43:23+02:00*%
%TF.ProjectId,tud-microled-v2,7475642d-6d69-4637-926f-6c65642d7632,v2.0*%
%TF.SameCoordinates,Original*%
%TF.FileFunction,Paste,Top*%
%TF.FilePolarity,Positive*%
%FSLAX46Y46*%
G04 Gerber Fmt 4.6, Leading zero omitted, Abs format (unit mm)*
G04 Created by KiCad (PCBNEW 9.0.8-9.0.8~ubuntu24.04.1) date 2026-05-16 17:43:23*
%MOMM*%
%LPD*%
G01*
G04 APERTURE LIST*
G04 Aperture macros list*
%AMRoundRect*
0 Rectangle with rounded corners*
0 $1 Rounding radius*
0 $2 $3 $4 $5 $6 $7 $8 $9 X,Y pos of 4 corners*
0 Add a 4 corners polygon primitive as box body*
4,1,4,$2,$3,$4,$5,$6,$7,$8,$9,$2,$3,0*
0 Add four circle primitives for the rounded corners*
1,1,$1+$1,$2,$3*
1,1,$1+$1,$4,$5*
1,1,$1+$1,$6,$7*
1,1,$1+$1,$8,$9*
0 Add four rect primitives between the rounded corners*
20,1,$1+$1,$2,$3,$4,$5,0*
20,1,$1+$1,$4,$5,$6,$7,0*
20,1,$1+$1,$6,$7,$8,$9,0*
20,1,$1+$1,$8,$9,$2,$3,0*%
G04 Aperture macros list end*
%ADD10R,0.500000X0.500000*%
%ADD11RoundRect,0.100000X-0.400000X-0.400000X0.400000X-0.400000X0.400000X0.400000X-0.400000X0.400000X0*%
%ADD12R,1.000000X1.000000*%
%ADD13R,0.500000X0.600000*%
%ADD14R,1.270000X1.270000*%
%ADD15R,0.400000X0.400000*%
%ADD16R,1.000000X2.500000*%
%ADD17R,0.250000X2.500000*%
%ADD18RoundRect,0.200000X-0.300000X-0.300000X0.300000X-0.300000X0.300000X0.300000X-0.300000X0.300000X0*%
%ADD19R,0.500000X2.500000*%
%ADD20RoundRect,0.050000X-0.450000X-0.450000X0.450000X-0.450000X0.450000X0.450000X-0.450000X0.450000X0*%
%ADD21R,0.250000X0.250000*%
%ADD22R,0.100000X0.100000*%
G04 APERTURE END LIST*
D10*
%TO.C,BP_R5C2*%
X17000000Y-34500000D03*
X17000000Y-35500000D03*
D11*
X17500000Y-35000000D03*
D10*
X18000000Y-34500000D03*
X18000000Y-35500000D03*
%TD*%
D12*
%TO.C,BP_R2C3*%
X21000000Y-24500000D03*
%TD*%
D13*
%TO.C,TH4*%
X79500000Y-76800000D03*
X80500000Y-76800000D03*
%TD*%
D14*
%TO.C,PP_D4_A*%
X38500000Y-81000000D03*
%TD*%
D10*
%TO.C,BP_R4C3*%
X20500000Y-31000000D03*
X20500000Y-32000000D03*
D12*
X21000000Y-31500000D03*
D10*
X21500000Y-31000000D03*
X21500000Y-32000000D03*
%TD*%
D15*
%TO.C,DCL12_L5*%
X65850000Y-69600000D03*
X66650000Y-69600000D03*
X66650000Y-70400000D03*
X65850000Y-70400000D03*
%TD*%
D14*
%TO.C,PP_D4_KR*%
X44500000Y-81000000D03*
%TD*%
D15*
%TO.C,D8*%
X81100000Y-77600000D03*
X81900000Y-77600000D03*
X81900000Y-78400000D03*
X81100000Y-78400000D03*
%TD*%
%TO.C,DCL12_L10*%
X78350000Y-69600000D03*
X79150000Y-69600000D03*
X79150000Y-70400000D03*
X78350000Y-70400000D03*
%TD*%
D12*
%TO.C,TC4*%
X90500000Y-64500000D03*
%TD*%
D15*
%TO.C,D1*%
X11100000Y-77600000D03*
X11900000Y-77600000D03*
X11900000Y-78400000D03*
X11100000Y-78400000D03*
%TD*%
D14*
%TO.C,PP_D7_A*%
X68500000Y-81000000D03*
%TD*%
D15*
%TO.C,D3*%
X31100000Y-77600000D03*
X31900000Y-77600000D03*
X31900000Y-78400000D03*
X31100000Y-78400000D03*
%TD*%
D14*
%TO.C,PP_DCL6_OUT*%
X30650000Y-72000000D03*
%TD*%
D15*
%TO.C,DCL12_L6*%
X68350000Y-69600000D03*
X69150000Y-69600000D03*
X69150000Y-70400000D03*
X68350000Y-70400000D03*
%TD*%
%TO.C,DCL6_L1*%
X15350000Y-69600000D03*
X16150000Y-69600000D03*
X16150000Y-70400000D03*
X15350000Y-70400000D03*
%TD*%
%TO.C,DCL6_L5*%
X25350000Y-69600000D03*
X26150000Y-69600000D03*
X26150000Y-70400000D03*
X25350000Y-70400000D03*
%TD*%
%TO.C,DCL6_L4*%
X22850000Y-69600000D03*
X23650000Y-69600000D03*
X23650000Y-70400000D03*
X22850000Y-70400000D03*
%TD*%
D12*
%TO.C,BP_R1C4*%
X24500000Y-21000000D03*
%TD*%
%TO.C,BP_R2C2*%
X17500000Y-24500000D03*
%TD*%
D15*
%TO.C,DCL6_L6*%
X27850000Y-69600000D03*
X28650000Y-69600000D03*
X28650000Y-70400000D03*
X27850000Y-70400000D03*
%TD*%
D14*
%TO.C,PP_D5_KR*%
X54500000Y-81000000D03*
%TD*%
D12*
%TO.C,BP_R1C5*%
X28000000Y-21000000D03*
%TD*%
D14*
%TO.C,PP_D4_KB*%
X42500000Y-81000000D03*
%TD*%
%TO.C,PP_DCL12_OUT*%
X86150000Y-72000000D03*
%TD*%
D16*
%TO.C,TLM_W1.0*%
X73807500Y-50500000D03*
X74812500Y-50500000D03*
X75822500Y-50500000D03*
X76842500Y-50500000D03*
X77892500Y-50500000D03*
X78992500Y-50500000D03*
X80192500Y-50500000D03*
%TD*%
D12*
%TO.C,VDP_W1.0*%
X13600000Y-61500000D03*
X16400000Y-61500000D03*
X15000000Y-60100000D03*
X15000000Y-62900000D03*
%TD*%
D14*
%TO.C,PP_D3_KB*%
X32500000Y-81000000D03*
%TD*%
%TO.C,PP_D3_KG*%
X30500000Y-81000000D03*
%TD*%
D10*
%TO.C,BP_R3C3*%
X20500000Y-27500000D03*
X20500000Y-28500000D03*
D12*
X21000000Y-28000000D03*
D10*
X21500000Y-27500000D03*
X21500000Y-28500000D03*
%TD*%
D14*
%TO.C,PP_D8_KR*%
X84500000Y-81000000D03*
%TD*%
%TO.C,PP_D8_A*%
X78500000Y-81000000D03*
%TD*%
D15*
%TO.C,D4*%
X41100000Y-77600000D03*
X41900000Y-77600000D03*
X41900000Y-78400000D03*
X41100000Y-78400000D03*
%TD*%
D14*
%TO.C,PP_D1_A*%
X8500000Y-81000000D03*
%TD*%
%TO.C,PP_D6_A*%
X58500000Y-81000000D03*
%TD*%
%TO.C,PP_D6_KR*%
X64500000Y-81000000D03*
%TD*%
%TO.C,PP_D2_KG*%
X20500000Y-81000000D03*
%TD*%
D10*
%TO.C,BP_R3C2*%
X17000000Y-27500000D03*
X17000000Y-28500000D03*
D12*
X17500000Y-28000000D03*
D10*
X18000000Y-27500000D03*
X18000000Y-28500000D03*
%TD*%
D14*
%TO.C,PP_NTC3*%
X57500000Y-76800000D03*
%TD*%
D17*
%TO.C,TLM_W0.25*%
X20807500Y-50500000D03*
X21062500Y-50500000D03*
X21322500Y-50500000D03*
X21592500Y-50500000D03*
X21892500Y-50500000D03*
X22242500Y-50500000D03*
X22692500Y-50500000D03*
%TD*%
D14*
%TO.C,PP_D3_A*%
X28500000Y-81000000D03*
%TD*%
D13*
%TO.C,TH1*%
X19500000Y-76800000D03*
X20500000Y-76800000D03*
%TD*%
D15*
%TO.C,DCL12_L9*%
X75850000Y-69600000D03*
X76650000Y-69600000D03*
X76650000Y-70400000D03*
X75850000Y-70400000D03*
%TD*%
D14*
%TO.C,PP_GND1*%
X4000000Y-16000000D03*
%TD*%
D10*
%TO.C,BP_R3C6*%
X31000000Y-27500000D03*
X31000000Y-28500000D03*
D12*
X31500000Y-28000000D03*
D10*
X32000000Y-27500000D03*
X32000000Y-28500000D03*
%TD*%
%TO.C,BP_R6C3*%
X20500000Y-38000000D03*
X20500000Y-39000000D03*
D18*
X21000000Y-38500000D03*
D10*
X21500000Y-38000000D03*
X21500000Y-39000000D03*
%TD*%
D12*
%TO.C,BP_R2C1*%
X14000000Y-24500000D03*
%TD*%
D10*
%TO.C,BP_R3C5*%
X27500000Y-27500000D03*
X27500000Y-28500000D03*
D12*
X28000000Y-28000000D03*
D10*
X28500000Y-27500000D03*
X28500000Y-28500000D03*
%TD*%
D12*
%TO.C,BP_R1C6*%
X31500000Y-21000000D03*
%TD*%
D10*
%TO.C,BP_R4C2*%
X17000000Y-31000000D03*
X17000000Y-32000000D03*
D12*
X17500000Y-31500000D03*
D10*
X18000000Y-31000000D03*
X18000000Y-32000000D03*
%TD*%
D15*
%TO.C,DCL6_L3*%
X20350000Y-69600000D03*
X21150000Y-69600000D03*
X21150000Y-70400000D03*
X20350000Y-70400000D03*
%TD*%
D14*
%TO.C,PP_D6_KB*%
X62500000Y-81000000D03*
%TD*%
D15*
%TO.C,DCL12_L4*%
X63350000Y-69600000D03*
X64150000Y-69600000D03*
X64150000Y-70400000D03*
X63350000Y-70400000D03*
%TD*%
D12*
%TO.C,TC2*%
X2500000Y-64500000D03*
%TD*%
D15*
%TO.C,DCL12_L7*%
X70850000Y-69600000D03*
X71650000Y-69600000D03*
X71650000Y-70400000D03*
X70850000Y-70400000D03*
%TD*%
D12*
%TO.C,BP_R2C5*%
X28000000Y-24500000D03*
%TD*%
D15*
%TO.C,DCL12_L1*%
X55850000Y-69600000D03*
X56650000Y-69600000D03*
X56650000Y-70400000D03*
X55850000Y-70400000D03*
%TD*%
D14*
%TO.C,PP_D5_KG*%
X50500000Y-81000000D03*
%TD*%
D12*
%TO.C,BP_R1C1*%
X14000000Y-21000000D03*
%TD*%
%TO.C,BP_R2C6*%
X31500000Y-24500000D03*
%TD*%
D13*
%TO.C,TH3*%
X59500000Y-76800000D03*
X60500000Y-76800000D03*
%TD*%
D10*
%TO.C,BP_R4C6*%
X31000000Y-31000000D03*
X31000000Y-32000000D03*
D12*
X31500000Y-31500000D03*
D10*
X32000000Y-31000000D03*
X32000000Y-32000000D03*
%TD*%
D14*
%TO.C,PP_D8_KG*%
X80500000Y-81000000D03*
%TD*%
D10*
%TO.C,VDP_W0.5*%
X37100000Y-61500000D03*
X38900000Y-61500000D03*
X38000000Y-60600000D03*
X38000000Y-62400000D03*
%TD*%
D15*
%TO.C,DCL12_L8*%
X73350000Y-69600000D03*
X74150000Y-69600000D03*
X74150000Y-70400000D03*
X73350000Y-70400000D03*
%TD*%
D14*
%TO.C,PP_D8_KB*%
X82500000Y-81000000D03*
%TD*%
%TO.C,PP_D4_KG*%
X40500000Y-81000000D03*
%TD*%
%TO.C,PP_GND2*%
X88000000Y-16000000D03*
%TD*%
D15*
%TO.C,DCL12_L11*%
X80850000Y-69600000D03*
X81650000Y-69600000D03*
X81650000Y-70400000D03*
X80850000Y-70400000D03*
%TD*%
%TO.C,DCL6_L2*%
X17850000Y-69600000D03*
X18650000Y-69600000D03*
X18650000Y-70400000D03*
X17850000Y-70400000D03*
%TD*%
D19*
%TO.C,TLM_W0.5*%
X47807500Y-50500000D03*
X48312500Y-50500000D03*
X48822500Y-50500000D03*
X49342500Y-50500000D03*
X49892500Y-50500000D03*
X50492500Y-50500000D03*
X51192500Y-50500000D03*
%TD*%
D15*
%TO.C,DCL12_L12*%
X83350000Y-69600000D03*
X84150000Y-69600000D03*
X84150000Y-70400000D03*
X83350000Y-70400000D03*
%TD*%
%TO.C,D5*%
X51100000Y-77600000D03*
X51900000Y-77600000D03*
X51900000Y-78400000D03*
X51100000Y-78400000D03*
%TD*%
D14*
%TO.C,PP_D7_KR*%
X74500000Y-81000000D03*
%TD*%
D10*
%TO.C,BP_R5C5*%
X27500000Y-34500000D03*
X27500000Y-35500000D03*
D11*
X28000000Y-35000000D03*
D10*
X28500000Y-34500000D03*
X28500000Y-35500000D03*
%TD*%
D12*
%TO.C,BP_R1C3*%
X21000000Y-21000000D03*
%TD*%
D14*
%TO.C,PP_NTC1*%
X17500000Y-76800000D03*
%TD*%
D12*
%TO.C,TC1*%
X2500000Y-50500000D03*
%TD*%
D10*
%TO.C,BP_R6C6*%
X31000000Y-38000000D03*
X31000000Y-39000000D03*
D18*
X31500000Y-38500000D03*
D10*
X32000000Y-38000000D03*
X32000000Y-39000000D03*
%TD*%
D14*
%TO.C,PP_NTC4*%
X77500000Y-76800000D03*
%TD*%
D12*
%TO.C,BP_R2C4*%
X24500000Y-24500000D03*
%TD*%
D10*
%TO.C,BP_R5C1*%
X13500000Y-34500000D03*
X13500000Y-35500000D03*
D20*
X14000000Y-35000000D03*
D10*
X14500000Y-34500000D03*
X14500000Y-35500000D03*
%TD*%
%TO.C,BP_R3C4*%
X24000000Y-27500000D03*
X24000000Y-28500000D03*
D12*
X24500000Y-28000000D03*
D10*
X25000000Y-27500000D03*
X25000000Y-28500000D03*
%TD*%
D21*
%TO.C,VDP_W0.25*%
X61200000Y-61500000D03*
X62800000Y-61500000D03*
X62000000Y-60700000D03*
X62000000Y-62300000D03*
%TD*%
D10*
%TO.C,BP_R5C4*%
X24000000Y-34500000D03*
X24000000Y-35500000D03*
D20*
X24500000Y-35000000D03*
D10*
X25000000Y-34500000D03*
X25000000Y-35500000D03*
%TD*%
D14*
%TO.C,PP_D7_KB*%
X72500000Y-81000000D03*
%TD*%
%TO.C,PP_D1_KR*%
X14500000Y-81000000D03*
%TD*%
D12*
%TO.C,TC3*%
X90500000Y-50500000D03*
%TD*%
D10*
%TO.C,BP_R6C1*%
X13500000Y-38000000D03*
X13500000Y-39000000D03*
D20*
X14000000Y-38500000D03*
D10*
X14500000Y-38000000D03*
X14500000Y-39000000D03*
%TD*%
D14*
%TO.C,PP_D7_KG*%
X70500000Y-81000000D03*
%TD*%
%TO.C,PP_D3_KR*%
X34500000Y-81000000D03*
%TD*%
%TO.C,PP_D5_KB*%
X52500000Y-81000000D03*
%TD*%
%TO.C,PP_D2_KB*%
X22500000Y-81000000D03*
%TD*%
D10*
%TO.C,BP_R5C3*%
X20500000Y-34500000D03*
X20500000Y-35500000D03*
D18*
X21000000Y-35000000D03*
D10*
X21500000Y-34500000D03*
X21500000Y-35500000D03*
%TD*%
D22*
%TO.C,VDP_W0.1*%
X84200000Y-61500000D03*
X85800000Y-61500000D03*
X85000000Y-60700000D03*
X85000000Y-62300000D03*
%TD*%
D10*
%TO.C,BP_R3C1*%
X13500000Y-27500000D03*
X13500000Y-28500000D03*
D12*
X14000000Y-28000000D03*
D10*
X14500000Y-27500000D03*
X14500000Y-28500000D03*
%TD*%
D14*
%TO.C,PP_D2_A*%
X18500000Y-81000000D03*
%TD*%
%TO.C,PP_NTC2*%
X37500000Y-76800000D03*
%TD*%
D15*
%TO.C,DCL12_L3*%
X60850000Y-69600000D03*
X61650000Y-69600000D03*
X61650000Y-70400000D03*
X60850000Y-70400000D03*
%TD*%
D10*
%TO.C,BP_R4C1*%
X13500000Y-31000000D03*
X13500000Y-32000000D03*
D12*
X14000000Y-31500000D03*
D10*
X14500000Y-31000000D03*
X14500000Y-32000000D03*
%TD*%
%TO.C,BP_R6C2*%
X17000000Y-38000000D03*
X17000000Y-39000000D03*
D11*
X17500000Y-38500000D03*
D10*
X18000000Y-38000000D03*
X18000000Y-39000000D03*
%TD*%
%TO.C,BP_R6C4*%
X24000000Y-38000000D03*
X24000000Y-39000000D03*
D20*
X24500000Y-38500000D03*
D10*
X25000000Y-38000000D03*
X25000000Y-39000000D03*
%TD*%
D13*
%TO.C,TH2*%
X39500000Y-76800000D03*
X40500000Y-76800000D03*
%TD*%
D10*
%TO.C,BP_R4C4*%
X24000000Y-31000000D03*
X24000000Y-32000000D03*
D12*
X24500000Y-31500000D03*
D10*
X25000000Y-31000000D03*
X25000000Y-32000000D03*
%TD*%
D14*
%TO.C,PP_D5_A*%
X48500000Y-81000000D03*
%TD*%
D15*
%TO.C,D7*%
X71100000Y-77600000D03*
X71900000Y-77600000D03*
X71900000Y-78400000D03*
X71100000Y-78400000D03*
%TD*%
D14*
%TO.C,PP_D2_KR*%
X24500000Y-81000000D03*
%TD*%
D15*
%TO.C,D6*%
X61100000Y-77600000D03*
X61900000Y-77600000D03*
X61900000Y-78400000D03*
X61100000Y-78400000D03*
%TD*%
D12*
%TO.C,BP_R1C2*%
X17500000Y-21000000D03*
%TD*%
D15*
%TO.C,DCL12_L2*%
X58350000Y-69600000D03*
X59150000Y-69600000D03*
X59150000Y-70400000D03*
X58350000Y-70400000D03*
%TD*%
%TO.C,D2*%
X21100000Y-77600000D03*
X21900000Y-77600000D03*
X21900000Y-78400000D03*
X21100000Y-78400000D03*
%TD*%
D14*
%TO.C,PP_DCL12_IN*%
X53850000Y-72000000D03*
%TD*%
D10*
%TO.C,BP_R5C6*%
X31000000Y-34500000D03*
X31000000Y-35500000D03*
D18*
X31500000Y-35000000D03*
D10*
X32000000Y-34500000D03*
X32000000Y-35500000D03*
%TD*%
D14*
%TO.C,PP_D1_KB*%
X12500000Y-81000000D03*
%TD*%
D10*
%TO.C,BP_R6C5*%
X27500000Y-38000000D03*
X27500000Y-39000000D03*
D11*
X28000000Y-38500000D03*
D10*
X28500000Y-38000000D03*
X28500000Y-39000000D03*
%TD*%
%TO.C,BP_R4C5*%
X27500000Y-31000000D03*
X27500000Y-32000000D03*
D12*
X28000000Y-31500000D03*
D10*
X28500000Y-31000000D03*
X28500000Y-32000000D03*
%TD*%
D14*
%TO.C,PP_D1_KG*%
X10500000Y-81000000D03*
%TD*%
%TO.C,PP_DCL6_IN*%
X13350000Y-72000000D03*
%TD*%
%TO.C,PP_D6_KG*%
X60500000Y-81000000D03*
%TD*%
M02*
