%TF.GenerationSoftware,KiCad,Pcbnew,9.0.8-9.0.8~ubuntu24.04.1*%
%TF.CreationDate,2026-05-16T16:56:05+02:00*%
%TF.ProjectId,tud-microled-v2,7475642d-6d69-4637-926f-6c65642d7632,v2.0*%
%TF.SameCoordinates,Original*%
%TF.FileFunction,Copper,L1,Top*%
%TF.FilePolarity,Positive*%
%FSLAX46Y46*%
G04 Gerber Fmt 4.6, Leading zero omitted, Abs format (unit mm)*
G04 Created by KiCad (PCBNEW 9.0.8-9.0.8~ubuntu24.04.1) date 2026-05-16 16:56:05*
%MOMM*%
%LPD*%
G01*
G04 APERTURE LIST*
G04 Aperture macros list*
%AMRoundRect*
0 Rectangle with rounded corners*
0 $1 Rounding radius*
0 $2 $3 $4 $5 $6 $7 $8 $9 X,Y pos of 4 corners*
0 Add a 4 corners polygon primitive as box body*
4,1,4,$2,$3,$4,$5,$6,$7,$8,$9,$2,$3,0*
0 Add four circle primitives for the rounded corners*
1,1,$1+$1,$2,$3*
1,1,$1+$1,$4,$5*
1,1,$1+$1,$6,$7*
1,1,$1+$1,$8,$9*
0 Add four rect primitives between the rounded corners*
20,1,$1+$1,$2,$3,$4,$5,0*
20,1,$1+$1,$4,$5,$6,$7,0*
20,1,$1+$1,$6,$7,$8,$9,0*
20,1,$1+$1,$8,$9,$2,$3,0*%
G04 Aperture macros list end*
%TA.AperFunction,SMDPad,CuDef*%
%ADD10C,1.000000*%
%TD*%
%TA.AperFunction,ComponentPad*%
%ADD11C,1.700000*%
%TD*%
%TA.AperFunction,SMDPad,CuDef*%
%ADD12R,0.400000X0.400000*%
%TD*%
%TA.AperFunction,SMDPad,CuDef*%
%ADD13R,1.270000X1.270000*%
%TD*%
%TA.AperFunction,SMDPad,CuDef*%
%ADD14R,1.000000X1.000000*%
%TD*%
%TA.AperFunction,SMDPad,CuDef*%
%ADD15R,0.500000X0.600000*%
%TD*%
%TA.AperFunction,SMDPad,CuDef*%
%ADD16R,0.500000X0.500000*%
%TD*%
%TA.AperFunction,SMDPad,CuDef*%
%ADD17RoundRect,0.050000X-0.450000X-0.450000X0.450000X-0.450000X0.450000X0.450000X-0.450000X0.450000X0*%
%TD*%
%TA.AperFunction,SMDPad,CuDef*%
%ADD18R,0.500000X2.500000*%
%TD*%
%TA.AperFunction,SMDPad,CuDef*%
%ADD19R,0.250000X2.500000*%
%TD*%
%TA.AperFunction,SMDPad,CuDef*%
%ADD20RoundRect,0.100000X-0.400000X-0.400000X0.400000X-0.400000X0.400000X0.400000X-0.400000X0.400000X0*%
%TD*%
%TA.AperFunction,SMDPad,CuDef*%
%ADD21R,0.250000X0.250000*%
%TD*%
%TA.AperFunction,SMDPad,CuDef*%
%ADD22RoundRect,0.200000X-0.300000X-0.300000X0.300000X-0.300000X0.300000X0.300000X-0.300000X0.300000X0*%
%TD*%
%TA.AperFunction,SMDPad,CuDef*%
%ADD23R,0.100000X0.100000*%
%TD*%
%TA.AperFunction,SMDPad,CuDef*%
%ADD24R,1.000000X2.500000*%
%TD*%
%TA.AperFunction,ViaPad*%
%ADD25C,0.600000*%
%TD*%
%TA.AperFunction,Conductor*%
%ADD26C,0.200000*%
%TD*%
G04 APERTURE END LIST*
D10*
%TO.P,FID1,*%
%TO.N,*%
X4000000Y-4000000D03*
%TD*%
D11*
%TO.P,H_S_28,1*%
%TO.N,LED7_KR*%
X76710000Y-85000000D03*
%TD*%
D12*
%TO.P,DCL6_L6,1*%
%TO.N,DCL6_J5*%
X27850000Y-69600000D03*
%TO.P,DCL6_L6,2*%
%TO.N,DCL6_OUT*%
X28650000Y-69600000D03*
%TO.P,DCL6_L6,3*%
%TO.N,DCL6_L6_KB*%
X28650000Y-70400000D03*
%TO.P,DCL6_L6,4*%
%TO.N,DCL6_L6_KG*%
X27850000Y-70400000D03*
%TD*%
D13*
%TO.P,PP_D3_KR,1*%
%TO.N,LED3_KR*%
X35500000Y-81000000D03*
%TD*%
D11*
%TO.P,H_N_16,1*%
%TO.N,N/C*%
X48770000Y-13500000D03*
%TD*%
D14*
%TO.P,TC4,1*%
%TO.N,N/C*%
X88500000Y-64500000D03*
%TD*%
D15*
%TO.P,TH3,1*%
%TO.N,NTC3*%
X59500000Y-76500000D03*
%TO.P,TH3,2*%
%TO.N,GND*%
X60500000Y-76500000D03*
%TD*%
D12*
%TO.P,D8,1*%
%TO.N,LED_VCC*%
X82100000Y-77600000D03*
%TO.P,D8,2*%
%TO.N,LED8_KR*%
X82900000Y-77600000D03*
%TO.P,D8,3*%
%TO.N,LED8_KB*%
X82900000Y-78400000D03*
%TO.P,D8,4*%
%TO.N,LED8_KG*%
X82100000Y-78400000D03*
%TD*%
D13*
%TO.P,PP_D4_KB,1*%
%TO.N,LED4_KB*%
X43500000Y-81000000D03*
%TD*%
D16*
%TO.P,BP_R6C1,1*%
%TO.N,BP_R6C1_P1*%
X13500000Y-38000000D03*
X13500000Y-39000000D03*
D17*
X14000000Y-38500000D03*
D16*
X14500000Y-38000000D03*
X14500000Y-39000000D03*
%TD*%
D11*
%TO.P,H_N_12,1*%
%TO.N,N/C*%
X38610000Y-13500000D03*
%TD*%
D14*
%TO.P,BP_R2C4,1*%
%TO.N,BP_R2C4_P1*%
X24500000Y-24500000D03*
%TD*%
D11*
%TO.P,H_N_10,1*%
%TO.N,DCL6_OUT*%
X33530000Y-13500000D03*
%TD*%
D15*
%TO.P,TH1,1*%
%TO.N,NTC1*%
X19500000Y-76500000D03*
%TO.P,TH1,2*%
%TO.N,GND*%
X20500000Y-76500000D03*
%TD*%
D16*
%TO.P,BP_R3C1,1*%
%TO.N,BP_R3C1_P1*%
X13500000Y-27500000D03*
X13500000Y-28500000D03*
D14*
X14000000Y-28000000D03*
D16*
X14500000Y-27500000D03*
X14500000Y-28500000D03*
%TD*%
D13*
%TO.P,PP_D6_KB,1*%
%TO.N,LED6_KB*%
X63500000Y-81000000D03*
%TD*%
D12*
%TO.P,D6,1*%
%TO.N,LED_VCC*%
X62100000Y-77600000D03*
%TO.P,D6,2*%
%TO.N,LED6_KR*%
X62900000Y-77600000D03*
%TO.P,D6,3*%
%TO.N,LED6_KB*%
X62900000Y-78400000D03*
%TO.P,D6,4*%
%TO.N,LED6_KG*%
X62100000Y-78400000D03*
%TD*%
D11*
%TO.P,H_S_12,1*%
%TO.N,LED3_KR*%
X36070000Y-85000000D03*
%TD*%
D13*
%TO.P,PP_D1_KB,1*%
%TO.N,LED1_KB*%
X13500000Y-81000000D03*
%TD*%
%TO.P,PP_DCL12_OUT,1*%
%TO.N,DCL12_OUT*%
X86150000Y-73500000D03*
%TD*%
D15*
%TO.P,TH2,1*%
%TO.N,NTC2*%
X39500000Y-76500000D03*
%TO.P,TH2,2*%
%TO.N,GND*%
X40500000Y-76500000D03*
%TD*%
D11*
%TO.P,H_N_23,1*%
%TO.N,N/C*%
X66550000Y-13500000D03*
%TD*%
D14*
%TO.P,VDP_W1.0,1*%
%TO.N,VDP_W1.0_1*%
X13600000Y-61500000D03*
%TO.P,VDP_W1.0,2*%
%TO.N,VDP_W1.0_2*%
X16400000Y-61500000D03*
%TO.P,VDP_W1.0,3*%
%TO.N,VDP_W1.0_3*%
X15000000Y-60100000D03*
%TO.P,VDP_W1.0,4*%
%TO.N,VDP_W1.0_4*%
X15000000Y-62900000D03*
%TD*%
D11*
%TO.P,H_S_11,1*%
%TO.N,LED3_KB*%
X33530000Y-85000000D03*
%TD*%
D14*
%TO.P,BP_R1C1,1*%
%TO.N,BP_R1C1_P1*%
X14000000Y-21000000D03*
%TD*%
%TO.P,BP_R1C2,1*%
%TO.N,BP_R1C2_P1*%
X17500000Y-21000000D03*
%TD*%
D11*
%TO.P,H_N_20,1*%
%TO.N,N/C*%
X58930000Y-13500000D03*
%TD*%
D16*
%TO.P,BP_R6C4,1*%
%TO.N,BP_R6C4_P1*%
X24000000Y-38000000D03*
X24000000Y-39000000D03*
D17*
X24500000Y-38500000D03*
D16*
X25000000Y-38000000D03*
X25000000Y-39000000D03*
%TD*%
D18*
%TO.P,TLM_W0.5,1*%
%TO.N,TLM_W0.5_F1*%
X47807500Y-50500000D03*
%TO.P,TLM_W0.5,2*%
%TO.N,TLM_W0.5_F2*%
X48312500Y-50500000D03*
%TO.P,TLM_W0.5,3*%
%TO.N,TLM_W0.5_F3*%
X48822500Y-50500000D03*
%TO.P,TLM_W0.5,4*%
%TO.N,TLM_W0.5_F4*%
X49342500Y-50500000D03*
%TO.P,TLM_W0.5,5*%
%TO.N,TLM_W0.5_F5*%
X49892500Y-50500000D03*
%TO.P,TLM_W0.5,6*%
%TO.N,TLM_W0.5_F6*%
X50492500Y-50500000D03*
%TO.P,TLM_W0.5,7*%
%TO.N,TLM_W0.5_F7*%
X51192500Y-50500000D03*
%TD*%
D11*
%TO.P,H_S_24,1*%
%TO.N,LED6_KR*%
X66550000Y-85000000D03*
%TD*%
%TO.P,H_N_22,1*%
%TO.N,DCL12_IN*%
X64010000Y-13500000D03*
%TD*%
D13*
%TO.P,PP_D6_KG,1*%
%TO.N,LED6_KG*%
X61500000Y-81000000D03*
%TD*%
D14*
%TO.P,TC1,1*%
%TO.N,N/C*%
X6500000Y-50500000D03*
%TD*%
D19*
%TO.P,TLM_W0.25,1*%
%TO.N,TLM_W0.25_F1*%
X20807500Y-50500000D03*
%TO.P,TLM_W0.25,2*%
%TO.N,TLM_W0.25_F2*%
X21062500Y-50500000D03*
%TO.P,TLM_W0.25,3*%
%TO.N,TLM_W0.25_F3*%
X21322500Y-50500000D03*
%TO.P,TLM_W0.25,4*%
%TO.N,TLM_W0.25_F4*%
X21592500Y-50500000D03*
%TO.P,TLM_W0.25,5*%
%TO.N,TLM_W0.25_F5*%
X21892500Y-50500000D03*
%TO.P,TLM_W0.25,6*%
%TO.N,TLM_W0.25_F6*%
X22242500Y-50500000D03*
%TO.P,TLM_W0.25,7*%
%TO.N,TLM_W0.25_F7*%
X22692500Y-50500000D03*
%TD*%
D13*
%TO.P,PP_D5_KG,1*%
%TO.N,LED5_KG*%
X51500000Y-81000000D03*
%TD*%
%TO.P,PP_D7_KB,1*%
%TO.N,LED7_KB*%
X73500000Y-81000000D03*
%TD*%
D11*
%TO.P,H_N_2,1*%
%TO.N,N/C*%
X13210000Y-13500000D03*
%TD*%
%TO.P,H_S_9,1*%
%TO.N,LED_VCC*%
X28450000Y-85000000D03*
%TD*%
%TO.P,H_S_31,1*%
%TO.N,LED8_KB*%
X84330000Y-85000000D03*
%TD*%
%TO.P,H_N_18,1*%
%TO.N,N/C*%
X53850000Y-13500000D03*
%TD*%
%TO.P,H_N_9,1*%
%TO.N,N/C*%
X30990000Y-13500000D03*
%TD*%
%TO.P,H_N_6,1*%
%TO.N,N/C*%
X23370000Y-13500000D03*
%TD*%
D16*
%TO.P,BP_R4C3,1*%
%TO.N,BP_R4C3_P1*%
X20500000Y-31000000D03*
X20500000Y-32000000D03*
D14*
X21000000Y-31500000D03*
D16*
X21500000Y-31000000D03*
X21500000Y-32000000D03*
%TD*%
D13*
%TO.P,PP_D1_KR,1*%
%TO.N,LED1_KR*%
X15500000Y-81000000D03*
%TD*%
D12*
%TO.P,D5,1*%
%TO.N,LED_VCC*%
X52100000Y-77600000D03*
%TO.P,D5,2*%
%TO.N,LED5_KR*%
X52900000Y-77600000D03*
%TO.P,D5,3*%
%TO.N,LED5_KB*%
X52900000Y-78400000D03*
%TO.P,D5,4*%
%TO.N,LED5_KG*%
X52100000Y-78400000D03*
%TD*%
D13*
%TO.P,PP_D5_A,1*%
%TO.N,LED_VCC*%
X49500000Y-81000000D03*
%TD*%
D11*
%TO.P,H_N_11,1*%
%TO.N,N/C*%
X36070000Y-13500000D03*
%TD*%
%TO.P,H_N_1,1*%
%TO.N,DCL6_IN*%
X10670000Y-13500000D03*
%TD*%
D13*
%TO.P,PP_GND3,1*%
%TO.N,GND*%
X7000000Y-89500000D03*
%TD*%
D11*
%TO.P,H_S_22,1*%
%TO.N,LED6_KG*%
X61470000Y-85000000D03*
%TD*%
D13*
%TO.P,PP_GND2,1*%
%TO.N,GND*%
X88000000Y-16000000D03*
%TD*%
%TO.P,PP_NTC2,1*%
%TO.N,NTC2*%
X37500000Y-76500000D03*
%TD*%
D11*
%TO.P,H_S_30,1*%
%TO.N,LED8_KG*%
X81790000Y-85000000D03*
%TD*%
D12*
%TO.P,DCL6_L4,1*%
%TO.N,DCL6_J3*%
X22850000Y-69600000D03*
%TO.P,DCL6_L4,2*%
%TO.N,DCL6_J4*%
X23650000Y-69600000D03*
%TO.P,DCL6_L4,3*%
%TO.N,DCL6_L4_KB*%
X23650000Y-70400000D03*
%TO.P,DCL6_L4,4*%
%TO.N,DCL6_L4_KG*%
X22850000Y-70400000D03*
%TD*%
%TO.P,DCL12_L10,1*%
%TO.N,DCL12_J9*%
X78350000Y-69600000D03*
%TO.P,DCL12_L10,2*%
%TO.N,DCL12_J10*%
X79150000Y-69600000D03*
%TO.P,DCL12_L10,3*%
%TO.N,DCL12_L10_KB*%
X79150000Y-70400000D03*
%TO.P,DCL12_L10,4*%
%TO.N,DCL12_L10_KG*%
X78350000Y-70400000D03*
%TD*%
%TO.P,DCL12_L3,1*%
%TO.N,DCL12_J2*%
X60850000Y-69600000D03*
%TO.P,DCL12_L3,2*%
%TO.N,DCL12_J3*%
X61650000Y-69600000D03*
%TO.P,DCL12_L3,3*%
%TO.N,DCL12_L3_KB*%
X61650000Y-70400000D03*
%TO.P,DCL12_L3,4*%
%TO.N,DCL12_L3_KG*%
X60850000Y-70400000D03*
%TD*%
D11*
%TO.P,H_S_27,1*%
%TO.N,LED7_KB*%
X74170000Y-85000000D03*
%TD*%
%TO.P,H_S_5,1*%
%TO.N,LED_VCC*%
X18290000Y-85000000D03*
%TD*%
D13*
%TO.P,PP_DCL12_IN,1*%
%TO.N,DCL12_IN*%
X53850000Y-73500000D03*
%TD*%
%TO.P,PP_D7_KG,1*%
%TO.N,LED7_KG*%
X71500000Y-81000000D03*
%TD*%
D16*
%TO.P,BP_R5C4,1*%
%TO.N,BP_R5C4_P1*%
X24000000Y-34500000D03*
X24000000Y-35500000D03*
D17*
X24500000Y-35000000D03*
D16*
X25000000Y-34500000D03*
X25000000Y-35500000D03*
%TD*%
%TO.P,BP_R6C2,1*%
%TO.N,BP_R6C2_P1*%
X17000000Y-38000000D03*
X17000000Y-39000000D03*
D20*
X17500000Y-38500000D03*
D16*
X18000000Y-38000000D03*
X18000000Y-39000000D03*
%TD*%
D12*
%TO.P,DCL12_L4,1*%
%TO.N,DCL12_J3*%
X63350000Y-69600000D03*
%TO.P,DCL12_L4,2*%
%TO.N,DCL12_J4*%
X64150000Y-69600000D03*
%TO.P,DCL12_L4,3*%
%TO.N,DCL12_L4_KB*%
X64150000Y-70400000D03*
%TO.P,DCL12_L4,4*%
%TO.N,DCL12_L4_KG*%
X63350000Y-70400000D03*
%TD*%
%TO.P,DCL12_L1,1*%
%TO.N,DCL12_IN*%
X55850000Y-69600000D03*
%TO.P,DCL12_L1,2*%
%TO.N,DCL12_J1*%
X56650000Y-69600000D03*
%TO.P,DCL12_L1,3*%
%TO.N,DCL12_L1_KB*%
X56650000Y-70400000D03*
%TO.P,DCL12_L1,4*%
%TO.N,DCL12_L1_KG*%
X55850000Y-70400000D03*
%TD*%
D13*
%TO.P,PP_D1_A,1*%
%TO.N,LED_VCC*%
X9500000Y-81000000D03*
%TD*%
D16*
%TO.P,BP_R3C3,1*%
%TO.N,BP_R3C3_P1*%
X20500000Y-27500000D03*
X20500000Y-28500000D03*
D14*
X21000000Y-28000000D03*
D16*
X21500000Y-27500000D03*
X21500000Y-28500000D03*
%TD*%
D13*
%TO.P,PP_DCL6_IN,1*%
%TO.N,DCL6_IN*%
X13350000Y-73500000D03*
%TD*%
D11*
%TO.P,H_S_17,1*%
%TO.N,LED_VCC*%
X48770000Y-85000000D03*
%TD*%
D13*
%TO.P,PP_D8_KB,1*%
%TO.N,LED8_KB*%
X83500000Y-81000000D03*
%TD*%
D12*
%TO.P,DCL6_L3,1*%
%TO.N,DCL6_J2*%
X20350000Y-69600000D03*
%TO.P,DCL6_L3,2*%
%TO.N,DCL6_J3*%
X21150000Y-69600000D03*
%TO.P,DCL6_L3,3*%
%TO.N,DCL6_L3_KB*%
X21150000Y-70400000D03*
%TO.P,DCL6_L3,4*%
%TO.N,DCL6_L3_KG*%
X20350000Y-70400000D03*
%TD*%
D16*
%TO.P,VDP_W0.5,1*%
%TO.N,VDP_W0.5_1*%
X37100000Y-61500000D03*
%TO.P,VDP_W0.5,2*%
%TO.N,VDP_W0.5_2*%
X38900000Y-61500000D03*
%TO.P,VDP_W0.5,3*%
%TO.N,VDP_W0.5_3*%
X38000000Y-60600000D03*
%TO.P,VDP_W0.5,4*%
%TO.N,VDP_W0.5_4*%
X38000000Y-62400000D03*
%TD*%
D13*
%TO.P,PP_D4_KG,1*%
%TO.N,LED4_KG*%
X41500000Y-81000000D03*
%TD*%
D12*
%TO.P,DCL12_L2,1*%
%TO.N,DCL12_J1*%
X58350000Y-69600000D03*
%TO.P,DCL12_L2,2*%
%TO.N,DCL12_J2*%
X59150000Y-69600000D03*
%TO.P,DCL12_L2,3*%
%TO.N,DCL12_L2_KB*%
X59150000Y-70400000D03*
%TO.P,DCL12_L2,4*%
%TO.N,DCL12_L2_KG*%
X58350000Y-70400000D03*
%TD*%
D11*
%TO.P,H_N_13,1*%
%TO.N,N/C*%
X41150000Y-13500000D03*
%TD*%
%TO.P,H_S_16,1*%
%TO.N,LED4_KR*%
X46230000Y-85000000D03*
%TD*%
D13*
%TO.P,PP_D6_A,1*%
%TO.N,LED_VCC*%
X59500000Y-81000000D03*
%TD*%
D11*
%TO.P,H_N_3,1*%
%TO.N,N/C*%
X15750000Y-13500000D03*
%TD*%
D12*
%TO.P,D1,1*%
%TO.N,LED_VCC*%
X12100000Y-77600000D03*
%TO.P,D1,2*%
%TO.N,LED1_KR*%
X12900000Y-77600000D03*
%TO.P,D1,3*%
%TO.N,LED1_KB*%
X12900000Y-78400000D03*
%TO.P,D1,4*%
%TO.N,LED1_KG*%
X12100000Y-78400000D03*
%TD*%
D11*
%TO.P,H_S_6,1*%
%TO.N,LED2_KG*%
X20830000Y-85000000D03*
%TD*%
%TO.P,H_S_2,1*%
%TO.N,LED1_KG*%
X10670000Y-85000000D03*
%TD*%
%TO.P,H_N_5,1*%
%TO.N,N/C*%
X20830000Y-13500000D03*
%TD*%
D13*
%TO.P,PP_DCL6_OUT,1*%
%TO.N,DCL6_OUT*%
X30650000Y-73500000D03*
%TD*%
%TO.P,PP_D6_KR,1*%
%TO.N,LED6_KR*%
X65500000Y-81000000D03*
%TD*%
D14*
%TO.P,BP_R2C2,1*%
%TO.N,BP_R2C2_P1*%
X17500000Y-24500000D03*
%TD*%
D12*
%TO.P,DCL12_L7,1*%
%TO.N,DCL12_J6*%
X70850000Y-69600000D03*
%TO.P,DCL12_L7,2*%
%TO.N,DCL12_J7*%
X71650000Y-69600000D03*
%TO.P,DCL12_L7,3*%
%TO.N,DCL12_L7_KB*%
X71650000Y-70400000D03*
%TO.P,DCL12_L7,4*%
%TO.N,DCL12_L7_KG*%
X70850000Y-70400000D03*
%TD*%
D21*
%TO.P,VDP_W0.25,1*%
%TO.N,VDP_W0.25_1*%
X61200000Y-61500000D03*
%TO.P,VDP_W0.25,2*%
%TO.N,VDP_W0.25_2*%
X62800000Y-61500000D03*
%TO.P,VDP_W0.25,3*%
%TO.N,VDP_W0.25_3*%
X62000000Y-60700000D03*
%TO.P,VDP_W0.25,4*%
%TO.N,VDP_W0.25_4*%
X62000000Y-62300000D03*
%TD*%
D16*
%TO.P,BP_R4C6,1*%
%TO.N,BP_R4C6_P1*%
X31000000Y-31000000D03*
X31000000Y-32000000D03*
D14*
X31500000Y-31500000D03*
D16*
X32000000Y-31000000D03*
X32000000Y-32000000D03*
%TD*%
D13*
%TO.P,PP_NTC3,1*%
%TO.N,NTC3*%
X57500000Y-76500000D03*
%TD*%
D14*
%TO.P,BP_R2C1,1*%
%TO.N,BP_R2C1_P1*%
X14000000Y-24500000D03*
%TD*%
%TO.P,BP_R2C6,1*%
%TO.N,BP_R2C6_P1*%
X31500000Y-24500000D03*
%TD*%
%TO.P,BP_R2C3,1*%
%TO.N,BP_R2C3_P1*%
X21000000Y-24500000D03*
%TD*%
D13*
%TO.P,PP_NTC1,1*%
%TO.N,NTC1*%
X17500000Y-76500000D03*
%TD*%
D16*
%TO.P,BP_R6C6,1*%
%TO.N,BP_R6C6_P1*%
X31000000Y-38000000D03*
X31000000Y-39000000D03*
D22*
X31500000Y-38500000D03*
D16*
X32000000Y-38000000D03*
X32000000Y-39000000D03*
%TD*%
D11*
%TO.P,H_N_30,1*%
%TO.N,DCL12_OUT*%
X84330000Y-13500000D03*
%TD*%
D14*
%TO.P,BP_R1C6,1*%
%TO.N,BP_R1C6_P1*%
X31500000Y-21000000D03*
%TD*%
D13*
%TO.P,PP_D5_KB,1*%
%TO.N,LED5_KB*%
X53500000Y-81000000D03*
%TD*%
%TO.P,PP_D1_KG,1*%
%TO.N,LED1_KG*%
X11500000Y-81000000D03*
%TD*%
D11*
%TO.P,H_N_29,1*%
%TO.N,N/C*%
X81790000Y-13500000D03*
%TD*%
%TO.P,H_S_25,1*%
%TO.N,LED_VCC*%
X69090000Y-85000000D03*
%TD*%
D14*
%TO.P,TC3,1*%
%TO.N,N/C*%
X88500000Y-50500000D03*
%TD*%
D16*
%TO.P,BP_R6C3,1*%
%TO.N,BP_R6C3_P1*%
X20500000Y-38000000D03*
X20500000Y-39000000D03*
D22*
X21000000Y-38500000D03*
D16*
X21500000Y-38000000D03*
X21500000Y-39000000D03*
%TD*%
D11*
%TO.P,H_S_15,1*%
%TO.N,LED4_KB*%
X43690000Y-85000000D03*
%TD*%
D13*
%TO.P,PP_GND1,1*%
%TO.N,GND*%
X7000000Y-16000000D03*
%TD*%
D12*
%TO.P,DCL12_L9,1*%
%TO.N,DCL12_J8*%
X75850000Y-69600000D03*
%TO.P,DCL12_L9,2*%
%TO.N,DCL12_J9*%
X76650000Y-69600000D03*
%TO.P,DCL12_L9,3*%
%TO.N,DCL12_L9_KB*%
X76650000Y-70400000D03*
%TO.P,DCL12_L9,4*%
%TO.N,DCL12_L9_KG*%
X75850000Y-70400000D03*
%TD*%
%TO.P,DCL6_L2,1*%
%TO.N,DCL6_J1*%
X17850000Y-69600000D03*
%TO.P,DCL6_L2,2*%
%TO.N,DCL6_J2*%
X18650000Y-69600000D03*
%TO.P,DCL6_L2,3*%
%TO.N,DCL6_L2_KB*%
X18650000Y-70400000D03*
%TO.P,DCL6_L2,4*%
%TO.N,DCL6_L2_KG*%
X17850000Y-70400000D03*
%TD*%
D16*
%TO.P,BP_R3C6,1*%
%TO.N,BP_R3C6_P1*%
X31000000Y-27500000D03*
X31000000Y-28500000D03*
D14*
X31500000Y-28000000D03*
D16*
X32000000Y-27500000D03*
X32000000Y-28500000D03*
%TD*%
D11*
%TO.P,H_N_8,1*%
%TO.N,N/C*%
X28450000Y-13500000D03*
%TD*%
D12*
%TO.P,DCL12_L6,1*%
%TO.N,DCL12_J5*%
X68350000Y-69600000D03*
%TO.P,DCL12_L6,2*%
%TO.N,DCL12_J6*%
X69150000Y-69600000D03*
%TO.P,DCL12_L6,3*%
%TO.N,DCL12_L6_KB*%
X69150000Y-70400000D03*
%TO.P,DCL12_L6,4*%
%TO.N,DCL12_L6_KG*%
X68350000Y-70400000D03*
%TD*%
D11*
%TO.P,H_N_28,1*%
%TO.N,N/C*%
X79250000Y-13500000D03*
%TD*%
D16*
%TO.P,BP_R5C3,1*%
%TO.N,BP_R5C3_P1*%
X20500000Y-34500000D03*
X20500000Y-35500000D03*
D22*
X21000000Y-35000000D03*
D16*
X21500000Y-34500000D03*
X21500000Y-35500000D03*
%TD*%
D11*
%TO.P,H_S_7,1*%
%TO.N,LED2_KB*%
X23370000Y-85000000D03*
%TD*%
D14*
%TO.P,BP_R1C5,1*%
%TO.N,BP_R1C5_P1*%
X28000000Y-21000000D03*
%TD*%
D12*
%TO.P,D7,1*%
%TO.N,LED_VCC*%
X72100000Y-77600000D03*
%TO.P,D7,2*%
%TO.N,LED7_KR*%
X72900000Y-77600000D03*
%TO.P,D7,3*%
%TO.N,LED7_KB*%
X72900000Y-78400000D03*
%TO.P,D7,4*%
%TO.N,LED7_KG*%
X72100000Y-78400000D03*
%TD*%
%TO.P,D4,1*%
%TO.N,LED_VCC*%
X42100000Y-77600000D03*
%TO.P,D4,2*%
%TO.N,LED4_KR*%
X42900000Y-77600000D03*
%TO.P,D4,3*%
%TO.N,LED4_KB*%
X42900000Y-78400000D03*
%TO.P,D4,4*%
%TO.N,LED4_KG*%
X42100000Y-78400000D03*
%TD*%
D14*
%TO.P,TC2,1*%
%TO.N,N/C*%
X6500000Y-64500000D03*
%TD*%
D16*
%TO.P,BP_R6C5,1*%
%TO.N,BP_R6C5_P1*%
X27500000Y-38000000D03*
X27500000Y-39000000D03*
D20*
X28000000Y-38500000D03*
D16*
X28500000Y-38000000D03*
X28500000Y-39000000D03*
%TD*%
D13*
%TO.P,PP_D7_A,1*%
%TO.N,LED_VCC*%
X69500000Y-81000000D03*
%TD*%
D16*
%TO.P,BP_R5C2,1*%
%TO.N,BP_R5C2_P1*%
X17000000Y-34500000D03*
X17000000Y-35500000D03*
D20*
X17500000Y-35000000D03*
D16*
X18000000Y-34500000D03*
X18000000Y-35500000D03*
%TD*%
%TO.P,BP_R5C1,1*%
%TO.N,BP_R5C1_P1*%
X13500000Y-34500000D03*
X13500000Y-35500000D03*
D17*
X14000000Y-35000000D03*
D16*
X14500000Y-34500000D03*
X14500000Y-35500000D03*
%TD*%
D11*
%TO.P,H_S_18,1*%
%TO.N,LED5_KG*%
X51310000Y-85000000D03*
%TD*%
D16*
%TO.P,BP_R5C6,1*%
%TO.N,BP_R5C6_P1*%
X31000000Y-34500000D03*
X31000000Y-35500000D03*
D22*
X31500000Y-35000000D03*
D16*
X32000000Y-34500000D03*
X32000000Y-35500000D03*
%TD*%
D12*
%TO.P,D3,1*%
%TO.N,LED_VCC*%
X32100000Y-77600000D03*
%TO.P,D3,2*%
%TO.N,LED3_KR*%
X32900000Y-77600000D03*
%TO.P,D3,3*%
%TO.N,LED3_KB*%
X32900000Y-78400000D03*
%TO.P,D3,4*%
%TO.N,LED3_KG*%
X32100000Y-78400000D03*
%TD*%
D13*
%TO.P,PP_D8_KR,1*%
%TO.N,LED8_KR*%
X85500000Y-81000000D03*
%TD*%
%TO.P,PP_NTC4,1*%
%TO.N,NTC4*%
X77500000Y-76500000D03*
%TD*%
%TO.P,PP_D4_A,1*%
%TO.N,LED_VCC*%
X39500000Y-81000000D03*
%TD*%
D23*
%TO.P,VDP_W0.1,1*%
%TO.N,VDP_W0.1_1*%
X84200000Y-61500000D03*
%TO.P,VDP_W0.1,2*%
%TO.N,VDP_W0.1_2*%
X85800000Y-61500000D03*
%TO.P,VDP_W0.1,3*%
%TO.N,VDP_W0.1_3*%
X85000000Y-60700000D03*
%TO.P,VDP_W0.1,4*%
%TO.N,VDP_W0.1_4*%
X85000000Y-62300000D03*
%TD*%
D13*
%TO.P,PP_D2_A,1*%
%TO.N,LED_VCC*%
X19500000Y-81000000D03*
%TD*%
D11*
%TO.P,H_S_29,1*%
%TO.N,LED_VCC*%
X79250000Y-85000000D03*
%TD*%
D12*
%TO.P,DCL12_L11,1*%
%TO.N,DCL12_J10*%
X80850000Y-69600000D03*
%TO.P,DCL12_L11,2*%
%TO.N,DCL12_J11*%
X81650000Y-69600000D03*
%TO.P,DCL12_L11,3*%
%TO.N,DCL12_L11_KB*%
X81650000Y-70400000D03*
%TO.P,DCL12_L11,4*%
%TO.N,DCL12_L11_KG*%
X80850000Y-70400000D03*
%TD*%
D11*
%TO.P,H_N_24,1*%
%TO.N,N/C*%
X69090000Y-13500000D03*
%TD*%
%TO.P,H_S_32,1*%
%TO.N,LED8_KR*%
X86870000Y-85000000D03*
%TD*%
%TO.P,H_N_15,1*%
%TO.N,N/C*%
X46230000Y-13500000D03*
%TD*%
D13*
%TO.P,PP_D2_KG,1*%
%TO.N,LED2_KG*%
X21500000Y-81000000D03*
%TD*%
D16*
%TO.P,BP_R3C2,1*%
%TO.N,BP_R3C2_P1*%
X17000000Y-27500000D03*
X17000000Y-28500000D03*
D14*
X17500000Y-28000000D03*
D16*
X18000000Y-27500000D03*
X18000000Y-28500000D03*
%TD*%
D10*
%TO.P,FID3,*%
%TO.N,*%
X4000000Y-91000000D03*
%TD*%
D11*
%TO.P,H_S_21,1*%
%TO.N,LED_VCC*%
X58930000Y-85000000D03*
%TD*%
D12*
%TO.P,D2,1*%
%TO.N,LED_VCC*%
X22100000Y-77600000D03*
%TO.P,D2,2*%
%TO.N,LED2_KR*%
X22900000Y-77600000D03*
%TO.P,D2,3*%
%TO.N,LED2_KB*%
X22900000Y-78400000D03*
%TO.P,D2,4*%
%TO.N,LED2_KG*%
X22100000Y-78400000D03*
%TD*%
D13*
%TO.P,PP_D3_KG,1*%
%TO.N,LED3_KG*%
X31500000Y-81000000D03*
%TD*%
D11*
%TO.P,H_S_13,1*%
%TO.N,LED_VCC*%
X38610000Y-85000000D03*
%TD*%
D14*
%TO.P,BP_R1C3,1*%
%TO.N,BP_R1C3_P1*%
X21000000Y-21000000D03*
%TD*%
D10*
%TO.P,FID4,*%
%TO.N,*%
X91000000Y-91000000D03*
%TD*%
D15*
%TO.P,TH4,1*%
%TO.N,NTC4*%
X79500000Y-76500000D03*
%TO.P,TH4,2*%
%TO.N,GND*%
X80500000Y-76500000D03*
%TD*%
D11*
%TO.P,H_N_21,1*%
%TO.N,N/C*%
X61470000Y-13500000D03*
%TD*%
%TO.P,H_N_27,1*%
%TO.N,N/C*%
X76710000Y-13500000D03*
%TD*%
%TO.P,H_N_4,1*%
%TO.N,N/C*%
X18290000Y-13500000D03*
%TD*%
D13*
%TO.P,PP_D3_KB,1*%
%TO.N,LED3_KB*%
X33500000Y-81000000D03*
%TD*%
%TO.P,PP_D5_KR,1*%
%TO.N,LED5_KR*%
X55500000Y-81000000D03*
%TD*%
D11*
%TO.P,H_N_26,1*%
%TO.N,N/C*%
X74170000Y-13500000D03*
%TD*%
%TO.P,H_N_17,1*%
%TO.N,N/C*%
X51310000Y-13500000D03*
%TD*%
D16*
%TO.P,BP_R4C1,1*%
%TO.N,BP_R4C1_P1*%
X13500000Y-31000000D03*
X13500000Y-32000000D03*
D14*
X14000000Y-31500000D03*
D16*
X14500000Y-31000000D03*
X14500000Y-32000000D03*
%TD*%
D11*
%TO.P,H_S_1,1*%
%TO.N,LED_VCC*%
X8130000Y-85000000D03*
%TD*%
D16*
%TO.P,BP_R4C5,1*%
%TO.N,BP_R4C5_P1*%
X27500000Y-31000000D03*
X27500000Y-32000000D03*
D14*
X28000000Y-31500000D03*
D16*
X28500000Y-31000000D03*
X28500000Y-32000000D03*
%TD*%
%TO.P,BP_R3C5,1*%
%TO.N,BP_R3C5_P1*%
X27500000Y-27500000D03*
X27500000Y-28500000D03*
D14*
X28000000Y-28000000D03*
D16*
X28500000Y-27500000D03*
X28500000Y-28500000D03*
%TD*%
D13*
%TO.P,PP_D2_KR,1*%
%TO.N,LED2_KR*%
X25500000Y-81000000D03*
%TD*%
%TO.P,PP_D4_KR,1*%
%TO.N,LED4_KR*%
X45500000Y-81000000D03*
%TD*%
%TO.P,PP_D8_A,1*%
%TO.N,LED_VCC*%
X79500000Y-81000000D03*
%TD*%
%TO.P,PP_D3_A,1*%
%TO.N,LED_VCC*%
X29500000Y-81000000D03*
%TD*%
D11*
%TO.P,H_S_14,1*%
%TO.N,LED4_KG*%
X41150000Y-85000000D03*
%TD*%
%TO.P,H_S_4,1*%
%TO.N,LED1_KR*%
X15750000Y-85000000D03*
%TD*%
%TO.P,H_N_25,1*%
%TO.N,N/C*%
X71630000Y-13500000D03*
%TD*%
D16*
%TO.P,BP_R4C4,1*%
%TO.N,BP_R4C4_P1*%
X24000000Y-31000000D03*
X24000000Y-32000000D03*
D14*
X24500000Y-31500000D03*
D16*
X25000000Y-31000000D03*
X25000000Y-32000000D03*
%TD*%
D12*
%TO.P,DCL12_L5,1*%
%TO.N,DCL12_J4*%
X65850000Y-69600000D03*
%TO.P,DCL12_L5,2*%
%TO.N,DCL12_J5*%
X66650000Y-69600000D03*
%TO.P,DCL12_L5,3*%
%TO.N,DCL12_L5_KB*%
X66650000Y-70400000D03*
%TO.P,DCL12_L5,4*%
%TO.N,DCL12_L5_KG*%
X65850000Y-70400000D03*
%TD*%
D14*
%TO.P,BP_R1C4,1*%
%TO.N,BP_R1C4_P1*%
X24500000Y-21000000D03*
%TD*%
%TO.P,BP_R2C5,1*%
%TO.N,BP_R2C5_P1*%
X28000000Y-24500000D03*
%TD*%
D16*
%TO.P,BP_R5C5,1*%
%TO.N,BP_R5C5_P1*%
X27500000Y-34500000D03*
X27500000Y-35500000D03*
D20*
X28000000Y-35000000D03*
D16*
X28500000Y-34500000D03*
X28500000Y-35500000D03*
%TD*%
D24*
%TO.P,TLM_W1.0,1*%
%TO.N,TLM_W1.0_F1*%
X73807500Y-50500000D03*
%TO.P,TLM_W1.0,2*%
%TO.N,TLM_W1.0_F2*%
X74812500Y-50500000D03*
%TO.P,TLM_W1.0,3*%
%TO.N,TLM_W1.0_F3*%
X75822500Y-50500000D03*
%TO.P,TLM_W1.0,4*%
%TO.N,TLM_W1.0_F4*%
X76842500Y-50500000D03*
%TO.P,TLM_W1.0,5*%
%TO.N,TLM_W1.0_F5*%
X77892500Y-50500000D03*
%TO.P,TLM_W1.0,6*%
%TO.N,TLM_W1.0_F6*%
X78992500Y-50500000D03*
%TO.P,TLM_W1.0,7*%
%TO.N,TLM_W1.0_F7*%
X80192500Y-50500000D03*
%TD*%
D12*
%TO.P,DCL6_L1,1*%
%TO.N,DCL6_IN*%
X15350000Y-69600000D03*
%TO.P,DCL6_L1,2*%
%TO.N,DCL6_J1*%
X16150000Y-69600000D03*
%TO.P,DCL6_L1,3*%
%TO.N,DCL6_L1_KB*%
X16150000Y-70400000D03*
%TO.P,DCL6_L1,4*%
%TO.N,DCL6_L1_KG*%
X15350000Y-70400000D03*
%TD*%
D11*
%TO.P,H_N_14,1*%
%TO.N,N/C*%
X43690000Y-13500000D03*
%TD*%
D13*
%TO.P,PP_D8_KG,1*%
%TO.N,LED8_KG*%
X81500000Y-81000000D03*
%TD*%
D16*
%TO.P,BP_R4C2,1*%
%TO.N,BP_R4C2_P1*%
X17000000Y-31000000D03*
X17000000Y-32000000D03*
D14*
X17500000Y-31500000D03*
D16*
X18000000Y-31000000D03*
X18000000Y-32000000D03*
%TD*%
D11*
%TO.P,H_S_20,1*%
%TO.N,LED5_KR*%
X56390000Y-85000000D03*
%TD*%
%TO.P,H_S_26,1*%
%TO.N,LED7_KG*%
X71630000Y-85000000D03*
%TD*%
%TO.P,H_N_7,1*%
%TO.N,N/C*%
X25910000Y-13500000D03*
%TD*%
%TO.P,H_S_3,1*%
%TO.N,LED1_KB*%
X13210000Y-85000000D03*
%TD*%
%TO.P,H_S_19,1*%
%TO.N,LED5_KB*%
X53850000Y-85000000D03*
%TD*%
%TO.P,H_S_23,1*%
%TO.N,LED6_KB*%
X64010000Y-85000000D03*
%TD*%
D13*
%TO.P,PP_D2_KB,1*%
%TO.N,LED2_KB*%
X23500000Y-81000000D03*
%TD*%
D16*
%TO.P,BP_R3C4,1*%
%TO.N,BP_R3C4_P1*%
X24000000Y-27500000D03*
X24000000Y-28500000D03*
D14*
X24500000Y-28000000D03*
D16*
X25000000Y-27500000D03*
X25000000Y-28500000D03*
%TD*%
D11*
%TO.P,H_S_8,1*%
%TO.N,LED2_KR*%
X25910000Y-85000000D03*
%TD*%
%TO.P,H_N_19,1*%
%TO.N,N/C*%
X56390000Y-13500000D03*
%TD*%
D12*
%TO.P,DCL6_L5,1*%
%TO.N,DCL6_J4*%
X25350000Y-69600000D03*
%TO.P,DCL6_L5,2*%
%TO.N,DCL6_J5*%
X26150000Y-69600000D03*
%TO.P,DCL6_L5,3*%
%TO.N,DCL6_L5_KB*%
X26150000Y-70400000D03*
%TO.P,DCL6_L5,4*%
%TO.N,DCL6_L5_KG*%
X25350000Y-70400000D03*
%TD*%
D10*
%TO.P,FID2,*%
%TO.N,*%
X91000000Y-4000000D03*
%TD*%
D13*
%TO.P,PP_GND4,1*%
%TO.N,GND*%
X88000000Y-89500000D03*
%TD*%
D12*
%TO.P,DCL12_L12,1*%
%TO.N,DCL12_J11*%
X83350000Y-69600000D03*
%TO.P,DCL12_L12,2*%
%TO.N,DCL12_OUT*%
X84150000Y-69600000D03*
%TO.P,DCL12_L12,3*%
%TO.N,DCL12_L12_KB*%
X84150000Y-70400000D03*
%TO.P,DCL12_L12,4*%
%TO.N,DCL12_L12_KG*%
X83350000Y-70400000D03*
%TD*%
D13*
%TO.P,PP_D7_KR,1*%
%TO.N,LED7_KR*%
X75500000Y-81000000D03*
%TD*%
D11*
%TO.P,H_S_10,1*%
%TO.N,LED3_KG*%
X30990000Y-85000000D03*
%TD*%
D12*
%TO.P,DCL12_L8,1*%
%TO.N,DCL12_J7*%
X73350000Y-69600000D03*
%TO.P,DCL12_L8,2*%
%TO.N,DCL12_J8*%
X74150000Y-69600000D03*
%TO.P,DCL12_L8,3*%
%TO.N,DCL12_L8_KB*%
X74150000Y-70400000D03*
%TO.P,DCL12_L8,4*%
%TO.N,DCL12_L8_KG*%
X73350000Y-70400000D03*
%TD*%
D25*
%TO.N,LED_VCC*%
X49500000Y-81000000D03*
X79500000Y-81000000D03*
X59500000Y-81000000D03*
X9500000Y-81000000D03*
X29500000Y-81000000D03*
X19500000Y-81000000D03*
X69500000Y-81000000D03*
X39500000Y-81000000D03*
%TO.N,GND*%
X40500000Y-76500000D03*
X80500000Y-76500000D03*
X88000000Y-89500000D03*
X88000000Y-16000000D03*
X60500000Y-76500000D03*
X7000000Y-16000000D03*
X7000000Y-89500000D03*
X20500000Y-76500000D03*
%TD*%
D26*
%TO.N,DCL6_IN*%
X10670000Y-68000000D02*
X13350000Y-68000000D01*
X13350000Y-73500000D02*
X13350000Y-69600000D01*
X10670000Y-13500000D02*
X10670000Y-68000000D01*
X13350000Y-68000000D02*
X13350000Y-72500000D01*
X13350000Y-69600000D02*
X15350000Y-69600000D01*
%TO.N,DCL6_OUT*%
X30650000Y-69600000D02*
X28650000Y-69600000D01*
X30650000Y-68000000D02*
X30650000Y-72500000D01*
X33530000Y-13500000D02*
X33530000Y-68000000D01*
X30650000Y-73500000D02*
X30650000Y-69600000D01*
X33530000Y-68000000D02*
X30650000Y-68000000D01*
%TO.N,DCL12_IN*%
X53850000Y-68000000D02*
X53850000Y-72500000D01*
X64010000Y-13500000D02*
X64010000Y-68000000D01*
X53850000Y-73500000D02*
X53850000Y-69600000D01*
X53850000Y-69600000D02*
X55850000Y-69600000D01*
X64010000Y-68000000D02*
X53850000Y-68000000D01*
%TO.N,DCL12_OUT*%
X86150000Y-73500000D02*
X86150000Y-69600000D01*
X86150000Y-69600000D02*
X84150000Y-69600000D01*
X86150000Y-17000000D02*
X86150000Y-72500000D01*
X84330000Y-17000000D02*
X86150000Y-17000000D01*
X84330000Y-13500000D02*
X84330000Y-17000000D01*
%TO.N,LED_VCC*%
X8130000Y-83600000D02*
X9500000Y-83600000D01*
X48770000Y-85000000D02*
X48770000Y-83600000D01*
X18290000Y-85000000D02*
X18290000Y-83600000D01*
X79250000Y-83600000D02*
X79500000Y-83600000D01*
X49500000Y-81000000D02*
X49500000Y-79000000D01*
X19500000Y-79000000D02*
X22100000Y-77600000D01*
X79500000Y-79000000D02*
X82100000Y-77600000D01*
X69500000Y-81000000D02*
X69500000Y-79000000D01*
X58930000Y-83600000D02*
X59500000Y-83600000D01*
X69500000Y-79000000D02*
X72100000Y-77600000D01*
X59500000Y-83600000D02*
X59500000Y-81000000D01*
X58930000Y-85000000D02*
X58930000Y-83600000D01*
X39500000Y-81000000D02*
X39500000Y-79000000D01*
X28450000Y-83600000D02*
X29500000Y-83600000D01*
X9500000Y-81000000D02*
X9500000Y-79000000D01*
X9500000Y-79000000D02*
X12100000Y-77600000D01*
X29500000Y-83600000D02*
X29500000Y-81000000D01*
X19500000Y-83600000D02*
X19500000Y-81000000D01*
X18290000Y-83600000D02*
X19500000Y-83600000D01*
X79500000Y-81000000D02*
X79500000Y-79000000D01*
X39500000Y-79000000D02*
X42100000Y-77600000D01*
X9500000Y-83600000D02*
X9500000Y-81000000D01*
X19500000Y-81000000D02*
X19500000Y-79000000D01*
X59500000Y-79000000D02*
X62100000Y-77600000D01*
X28450000Y-85000000D02*
X28450000Y-83600000D01*
X29500000Y-79000000D02*
X32100000Y-77600000D01*
X69500000Y-83600000D02*
X69500000Y-81000000D01*
X79250000Y-85000000D02*
X79250000Y-83600000D01*
X59500000Y-81000000D02*
X59500000Y-79000000D01*
X48770000Y-83600000D02*
X49500000Y-83600000D01*
X49500000Y-79000000D02*
X52100000Y-77600000D01*
X49500000Y-83600000D02*
X49500000Y-81000000D01*
X69090000Y-83600000D02*
X69500000Y-83600000D01*
X29500000Y-81000000D02*
X29500000Y-79000000D01*
X38610000Y-83600000D02*
X39500000Y-83600000D01*
X39500000Y-83600000D02*
X39500000Y-81000000D01*
X8130000Y-85000000D02*
X8130000Y-83600000D01*
X79500000Y-83600000D02*
X79500000Y-81000000D01*
X38610000Y-85000000D02*
X38610000Y-83600000D01*
X69090000Y-85000000D02*
X69090000Y-83600000D01*
%TO.N,LED1_KG*%
X11500000Y-83200000D02*
X11500000Y-81000000D01*
X11500000Y-81000000D02*
X11500000Y-79000000D01*
X11500000Y-79000000D02*
X12100000Y-78400000D01*
X10670000Y-83200000D02*
X11500000Y-83200000D01*
X10670000Y-85000000D02*
X10670000Y-83200000D01*
%TO.N,LED1_KB*%
X13500000Y-79000000D02*
X12900000Y-78400000D01*
X13500000Y-82800000D02*
X13500000Y-81000000D01*
X13210000Y-82800000D02*
X13500000Y-82800000D01*
X13500000Y-81000000D02*
X13500000Y-79000000D01*
X13210000Y-85000000D02*
X13210000Y-82800000D01*
%TO.N,LED1_KR*%
X15750000Y-85000000D02*
X15750000Y-82400000D01*
X15500000Y-82400000D02*
X15500000Y-81000000D01*
X15500000Y-81000000D02*
X15500000Y-79000000D01*
X15500000Y-79000000D02*
X12900000Y-77600000D01*
X15750000Y-82400000D02*
X15500000Y-82400000D01*
%TO.N,LED2_KG*%
X20830000Y-85000000D02*
X20830000Y-83200000D01*
X21500000Y-83200000D02*
X21500000Y-81000000D01*
X21500000Y-81000000D02*
X21500000Y-79000000D01*
X21500000Y-79000000D02*
X22100000Y-78400000D01*
X20830000Y-83200000D02*
X21500000Y-83200000D01*
%TO.N,LED2_KB*%
X23370000Y-85000000D02*
X23370000Y-82800000D01*
X23370000Y-82800000D02*
X23500000Y-82800000D01*
X23500000Y-82800000D02*
X23500000Y-81000000D01*
X23500000Y-79000000D02*
X22900000Y-78400000D01*
X23500000Y-81000000D02*
X23500000Y-79000000D01*
%TO.N,LED2_KR*%
X25910000Y-85000000D02*
X25910000Y-82400000D01*
X25500000Y-82400000D02*
X25500000Y-81000000D01*
X25910000Y-82400000D02*
X25500000Y-82400000D01*
X25500000Y-81000000D02*
X25500000Y-79000000D01*
X25500000Y-79000000D02*
X22900000Y-77600000D01*
%TO.N,LED3_KG*%
X30990000Y-83200000D02*
X31500000Y-83200000D01*
X31500000Y-79000000D02*
X32100000Y-78400000D01*
X31500000Y-83200000D02*
X31500000Y-81000000D01*
X31500000Y-81000000D02*
X31500000Y-79000000D01*
X30990000Y-85000000D02*
X30990000Y-83200000D01*
%TO.N,LED3_KB*%
X33500000Y-82800000D02*
X33500000Y-81000000D01*
X33530000Y-82800000D02*
X33500000Y-82800000D01*
X33500000Y-81000000D02*
X33500000Y-79000000D01*
X33500000Y-79000000D02*
X32900000Y-78400000D01*
X33530000Y-85000000D02*
X33530000Y-82800000D01*
%TO.N,LED3_KR*%
X36070000Y-82400000D02*
X35500000Y-82400000D01*
X35500000Y-81000000D02*
X35500000Y-79000000D01*
X36070000Y-85000000D02*
X36070000Y-82400000D01*
X35500000Y-79000000D02*
X32900000Y-77600000D01*
X35500000Y-82400000D02*
X35500000Y-81000000D01*
%TO.N,LED4_KG*%
X41150000Y-83200000D02*
X41500000Y-83200000D01*
X41500000Y-83200000D02*
X41500000Y-81000000D01*
X41500000Y-81000000D02*
X41500000Y-79000000D01*
X41500000Y-79000000D02*
X42100000Y-78400000D01*
X41150000Y-85000000D02*
X41150000Y-83200000D01*
%TO.N,LED4_KB*%
X43690000Y-82800000D02*
X43500000Y-82800000D01*
X43500000Y-79000000D02*
X42900000Y-78400000D01*
X43500000Y-81000000D02*
X43500000Y-79000000D01*
X43690000Y-85000000D02*
X43690000Y-82800000D01*
X43500000Y-82800000D02*
X43500000Y-81000000D01*
%TO.N,LED4_KR*%
X45500000Y-79000000D02*
X42900000Y-77600000D01*
X45500000Y-81000000D02*
X45500000Y-79000000D01*
X46230000Y-85000000D02*
X46230000Y-82400000D01*
X45500000Y-82400000D02*
X45500000Y-81000000D01*
X46230000Y-82400000D02*
X45500000Y-82400000D01*
%TO.N,LED5_KG*%
X51500000Y-81000000D02*
X51500000Y-79000000D01*
X51310000Y-83200000D02*
X51500000Y-83200000D01*
X51310000Y-85000000D02*
X51310000Y-83200000D01*
X51500000Y-83200000D02*
X51500000Y-81000000D01*
X51500000Y-79000000D02*
X52100000Y-78400000D01*
%TO.N,LED5_KB*%
X53850000Y-82800000D02*
X53500000Y-82800000D01*
X53500000Y-81000000D02*
X53500000Y-79000000D01*
X53500000Y-82800000D02*
X53500000Y-81000000D01*
X53500000Y-79000000D02*
X52900000Y-78400000D01*
X53850000Y-85000000D02*
X53850000Y-82800000D01*
%TO.N,LED5_KR*%
X55500000Y-81000000D02*
X55500000Y-79000000D01*
X55500000Y-79000000D02*
X52900000Y-77600000D01*
X55500000Y-82400000D02*
X55500000Y-81000000D01*
X56390000Y-85000000D02*
X56390000Y-82400000D01*
X56390000Y-82400000D02*
X55500000Y-82400000D01*
%TO.N,LED6_KG*%
X61470000Y-85000000D02*
X61470000Y-83200000D01*
X61500000Y-81000000D02*
X61500000Y-79000000D01*
X61500000Y-79000000D02*
X62100000Y-78400000D01*
X61470000Y-83200000D02*
X61500000Y-83200000D01*
X61500000Y-83200000D02*
X61500000Y-81000000D01*
%TO.N,LED6_KB*%
X63500000Y-79000000D02*
X62900000Y-78400000D01*
X64010000Y-82800000D02*
X63500000Y-82800000D01*
X64010000Y-85000000D02*
X64010000Y-82800000D01*
X63500000Y-82800000D02*
X63500000Y-81000000D01*
X63500000Y-81000000D02*
X63500000Y-79000000D01*
%TO.N,LED6_KR*%
X66550000Y-85000000D02*
X66550000Y-82400000D01*
X65500000Y-79000000D02*
X62900000Y-77600000D01*
X66550000Y-82400000D02*
X65500000Y-82400000D01*
X65500000Y-82400000D02*
X65500000Y-81000000D01*
X65500000Y-81000000D02*
X65500000Y-79000000D01*
%TO.N,LED7_KG*%
X71500000Y-79000000D02*
X72100000Y-78400000D01*
X71630000Y-85000000D02*
X71630000Y-83200000D01*
X71630000Y-83200000D02*
X71500000Y-83200000D01*
X71500000Y-81000000D02*
X71500000Y-79000000D01*
X71500000Y-83200000D02*
X71500000Y-81000000D01*
%TO.N,LED7_KB*%
X74170000Y-85000000D02*
X74170000Y-82800000D01*
X74170000Y-82800000D02*
X73500000Y-82800000D01*
X73500000Y-79000000D02*
X72900000Y-78400000D01*
X73500000Y-82800000D02*
X73500000Y-81000000D01*
X73500000Y-81000000D02*
X73500000Y-79000000D01*
%TO.N,LED7_KR*%
X75500000Y-81000000D02*
X75500000Y-79000000D01*
X75500000Y-82400000D02*
X75500000Y-81000000D01*
X75500000Y-79000000D02*
X72900000Y-77600000D01*
X76710000Y-85000000D02*
X76710000Y-82400000D01*
X76710000Y-82400000D02*
X75500000Y-82400000D01*
%TO.N,LED8_KG*%
X81500000Y-79000000D02*
X82100000Y-78400000D01*
X81790000Y-83200000D02*
X81500000Y-83200000D01*
X81790000Y-85000000D02*
X81790000Y-83200000D01*
X81500000Y-83200000D02*
X81500000Y-81000000D01*
X81500000Y-81000000D02*
X81500000Y-79000000D01*
%TO.N,LED8_KB*%
X84330000Y-82800000D02*
X83500000Y-82800000D01*
X83500000Y-81000000D02*
X83500000Y-79000000D01*
X84330000Y-85000000D02*
X84330000Y-82800000D01*
X83500000Y-79000000D02*
X82900000Y-78400000D01*
X83500000Y-82800000D02*
X83500000Y-81000000D01*
%TO.N,LED8_KR*%
X85500000Y-82400000D02*
X85500000Y-81000000D01*
X86870000Y-82400000D02*
X85500000Y-82400000D01*
X85500000Y-81000000D02*
X85500000Y-79000000D01*
X86870000Y-85000000D02*
X86870000Y-82400000D01*
X85500000Y-79000000D02*
X82900000Y-77600000D01*
%TO.N,DCL6_J1*%
X16150000Y-69600000D02*
X17850000Y-69600000D01*
%TO.N,DCL6_J2*%
X18650000Y-69600000D02*
X20350000Y-69600000D01*
%TO.N,DCL6_J3*%
X21150000Y-69600000D02*
X22850000Y-69600000D01*
%TO.N,DCL6_J4*%
X23650000Y-69600000D02*
X25350000Y-69600000D01*
%TO.N,DCL6_J5*%
X26150000Y-69600000D02*
X27850000Y-69600000D01*
%TO.N,DCL12_J1*%
X56650000Y-69600000D02*
X58350000Y-69600000D01*
%TO.N,DCL12_J2*%
X59150000Y-69600000D02*
X60850000Y-69600000D01*
%TO.N,DCL12_J3*%
X61650000Y-69600000D02*
X63350000Y-69600000D01*
%TO.N,DCL12_J4*%
X64150000Y-69600000D02*
X65850000Y-69600000D01*
%TO.N,DCL12_J5*%
X66650000Y-69600000D02*
X68350000Y-69600000D01*
%TO.N,DCL12_J6*%
X69150000Y-69600000D02*
X70850000Y-69600000D01*
%TO.N,DCL12_J7*%
X71650000Y-69600000D02*
X73350000Y-69600000D01*
%TO.N,DCL12_J8*%
X74150000Y-69600000D02*
X75850000Y-69600000D01*
%TO.N,DCL12_J9*%
X76650000Y-69600000D02*
X78350000Y-69600000D01*
%TO.N,DCL12_J10*%
X79150000Y-69600000D02*
X80850000Y-69600000D01*
%TO.N,DCL12_J11*%
X81650000Y-69600000D02*
X83350000Y-69600000D01*
%TO.N,NTC1*%
X19500000Y-76500000D02*
X17500000Y-76500000D01*
%TO.N,NTC2*%
X39500000Y-76500000D02*
X37500000Y-76500000D01*
%TO.N,NTC3*%
X59500000Y-76500000D02*
X57500000Y-76500000D01*
%TO.N,NTC4*%
X79500000Y-76500000D02*
X77500000Y-76500000D01*
%TD*%
M02*
