%TF.GenerationSoftware,KiCad,Pcbnew,9.0.8-9.0.8~ubuntu24.04.1*%
%TF.CreationDate,2026-05-16T10:34:29+02:00*%
%TF.ProjectId,tud-microled-v2,7475642d-6d69-4637-926f-6c65642d7632,v2.0*%
%TF.SameCoordinates,Original*%
%TF.FileFunction,Copper,L2,Bot*%
%TF.FilePolarity,Positive*%
%FSLAX46Y46*%
G04 Gerber Fmt 4.6, Leading zero omitted, Abs format (unit mm)*
G04 Created by KiCad (PCBNEW 9.0.8-9.0.8~ubuntu24.04.1) date 2026-05-16 10:34:29*
%MOMM*%
%LPD*%
G01*
G04 APERTURE LIST*
%TA.AperFunction,ComponentPad*%
%ADD10C,1.700000*%
%TD*%
%TA.AperFunction,ViaPad*%
%ADD11C,0.600000*%
%TD*%
%TA.AperFunction,Conductor*%
%ADD12C,0.400000*%
%TD*%
G04 APERTURE END LIST*
D10*
%TO.P,H_N_1,1*%
%TO.N,N/C*%
X13170000Y-6500000D03*
%TD*%
%TO.P,H_S_1,1*%
%TO.N,N/C*%
X13170000Y-75500000D03*
%TD*%
%TO.P,H_N_2,1*%
%TO.N,N/C*%
X15710000Y-6500000D03*
%TD*%
%TO.P,H_S_2,1*%
%TO.N,N/C*%
X15710000Y-75500000D03*
%TD*%
%TO.P,H_N_3,1*%
%TO.N,N/C*%
X18250000Y-6500000D03*
%TD*%
%TO.P,H_S_3,1*%
%TO.N,N/C*%
X18250000Y-75500000D03*
%TD*%
%TO.P,H_N_4,1*%
%TO.N,N/C*%
X20790000Y-6500000D03*
%TD*%
%TO.P,H_S_4,1*%
%TO.N,N/C*%
X20790000Y-75500000D03*
%TD*%
%TO.P,H_N_5,1*%
%TO.N,N/C*%
X23330000Y-6500000D03*
%TD*%
%TO.P,H_S_5,1*%
%TO.N,N/C*%
X23330000Y-75500000D03*
%TD*%
%TO.P,H_N_6,1*%
%TO.N,N/C*%
X25870000Y-6500000D03*
%TD*%
%TO.P,H_S_6,1*%
%TO.N,N/C*%
X25870000Y-75500000D03*
%TD*%
%TO.P,H_N_7,1*%
%TO.N,N/C*%
X28410000Y-6500000D03*
%TD*%
%TO.P,H_S_7,1*%
%TO.N,N/C*%
X28410000Y-75500000D03*
%TD*%
%TO.P,H_N_8,1*%
%TO.N,N/C*%
X30950000Y-6500000D03*
%TD*%
%TO.P,H_S_8,1*%
%TO.N,N/C*%
X30950000Y-75500000D03*
%TD*%
%TO.P,H_N_9,1*%
%TO.N,N/C*%
X33490000Y-6500000D03*
%TD*%
%TO.P,H_S_9,1*%
%TO.N,N/C*%
X33490000Y-75500000D03*
%TD*%
%TO.P,H_N_10,1*%
%TO.N,N/C*%
X36030000Y-6500000D03*
%TD*%
%TO.P,H_S_10,1*%
%TO.N,N/C*%
X36030000Y-75500000D03*
%TD*%
%TO.P,H_N_11,1*%
%TO.N,N/C*%
X38570000Y-6500000D03*
%TD*%
%TO.P,H_S_11,1*%
%TO.N,N/C*%
X38570000Y-75500000D03*
%TD*%
%TO.P,H_N_12,1*%
%TO.N,N/C*%
X41110000Y-6500000D03*
%TD*%
%TO.P,H_S_12,1*%
%TO.N,N/C*%
X41110000Y-75500000D03*
%TD*%
%TO.P,H_N_13,1*%
%TO.N,N/C*%
X43650000Y-6500000D03*
%TD*%
%TO.P,H_S_13,1*%
%TO.N,N/C*%
X43650000Y-75500000D03*
%TD*%
%TO.P,H_N_14,1*%
%TO.N,N/C*%
X46190000Y-6500000D03*
%TD*%
%TO.P,H_S_14,1*%
%TO.N,N/C*%
X46190000Y-75500000D03*
%TD*%
%TO.P,H_N_15,1*%
%TO.N,N/C*%
X48730000Y-6500000D03*
%TD*%
%TO.P,H_S_15,1*%
%TO.N,N/C*%
X48730000Y-75500000D03*
%TD*%
%TO.P,H_N_16,1*%
%TO.N,N/C*%
X51270000Y-6500000D03*
%TD*%
%TO.P,H_S_16,1*%
%TO.N,N/C*%
X51270000Y-75500000D03*
%TD*%
%TO.P,H_N_17,1*%
%TO.N,N/C*%
X53810000Y-6500000D03*
%TD*%
%TO.P,H_S_17,1*%
%TO.N,N/C*%
X53810000Y-75500000D03*
%TD*%
%TO.P,H_N_18,1*%
%TO.N,N/C*%
X56350000Y-6500000D03*
%TD*%
%TO.P,H_S_18,1*%
%TO.N,N/C*%
X56350000Y-75500000D03*
%TD*%
%TO.P,H_N_19,1*%
%TO.N,N/C*%
X58890000Y-6500000D03*
%TD*%
%TO.P,H_S_19,1*%
%TO.N,N/C*%
X58890000Y-75500000D03*
%TD*%
%TO.P,H_N_20,1*%
%TO.N,N/C*%
X61430000Y-6500000D03*
%TD*%
%TO.P,H_S_20,1*%
%TO.N,N/C*%
X61430000Y-75500000D03*
%TD*%
%TO.P,H_N_21,1*%
%TO.N,N/C*%
X63970000Y-6500000D03*
%TD*%
%TO.P,H_S_21,1*%
%TO.N,N/C*%
X63970000Y-75500000D03*
%TD*%
%TO.P,H_N_22,1*%
%TO.N,N/C*%
X66510000Y-6500000D03*
%TD*%
%TO.P,H_S_22,1*%
%TO.N,N/C*%
X66510000Y-75500000D03*
%TD*%
%TO.P,H_N_23,1*%
%TO.N,N/C*%
X69050000Y-6500000D03*
%TD*%
%TO.P,H_S_23,1*%
%TO.N,N/C*%
X69050000Y-75500000D03*
%TD*%
%TO.P,H_N_24,1*%
%TO.N,N/C*%
X71590000Y-6500000D03*
%TD*%
%TO.P,H_S_24,1*%
%TO.N,N/C*%
X71590000Y-75500000D03*
%TD*%
%TO.P,H_N_25,1*%
%TO.N,N/C*%
X74130000Y-6500000D03*
%TD*%
%TO.P,H_S_25,1*%
%TO.N,N/C*%
X74130000Y-75500000D03*
%TD*%
%TO.P,H_N_26,1*%
%TO.N,N/C*%
X76670000Y-6500000D03*
%TD*%
%TO.P,H_S_26,1*%
%TO.N,N/C*%
X76670000Y-75500000D03*
%TD*%
%TO.P,H_N_27,1*%
%TO.N,N/C*%
X79210000Y-6500000D03*
%TD*%
%TO.P,H_S_27,1*%
%TO.N,N/C*%
X79210000Y-75500000D03*
%TD*%
%TO.P,H_N_28,1*%
%TO.N,N/C*%
X81750000Y-6500000D03*
%TD*%
%TO.P,H_S_28,1*%
%TO.N,N/C*%
X81750000Y-75500000D03*
%TD*%
%TO.P,H_N_29,1*%
%TO.N,N/C*%
X84290000Y-6500000D03*
%TD*%
%TO.P,H_S_29,1*%
%TO.N,N/C*%
X84290000Y-75500000D03*
%TD*%
%TO.P,H_N_30,1*%
%TO.N,N/C*%
X86830000Y-6500000D03*
%TD*%
%TO.P,H_S_30,1*%
%TO.N,N/C*%
X86830000Y-75500000D03*
%TD*%
D11*
%TO.N,LED_VCC*%
X12000000Y-72800000D03*
X22000000Y-72800000D03*
X32000000Y-72800000D03*
X42000000Y-72800000D03*
X52000000Y-72800000D03*
X62000000Y-72800000D03*
X72000000Y-72800000D03*
X82000000Y-72800000D03*
%TD*%
D12*
%TO.N,LED_VCC*%
X12000000Y-72800000D02*
X22000000Y-72800000D01*
X22000000Y-72800000D02*
X32000000Y-72800000D01*
X32000000Y-72800000D02*
X42000000Y-72800000D01*
X42000000Y-72800000D02*
X52000000Y-72800000D01*
X52000000Y-72800000D02*
X62000000Y-72800000D01*
X62000000Y-72800000D02*
X72000000Y-72800000D01*
X72000000Y-72800000D02*
X82000000Y-72800000D01*
%TD*%
M02*
