%TF.GenerationSoftware,KiCad,Pcbnew,9.0.8-9.0.8~ubuntu24.04.1*%
%TF.CreationDate,2026-05-16T10:34:29+02:00*%
%TF.ProjectId,tud-microled-v2,7475642d-6d69-4637-926f-6c65642d7632,v2.0*%
%TF.SameCoordinates,Original*%
%TF.FileFunction,Soldermask,Bot*%
%TF.FilePolarity,Negative*%
%FSLAX46Y46*%
G04 Gerber Fmt 4.6, Leading zero omitted, Abs format (unit mm)*
G04 Created by KiCad (PCBNEW 9.0.8-9.0.8~ubuntu24.04.1) date 2026-05-16 10:34:29*
%MOMM*%
%LPD*%
G01*
G04 APERTURE LIST*
%ADD10C,1.700000*%
G04 APERTURE END LIST*
D10*
%TO.C,H_N_1*%
X13170000Y-6500000D03*
%TD*%
%TO.C,H_S_1*%
X13170000Y-75500000D03*
%TD*%
%TO.C,H_N_2*%
X15710000Y-6500000D03*
%TD*%
%TO.C,H_S_2*%
X15710000Y-75500000D03*
%TD*%
%TO.C,H_N_3*%
X18250000Y-6500000D03*
%TD*%
%TO.C,H_S_3*%
X18250000Y-75500000D03*
%TD*%
%TO.C,H_N_4*%
X20790000Y-6500000D03*
%TD*%
%TO.C,H_S_4*%
X20790000Y-75500000D03*
%TD*%
%TO.C,H_N_5*%
X23330000Y-6500000D03*
%TD*%
%TO.C,H_S_5*%
X23330000Y-75500000D03*
%TD*%
%TO.C,H_N_6*%
X25870000Y-6500000D03*
%TD*%
%TO.C,H_S_6*%
X25870000Y-75500000D03*
%TD*%
%TO.C,H_N_7*%
X28410000Y-6500000D03*
%TD*%
%TO.C,H_S_7*%
X28410000Y-75500000D03*
%TD*%
%TO.C,H_N_8*%
X30950000Y-6500000D03*
%TD*%
%TO.C,H_S_8*%
X30950000Y-75500000D03*
%TD*%
%TO.C,H_N_9*%
X33490000Y-6500000D03*
%TD*%
%TO.C,H_S_9*%
X33490000Y-75500000D03*
%TD*%
%TO.C,H_N_10*%
X36030000Y-6500000D03*
%TD*%
%TO.C,H_S_10*%
X36030000Y-75500000D03*
%TD*%
%TO.C,H_N_11*%
X38570000Y-6500000D03*
%TD*%
%TO.C,H_S_11*%
X38570000Y-75500000D03*
%TD*%
%TO.C,H_N_12*%
X41110000Y-6500000D03*
%TD*%
%TO.C,H_S_12*%
X41110000Y-75500000D03*
%TD*%
%TO.C,H_N_13*%
X43650000Y-6500000D03*
%TD*%
%TO.C,H_S_13*%
X43650000Y-75500000D03*
%TD*%
%TO.C,H_N_14*%
X46190000Y-6500000D03*
%TD*%
%TO.C,H_S_14*%
X46190000Y-75500000D03*
%TD*%
%TO.C,H_N_15*%
X48730000Y-6500000D03*
%TD*%
%TO.C,H_S_15*%
X48730000Y-75500000D03*
%TD*%
%TO.C,H_N_16*%
X51270000Y-6500000D03*
%TD*%
%TO.C,H_S_16*%
X51270000Y-75500000D03*
%TD*%
%TO.C,H_N_17*%
X53810000Y-6500000D03*
%TD*%
%TO.C,H_S_17*%
X53810000Y-75500000D03*
%TD*%
%TO.C,H_N_18*%
X56350000Y-6500000D03*
%TD*%
%TO.C,H_S_18*%
X56350000Y-75500000D03*
%TD*%
%TO.C,H_N_19*%
X58890000Y-6500000D03*
%TD*%
%TO.C,H_S_19*%
X58890000Y-75500000D03*
%TD*%
%TO.C,H_N_20*%
X61430000Y-6500000D03*
%TD*%
%TO.C,H_S_20*%
X61430000Y-75500000D03*
%TD*%
%TO.C,H_N_21*%
X63970000Y-6500000D03*
%TD*%
%TO.C,H_S_21*%
X63970000Y-75500000D03*
%TD*%
%TO.C,H_N_22*%
X66510000Y-6500000D03*
%TD*%
%TO.C,H_S_22*%
X66510000Y-75500000D03*
%TD*%
%TO.C,H_N_23*%
X69050000Y-6500000D03*
%TD*%
%TO.C,H_S_23*%
X69050000Y-75500000D03*
%TD*%
%TO.C,H_N_24*%
X71590000Y-6500000D03*
%TD*%
%TO.C,H_S_24*%
X71590000Y-75500000D03*
%TD*%
%TO.C,H_N_25*%
X74130000Y-6500000D03*
%TD*%
%TO.C,H_S_25*%
X74130000Y-75500000D03*
%TD*%
%TO.C,H_N_26*%
X76670000Y-6500000D03*
%TD*%
%TO.C,H_S_26*%
X76670000Y-75500000D03*
%TD*%
%TO.C,H_N_27*%
X79210000Y-6500000D03*
%TD*%
%TO.C,H_S_27*%
X79210000Y-75500000D03*
%TD*%
%TO.C,H_N_28*%
X81750000Y-6500000D03*
%TD*%
%TO.C,H_S_28*%
X81750000Y-75500000D03*
%TD*%
%TO.C,H_N_29*%
X84290000Y-6500000D03*
%TD*%
%TO.C,H_S_29*%
X84290000Y-75500000D03*
%TD*%
%TO.C,H_N_30*%
X86830000Y-6500000D03*
%TD*%
%TO.C,H_S_30*%
X86830000Y-75500000D03*
%TD*%
M02*
