M48
; DRILL file {KiCad 9.0.8-9.0.8~ubuntu24.04.1} date 2026-05-16T15:42:08+0200
; FORMAT={-:-/ absolute / metric / decimal}
; #@! TF.CreationDate,2026-05-16T15:42:08+02:00
; #@! TF.GenerationSoftware,Kicad,Pcbnew,9.0.8-9.0.8~ubuntu24.04.1
; #@! TF.FileFunction,MixedPlating,1,2
FMAT,2
METRIC
; #@! TA.AperFunction,Plated,PTH,ViaDrill
T1C0.300
; #@! TA.AperFunction,Plated,PTH,ComponentDrill
T2C1.000
%
G90
G05
T1
X7.0Y-14.5
X7.0Y-92.5
X12.0Y-85.5
X20.5Y-79.6
X22.0Y-85.5
X32.0Y-85.5
X40.5Y-79.6
X42.0Y-85.5
X52.0Y-85.5
X60.5Y-79.6
X62.0Y-85.5
X72.0Y-85.5
X80.5Y-79.6
X82.0Y-85.5
X93.0Y-14.5
X93.0Y-92.5
T2
X10.63Y-89.0
X13.17Y-13.5
X13.17Y-89.0
X15.71Y-13.5
X15.71Y-89.0
X18.25Y-13.5
X18.25Y-89.0
X20.79Y-13.5
X20.79Y-89.0
X23.33Y-13.5
X23.33Y-89.0
X25.87Y-13.5
X25.87Y-89.0
X28.41Y-13.5
X28.41Y-89.0
X30.95Y-13.5
X30.95Y-89.0
X33.49Y-13.5
X33.49Y-89.0
X36.03Y-13.5
X36.03Y-89.0
X38.57Y-13.5
X38.57Y-89.0
X41.11Y-13.5
X41.11Y-89.0
X43.65Y-13.5
X43.65Y-89.0
X46.19Y-13.5
X46.19Y-89.0
X48.73Y-13.5
X48.73Y-89.0
X51.27Y-13.5
X51.27Y-89.0
X53.81Y-13.5
X53.81Y-89.0
X56.35Y-13.5
X56.35Y-89.0
X58.89Y-13.5
X58.89Y-89.0
X61.43Y-13.5
X61.43Y-89.0
X63.97Y-13.5
X63.97Y-89.0
X66.51Y-13.5
X66.51Y-89.0
X69.05Y-13.5
X69.05Y-89.0
X71.59Y-13.5
X71.59Y-89.0
X74.13Y-13.5
X74.13Y-89.0
X76.67Y-13.5
X76.67Y-89.0
X79.21Y-13.5
X79.21Y-89.0
X81.75Y-13.5
X81.75Y-89.0
X84.29Y-13.5
X84.29Y-89.0
X86.83Y-13.5
X86.83Y-89.0
X89.37Y-89.0
M30
