<svg xmlns="http://www.w3.org/2000/svg" width="1520" height="890" viewBox="0 0 1520 890" font-family="DejaVu Sans, Helvetica, Arial, sans-serif">
<rect width="1520" height="890" fill="#fbfaf6"/>
<text x="56.0" y="52.0" font-size="29" font-weight="bold" fill="#111" text-anchor="start" opacity="1.0">Close-up: the RETURN cluster and the two rails</text>
<text x="56.0" y="82.0" font-size="16.5" font-weight="normal" fill="#5a5a5a" text-anchor="start" opacity="1.0">Columns 2 to 13 at twice the size. This is the part that was crowded.</text>
<rect x="130.0" y="168.0" width="730.0" height="592.0" rx="14" fill="#f4f1e7" stroke="#d2ccb9" stroke-width="3"/>
<rect x="289.0" y="200.0" width="50" height="272.0" rx="25" fill="#f08c00" opacity="0.17"/>
<rect x="497.0" y="200.0" width="50" height="272.0" rx="25" fill="#f08c00" opacity="0.17"/>
<rect x="289.0" y="215.0" width="258.0" height="34" rx="17" fill="#f08c00" opacity="0.17"/>
<rect x="146.0" y="560.6" width="698.0" height="50" rx="25" fill="#242424" opacity="0.10"/>
<rect x="146.0" y="612.6" width="698.0" height="50" rx="25" fill="#d81e1e" opacity="0.13"/>
<line x1="152.0" y1="673.6" x2="838.0" y2="673.6" stroke="#d63b3b" stroke-width="4"/>
<line x1="152.0" y1="549.6" x2="838.0" y2="549.6" stroke="#3a63c0" stroke-width="4"/>
<rect x="201.5" y="223.5" width="17.0" height="17.0" rx="3" fill="#333"/><rect x="204.5" y="226.5" width="11.0" height="11.0" rx="2" fill="#0c0c0c"/>
<rect x="201.5" y="275.5" width="17.0" height="17.0" rx="3" fill="#333"/><rect x="204.5" y="278.5" width="11.0" height="11.0" rx="2" fill="#0c0c0c"/>
<rect x="201.5" y="327.5" width="17.0" height="17.0" rx="3" fill="#333"/><rect x="204.5" y="330.5" width="11.0" height="11.0" rx="2" fill="#0c0c0c"/>
<rect x="201.5" y="379.5" width="17.0" height="17.0" rx="3" fill="#333"/><rect x="204.5" y="382.5" width="11.0" height="11.0" rx="2" fill="#0c0c0c"/>
<rect x="201.5" y="431.5" width="17.0" height="17.0" rx="3" fill="#333"/><rect x="204.5" y="434.5" width="11.0" height="11.0" rx="2" fill="#0c0c0c"/>
<text x="210.0" y="188.0" font-size="15" font-weight="normal" fill="#8f8a7c" text-anchor="middle" opacity="1.0">2</text>
<rect x="253.5" y="223.5" width="17.0" height="17.0" rx="3" fill="#333"/><rect x="256.5" y="226.5" width="11.0" height="11.0" rx="2" fill="#0c0c0c"/>
<rect x="253.5" y="275.5" width="17.0" height="17.0" rx="3" fill="#333"/><rect x="256.5" y="278.5" width="11.0" height="11.0" rx="2" fill="#0c0c0c"/>
<rect x="253.5" y="327.5" width="17.0" height="17.0" rx="3" fill="#333"/><rect x="256.5" y="330.5" width="11.0" height="11.0" rx="2" fill="#0c0c0c"/>
<rect x="253.5" y="379.5" width="17.0" height="17.0" rx="3" fill="#333"/><rect x="256.5" y="382.5" width="11.0" height="11.0" rx="2" fill="#0c0c0c"/>
<rect x="253.5" y="431.5" width="17.0" height="17.0" rx="3" fill="#333"/><rect x="256.5" y="434.5" width="11.0" height="11.0" rx="2" fill="#0c0c0c"/>
<text x="262.0" y="188.0" font-size="15" font-weight="normal" fill="#8f8a7c" text-anchor="middle" opacity="1.0">3</text>
<rect x="305.5" y="223.5" width="17.0" height="17.0" rx="3" fill="#333"/><rect x="308.5" y="226.5" width="11.0" height="11.0" rx="2" fill="#0c0c0c"/>
<rect x="305.5" y="275.5" width="17.0" height="17.0" rx="3" fill="#333"/><rect x="308.5" y="278.5" width="11.0" height="11.0" rx="2" fill="#0c0c0c"/>
<rect x="305.5" y="327.5" width="17.0" height="17.0" rx="3" fill="#333"/><rect x="308.5" y="330.5" width="11.0" height="11.0" rx="2" fill="#0c0c0c"/>
<rect x="305.5" y="379.5" width="17.0" height="17.0" rx="3" fill="#333"/><rect x="308.5" y="382.5" width="11.0" height="11.0" rx="2" fill="#0c0c0c"/>
<rect x="305.5" y="431.5" width="17.0" height="17.0" rx="3" fill="#333"/><rect x="308.5" y="434.5" width="11.0" height="11.0" rx="2" fill="#0c0c0c"/>
<text x="314.0" y="188.0" font-size="15" font-weight="normal" fill="#8f8a7c" text-anchor="middle" opacity="1.0">4</text>
<rect x="357.5" y="223.5" width="17.0" height="17.0" rx="3" fill="#333"/><rect x="360.5" y="226.5" width="11.0" height="11.0" rx="2" fill="#0c0c0c"/>
<rect x="357.5" y="275.5" width="17.0" height="17.0" rx="3" fill="#333"/><rect x="360.5" y="278.5" width="11.0" height="11.0" rx="2" fill="#0c0c0c"/>
<rect x="357.5" y="327.5" width="17.0" height="17.0" rx="3" fill="#333"/><rect x="360.5" y="330.5" width="11.0" height="11.0" rx="2" fill="#0c0c0c"/>
<rect x="357.5" y="379.5" width="17.0" height="17.0" rx="3" fill="#333"/><rect x="360.5" y="382.5" width="11.0" height="11.0" rx="2" fill="#0c0c0c"/>
<rect x="357.5" y="431.5" width="17.0" height="17.0" rx="3" fill="#333"/><rect x="360.5" y="434.5" width="11.0" height="11.0" rx="2" fill="#0c0c0c"/>
<text x="366.0" y="188.0" font-size="15" font-weight="normal" fill="#8f8a7c" text-anchor="middle" opacity="1.0">5</text>
<rect x="409.5" y="223.5" width="17.0" height="17.0" rx="3" fill="#333"/><rect x="412.5" y="226.5" width="11.0" height="11.0" rx="2" fill="#0c0c0c"/>
<rect x="409.5" y="275.5" width="17.0" height="17.0" rx="3" fill="#333"/><rect x="412.5" y="278.5" width="11.0" height="11.0" rx="2" fill="#0c0c0c"/>
<rect x="409.5" y="327.5" width="17.0" height="17.0" rx="3" fill="#333"/><rect x="412.5" y="330.5" width="11.0" height="11.0" rx="2" fill="#0c0c0c"/>
<rect x="409.5" y="379.5" width="17.0" height="17.0" rx="3" fill="#333"/><rect x="412.5" y="382.5" width="11.0" height="11.0" rx="2" fill="#0c0c0c"/>
<rect x="409.5" y="431.5" width="17.0" height="17.0" rx="3" fill="#333"/><rect x="412.5" y="434.5" width="11.0" height="11.0" rx="2" fill="#0c0c0c"/>
<text x="418.0" y="188.0" font-size="15" font-weight="normal" fill="#8f8a7c" text-anchor="middle" opacity="1.0">6</text>
<rect x="461.5" y="223.5" width="17.0" height="17.0" rx="3" fill="#333"/><rect x="464.5" y="226.5" width="11.0" height="11.0" rx="2" fill="#0c0c0c"/>
<rect x="461.5" y="275.5" width="17.0" height="17.0" rx="3" fill="#333"/><rect x="464.5" y="278.5" width="11.0" height="11.0" rx="2" fill="#0c0c0c"/>
<rect x="461.5" y="327.5" width="17.0" height="17.0" rx="3" fill="#333"/><rect x="464.5" y="330.5" width="11.0" height="11.0" rx="2" fill="#0c0c0c"/>
<rect x="461.5" y="379.5" width="17.0" height="17.0" rx="3" fill="#333"/><rect x="464.5" y="382.5" width="11.0" height="11.0" rx="2" fill="#0c0c0c"/>
<rect x="461.5" y="431.5" width="17.0" height="17.0" rx="3" fill="#333"/><rect x="464.5" y="434.5" width="11.0" height="11.0" rx="2" fill="#0c0c0c"/>
<text x="470.0" y="188.0" font-size="15" font-weight="normal" fill="#8f8a7c" text-anchor="middle" opacity="1.0">7</text>
<rect x="513.5" y="223.5" width="17.0" height="17.0" rx="3" fill="#333"/><rect x="516.5" y="226.5" width="11.0" height="11.0" rx="2" fill="#0c0c0c"/>
<rect x="513.5" y="275.5" width="17.0" height="17.0" rx="3" fill="#333"/><rect x="516.5" y="278.5" width="11.0" height="11.0" rx="2" fill="#0c0c0c"/>
<rect x="513.5" y="327.5" width="17.0" height="17.0" rx="3" fill="#333"/><rect x="516.5" y="330.5" width="11.0" height="11.0" rx="2" fill="#0c0c0c"/>
<rect x="513.5" y="379.5" width="17.0" height="17.0" rx="3" fill="#333"/><rect x="516.5" y="382.5" width="11.0" height="11.0" rx="2" fill="#0c0c0c"/>
<rect x="513.5" y="431.5" width="17.0" height="17.0" rx="3" fill="#333"/><rect x="516.5" y="434.5" width="11.0" height="11.0" rx="2" fill="#0c0c0c"/>
<text x="522.0" y="188.0" font-size="15" font-weight="normal" fill="#8f8a7c" text-anchor="middle" opacity="1.0">8</text>
<rect x="565.5" y="223.5" width="17.0" height="17.0" rx="3" fill="#333"/><rect x="568.5" y="226.5" width="11.0" height="11.0" rx="2" fill="#0c0c0c"/>
<rect x="565.5" y="275.5" width="17.0" height="17.0" rx="3" fill="#333"/><rect x="568.5" y="278.5" width="11.0" height="11.0" rx="2" fill="#0c0c0c"/>
<rect x="565.5" y="327.5" width="17.0" height="17.0" rx="3" fill="#333"/><rect x="568.5" y="330.5" width="11.0" height="11.0" rx="2" fill="#0c0c0c"/>
<rect x="565.5" y="379.5" width="17.0" height="17.0" rx="3" fill="#333"/><rect x="568.5" y="382.5" width="11.0" height="11.0" rx="2" fill="#0c0c0c"/>
<rect x="565.5" y="431.5" width="17.0" height="17.0" rx="3" fill="#333"/><rect x="568.5" y="434.5" width="11.0" height="11.0" rx="2" fill="#0c0c0c"/>
<text x="574.0" y="188.0" font-size="15" font-weight="normal" fill="#8f8a7c" text-anchor="middle" opacity="1.0">9</text>
<rect x="617.5" y="223.5" width="17.0" height="17.0" rx="3" fill="#333"/><rect x="620.5" y="226.5" width="11.0" height="11.0" rx="2" fill="#0c0c0c"/>
<rect x="617.5" y="275.5" width="17.0" height="17.0" rx="3" fill="#333"/><rect x="620.5" y="278.5" width="11.0" height="11.0" rx="2" fill="#0c0c0c"/>
<rect x="617.5" y="327.5" width="17.0" height="17.0" rx="3" fill="#333"/><rect x="620.5" y="330.5" width="11.0" height="11.0" rx="2" fill="#0c0c0c"/>
<rect x="617.5" y="379.5" width="17.0" height="17.0" rx="3" fill="#333"/><rect x="620.5" y="382.5" width="11.0" height="11.0" rx="2" fill="#0c0c0c"/>
<rect x="617.5" y="431.5" width="17.0" height="17.0" rx="3" fill="#333"/><rect x="620.5" y="434.5" width="11.0" height="11.0" rx="2" fill="#0c0c0c"/>
<text x="626.0" y="188.0" font-size="15" font-weight="normal" fill="#8f8a7c" text-anchor="middle" opacity="1.0">10</text>
<rect x="669.5" y="223.5" width="17.0" height="17.0" rx="3" fill="#333"/><rect x="672.5" y="226.5" width="11.0" height="11.0" rx="2" fill="#0c0c0c"/>
<rect x="669.5" y="275.5" width="17.0" height="17.0" rx="3" fill="#333"/><rect x="672.5" y="278.5" width="11.0" height="11.0" rx="2" fill="#0c0c0c"/>
<rect x="669.5" y="327.5" width="17.0" height="17.0" rx="3" fill="#333"/><rect x="672.5" y="330.5" width="11.0" height="11.0" rx="2" fill="#0c0c0c"/>
<rect x="669.5" y="379.5" width="17.0" height="17.0" rx="3" fill="#333"/><rect x="672.5" y="382.5" width="11.0" height="11.0" rx="2" fill="#0c0c0c"/>
<rect x="669.5" y="431.5" width="17.0" height="17.0" rx="3" fill="#333"/><rect x="672.5" y="434.5" width="11.0" height="11.0" rx="2" fill="#0c0c0c"/>
<text x="678.0" y="188.0" font-size="15" font-weight="normal" fill="#8f8a7c" text-anchor="middle" opacity="1.0">11</text>
<rect x="721.5" y="223.5" width="17.0" height="17.0" rx="3" fill="#333"/><rect x="724.5" y="226.5" width="11.0" height="11.0" rx="2" fill="#0c0c0c"/>
<rect x="721.5" y="275.5" width="17.0" height="17.0" rx="3" fill="#333"/><rect x="724.5" y="278.5" width="11.0" height="11.0" rx="2" fill="#0c0c0c"/>
<rect x="721.5" y="327.5" width="17.0" height="17.0" rx="3" fill="#333"/><rect x="724.5" y="330.5" width="11.0" height="11.0" rx="2" fill="#0c0c0c"/>
<rect x="721.5" y="379.5" width="17.0" height="17.0" rx="3" fill="#333"/><rect x="724.5" y="382.5" width="11.0" height="11.0" rx="2" fill="#0c0c0c"/>
<rect x="721.5" y="431.5" width="17.0" height="17.0" rx="3" fill="#333"/><rect x="724.5" y="434.5" width="11.0" height="11.0" rx="2" fill="#0c0c0c"/>
<text x="730.0" y="188.0" font-size="15" font-weight="normal" fill="#8f8a7c" text-anchor="middle" opacity="1.0">12</text>
<rect x="773.5" y="223.5" width="17.0" height="17.0" rx="3" fill="#333"/><rect x="776.5" y="226.5" width="11.0" height="11.0" rx="2" fill="#0c0c0c"/>
<rect x="773.5" y="275.5" width="17.0" height="17.0" rx="3" fill="#333"/><rect x="776.5" y="278.5" width="11.0" height="11.0" rx="2" fill="#0c0c0c"/>
<rect x="773.5" y="327.5" width="17.0" height="17.0" rx="3" fill="#333"/><rect x="776.5" y="330.5" width="11.0" height="11.0" rx="2" fill="#0c0c0c"/>
<rect x="773.5" y="379.5" width="17.0" height="17.0" rx="3" fill="#333"/><rect x="776.5" y="382.5" width="11.0" height="11.0" rx="2" fill="#0c0c0c"/>
<rect x="773.5" y="431.5" width="17.0" height="17.0" rx="3" fill="#333"/><rect x="776.5" y="434.5" width="11.0" height="11.0" rx="2" fill="#0c0c0c"/>
<text x="782.0" y="188.0" font-size="15" font-weight="normal" fill="#8f8a7c" text-anchor="middle" opacity="1.0">13</text>
<rect x="253.5" y="577.1" width="17.0" height="17.0" rx="3" fill="#333"/><rect x="256.5" y="580.1" width="11.0" height="11.0" rx="2" fill="#0c0c0c"/>
<rect x="253.5" y="629.1" width="17.0" height="17.0" rx="3" fill="#333"/><rect x="256.5" y="632.1" width="11.0" height="11.0" rx="2" fill="#0c0c0c"/>
<rect x="305.5" y="577.1" width="17.0" height="17.0" rx="3" fill="#333"/><rect x="308.5" y="580.1" width="11.0" height="11.0" rx="2" fill="#0c0c0c"/>
<rect x="305.5" y="629.1" width="17.0" height="17.0" rx="3" fill="#333"/><rect x="308.5" y="632.1" width="11.0" height="11.0" rx="2" fill="#0c0c0c"/>
<rect x="357.5" y="577.1" width="17.0" height="17.0" rx="3" fill="#333"/><rect x="360.5" y="580.1" width="11.0" height="11.0" rx="2" fill="#0c0c0c"/>
<rect x="357.5" y="629.1" width="17.0" height="17.0" rx="3" fill="#333"/><rect x="360.5" y="632.1" width="11.0" height="11.0" rx="2" fill="#0c0c0c"/>
<rect x="409.5" y="577.1" width="17.0" height="17.0" rx="3" fill="#333"/><rect x="412.5" y="580.1" width="11.0" height="11.0" rx="2" fill="#0c0c0c"/>
<rect x="409.5" y="629.1" width="17.0" height="17.0" rx="3" fill="#333"/><rect x="412.5" y="632.1" width="11.0" height="11.0" rx="2" fill="#0c0c0c"/>
<rect x="461.5" y="577.1" width="17.0" height="17.0" rx="3" fill="#333"/><rect x="464.5" y="580.1" width="11.0" height="11.0" rx="2" fill="#0c0c0c"/>
<rect x="461.5" y="629.1" width="17.0" height="17.0" rx="3" fill="#333"/><rect x="464.5" y="632.1" width="11.0" height="11.0" rx="2" fill="#0c0c0c"/>
<rect x="565.5" y="577.1" width="17.0" height="17.0" rx="3" fill="#333"/><rect x="568.5" y="580.1" width="11.0" height="11.0" rx="2" fill="#0c0c0c"/>
<rect x="565.5" y="629.1" width="17.0" height="17.0" rx="3" fill="#333"/><rect x="568.5" y="632.1" width="11.0" height="11.0" rx="2" fill="#0c0c0c"/>
<rect x="617.5" y="577.1" width="17.0" height="17.0" rx="3" fill="#333"/><rect x="620.5" y="580.1" width="11.0" height="11.0" rx="2" fill="#0c0c0c"/>
<rect x="617.5" y="629.1" width="17.0" height="17.0" rx="3" fill="#333"/><rect x="620.5" y="632.1" width="11.0" height="11.0" rx="2" fill="#0c0c0c"/>
<rect x="669.5" y="577.1" width="17.0" height="17.0" rx="3" fill="#333"/><rect x="672.5" y="580.1" width="11.0" height="11.0" rx="2" fill="#0c0c0c"/>
<rect x="669.5" y="629.1" width="17.0" height="17.0" rx="3" fill="#333"/><rect x="672.5" y="632.1" width="11.0" height="11.0" rx="2" fill="#0c0c0c"/>
<rect x="721.5" y="577.1" width="17.0" height="17.0" rx="3" fill="#333"/><rect x="724.5" y="580.1" width="11.0" height="11.0" rx="2" fill="#0c0c0c"/>
<rect x="721.5" y="629.1" width="17.0" height="17.0" rx="3" fill="#333"/><rect x="724.5" y="632.1" width="11.0" height="11.0" rx="2" fill="#0c0c0c"/>
<rect x="773.5" y="577.1" width="17.0" height="17.0" rx="3" fill="#333"/><rect x="776.5" y="580.1" width="11.0" height="11.0" rx="2" fill="#0c0c0c"/>
<rect x="773.5" y="629.1" width="17.0" height="17.0" rx="3" fill="#333"/><rect x="776.5" y="632.1" width="11.0" height="11.0" rx="2" fill="#0c0c0c"/>
<text x="162.0" y="238.0" font-size="16" font-weight="normal" fill="#8f8a7c" text-anchor="middle" opacity="1.0">E</text>
<text x="162.0" y="290.0" font-size="16" font-weight="normal" fill="#8f8a7c" text-anchor="middle" opacity="1.0">D</text>
<text x="162.0" y="342.0" font-size="16" font-weight="normal" fill="#8f8a7c" text-anchor="middle" opacity="1.0">C</text>
<text x="162.0" y="394.0" font-size="16" font-weight="normal" fill="#8f8a7c" text-anchor="middle" opacity="1.0">B</text>
<text x="162.0" y="446.0" font-size="16" font-weight="normal" fill="#8f8a7c" text-anchor="middle" opacity="1.0">A</text>
<text x="114.0" y="591.6" font-size="18" font-weight="bold" fill="#242424" text-anchor="end" opacity="1.0">GND</text>
<text x="114.0" y="643.6" font-size="18" font-weight="bold" fill="#d81e1e" text-anchor="end" opacity="1.0">FORCE</text>
<line x1="314.0" y1="440.0" x2="366.0" y2="585.6" stroke="#a3a3a3" stroke-width="6" stroke-linecap="round"/>
<g transform="translate(340.0,512.8) rotate(70.3)"><ellipse rx="34" ry="27" fill="#2f6fd0" stroke="#1c4a92" stroke-width="2.5"/><ellipse cx="-9" cy="-8" rx="13" ry="8" fill="#74a8ec" opacity="0.6"/></g>
<line x1="522.0" y1="440.0" x2="574.0" y2="585.6" stroke="#a3a3a3" stroke-width="6" stroke-linecap="round"/>
<g transform="translate(548.0,512.8) rotate(70.3)"><ellipse rx="34" ry="27" fill="#2f6fd0" stroke="#1c4a92" stroke-width="2.5"/><ellipse cx="-9" cy="-8" rx="13" ry="8" fill="#74a8ec" opacity="0.6"/></g>
<line x1="522.0" y1="388.0" x2="678.0" y2="585.6" stroke="#a3a3a3" stroke-width="6" stroke-linecap="round"/>
<g transform="translate(600.0,486.8) rotate(51.7)"><rect x="-66.0" y="-22" width="132.0" height="44" rx="15" fill="#e7d3af" stroke="#ac9066" stroke-width="2.5"/>
<rect x="-53.1" y="-22" width="12" height="44" fill="#7a4a16"/>
<rect x="-29.6" y="-22" width="12" height="44" fill="#171717"/>
<rect x="-6.0" y="-22" width="12" height="44" fill="#7a4a16"/>
<rect x="42.3" y="-22" width="12" height="44" fill="#c9a227"/>
</g>
<line x1="678.0" y1="637.6" x2="782.0" y2="585.6" stroke="#a3a3a3" stroke-width="6" stroke-linecap="round"/>
<g transform="translate(730.0,611.6) rotate(-26.6)"><ellipse rx="34" ry="27" fill="#2f6fd0" stroke="#1c4a92" stroke-width="2.5"/><ellipse cx="-9" cy="-8" rx="13" ry="8" fill="#74a8ec" opacity="0.6"/></g>
<path d="M 314.0 232.0 L 522.0 232.0" fill="none" stroke="#00000055" stroke-width="18.0" stroke-linecap="round" stroke-linejoin="round"/>
<path d="M 314.0 232.0 L 522.0 232.0" fill="none" stroke="#f08c00" stroke-width="13.0" stroke-linecap="round" stroke-linejoin="round"/>
<rect x="302.0" y="220.0" width="24" height="24" rx="4.5" fill="#f08c00" stroke="#00000077" stroke-width="2"/>
<rect x="510.0" y="220.0" width="24" height="24" rx="4.5" fill="#f08c00" stroke="#00000077" stroke-width="2"/>
<path d="M 314.0 336.0 C 244.0 316.0 190.0 300.0 150.0 126.0" fill="none" stroke="#00000055" stroke-width="18.0" stroke-linecap="round" stroke-linejoin="round"/>
<path d="M 314.0 336.0 C 244.0 316.0 190.0 300.0 150.0 126.0" fill="none" stroke="#f08c00" stroke-width="13.0" stroke-linecap="round" stroke-linejoin="round"/>
<rect x="302.0" y="324.0" width="24" height="24" rx="4.5" fill="#f08c00" stroke="#00000077" stroke-width="2"/>
<rect x="87.0" y="93.8" width="254.0" height="26.2" rx="7" fill="#ffffffee" stroke="#f08c00" stroke-width="2"/>
<text x="214.0" y="114.3" font-size="15" font-weight="bold" fill="#f08c00" text-anchor="middle" opacity="1.0">F/M out to the die cathode</text>
<path d="M 262.0 585.6 C 232.0 700.0 176.0 756.0 148.0 812.0" fill="none" stroke="#00000055" stroke-width="18.0" stroke-linecap="round" stroke-linejoin="round"/>
<path d="M 262.0 585.6 C 232.0 700.0 176.0 756.0 148.0 812.0" fill="none" stroke="#242424" stroke-width="13.0" stroke-linecap="round" stroke-linejoin="round"/>
<rect x="250.0" y="573.6" width="24" height="24" rx="4.5" fill="#242424" stroke="#00000077" stroke-width="2"/>
<rect x="106.5" y="833.8" width="83.0" height="26.2" rx="7" fill="#ffffffee" stroke="#242424" stroke-width="2"/>
<text x="148.0" y="854.3" font-size="15" font-weight="bold" fill="#242424" text-anchor="middle" opacity="1.0">UNO GND</text>
<path d="M 314.0 284.0 C 275.0 350.0 280.0 620.0 288.0 812.0" fill="none" stroke="#00000055" stroke-width="18.0" stroke-linecap="round" stroke-linejoin="round"/>
<path d="M 314.0 284.0 C 275.0 350.0 280.0 620.0 288.0 812.0" fill="none" stroke="#0e9c52" stroke-width="13.0" stroke-linecap="round" stroke-linejoin="round"/>
<rect x="302.0" y="272.0" width="24" height="24" rx="4.5" fill="#0e9c52" stroke="#00000077" stroke-width="2"/>
<rect x="269.0" y="833.8" width="38.0" height="26.2" rx="7" fill="#ffffffee" stroke="#0e9c52" stroke-width="2"/>
<text x="288.0" y="854.3" font-size="15" font-weight="bold" fill="#0e9c52" text-anchor="middle" opacity="1.0">A0</text>
<path d="M 418.0 637.6 C 416.0 720.0 404.0 772.0 400.0 812.0" fill="none" stroke="#00000055" stroke-width="18.0" stroke-linecap="round" stroke-linejoin="round"/>
<path d="M 418.0 637.6 C 416.0 720.0 404.0 772.0 400.0 812.0" fill="none" stroke="#8e3fbe" stroke-width="13.0" stroke-linecap="round" stroke-linejoin="round"/>
<rect x="406.0" y="625.6" width="24" height="24" rx="4.5" fill="#8e3fbe" stroke="#00000077" stroke-width="2"/>
<rect x="381.0" y="833.8" width="38.0" height="26.2" rx="7" fill="#ffffffee" stroke="#8e3fbe" stroke-width="2"/>
<text x="400.0" y="854.3" font-size="15" font-weight="bold" fill="#8e3fbe" text-anchor="middle" opacity="1.0">A1</text>
<path d="M 522.0 284.0 C 480.0 400.0 516.0 580.0 522.0 812.0" fill="none" stroke="#00000055" stroke-width="18.0" stroke-linecap="round" stroke-linejoin="round"/>
<path d="M 522.0 284.0 C 480.0 400.0 516.0 580.0 522.0 812.0" fill="none" stroke="#c2185b" stroke-width="13.0" stroke-linecap="round" stroke-linejoin="round"/>
<rect x="510.0" y="272.0" width="24" height="24" rx="4.5" fill="#c2185b" stroke="#00000077" stroke-width="2"/>
<rect x="503.0" y="833.8" width="38.0" height="26.2" rx="7" fill="#ffffffee" stroke="#c2185b" stroke-width="2"/>
<text x="522.0" y="854.3" font-size="15" font-weight="bold" fill="#c2185b" text-anchor="middle" opacity="1.0">A2</text>
<path d="M 626.0 585.6 C 700.0 700.0 660.0 760.0 640.0 812.0" fill="none" stroke="#00000055" stroke-width="18.0" stroke-linecap="round" stroke-linejoin="round"/>
<path d="M 626.0 585.6 C 700.0 700.0 660.0 760.0 640.0 812.0" fill="none" stroke="#00acc1" stroke-width="13.0" stroke-linecap="round" stroke-linejoin="round"/>
<rect x="614.0" y="573.6" width="24" height="24" rx="4.5" fill="#00acc1" stroke="#00000077" stroke-width="2"/>
<rect x="621.0" y="833.8" width="38.0" height="26.2" rx="7" fill="#ffffffee" stroke="#00acc1" stroke-width="2"/>
<text x="640.0" y="854.3" font-size="15" font-weight="bold" fill="#00acc1" text-anchor="middle" opacity="1.0">A3</text>
<text x="720.0" y="853.0" font-size="16" font-weight="normal" fill="#5a5a5a" text-anchor="start" opacity="1.0">all five run down to the UNO</text>
<text x="284.0" y="342.0" font-size="15" font-weight="bold" fill="#5a5a5a" text-anchor="end" opacity="1.0" stroke="#fbfaf6" stroke-width="5" paint-order="stroke" stroke-linejoin="round">C4</text>
<text x="284.0" y="290.0" font-size="15" font-weight="bold" fill="#5a5a5a" text-anchor="end" opacity="1.0" stroke="#fbfaf6" stroke-width="5" paint-order="stroke" stroke-linejoin="round">D4</text>
<text x="284.0" y="238.0" font-size="15" font-weight="bold" fill="#5a5a5a" text-anchor="end" opacity="1.0" stroke="#fbfaf6" stroke-width="5" paint-order="stroke" stroke-linejoin="round">E4</text>
<text x="284.0" y="446.0" font-size="15" font-weight="bold" fill="#5a5a5a" text-anchor="end" opacity="1.0" stroke="#fbfaf6" stroke-width="5" paint-order="stroke" stroke-linejoin="round">A4</text>
<text x="492.0" y="290.0" font-size="15" font-weight="bold" fill="#5a5a5a" text-anchor="end" opacity="1.0" stroke="#fbfaf6" stroke-width="5" paint-order="stroke" stroke-linejoin="round">D8</text>
<text x="492.0" y="238.0" font-size="15" font-weight="bold" fill="#5a5a5a" text-anchor="end" opacity="1.0" stroke="#fbfaf6" stroke-width="5" paint-order="stroke" stroke-linejoin="round">E8</text>
<text x="492.0" y="446.0" font-size="15" font-weight="bold" fill="#5a5a5a" text-anchor="end" opacity="1.0" stroke="#fbfaf6" stroke-width="5" paint-order="stroke" stroke-linejoin="round">A8</text>
<text x="492.0" y="394.0" font-size="15" font-weight="bold" fill="#5a5a5a" text-anchor="end" opacity="1.0" stroke="#fbfaf6" stroke-width="5" paint-order="stroke" stroke-linejoin="round">B8</text>
<path d="M 562.0 236.0 L 604.0 276.0" stroke="#f08c00" stroke-width="2.5" fill="none"/>
<text x="610.0" y="290.0" font-size="16" font-weight="bold" fill="#f08c00" text-anchor="start" opacity="1.0" stroke="#fbfaf6" stroke-width="6" paint-order="stroke" stroke-linejoin="round">the link jumper</text>
<text x="368.0" y="532.8" font-size="16" font-weight="bold" fill="#1c4a92" text-anchor="start" opacity="1.0" stroke="#fbfaf6" stroke-width="6" paint-order="stroke" stroke-linejoin="round">C2</text>
<text x="582.0" y="532.8" font-size="16" font-weight="bold" fill="#1c4a92" text-anchor="start" opacity="1.0" stroke="#fbfaf6" stroke-width="6" paint-order="stroke" stroke-linejoin="round">C3</text>
<text x="638.0" y="633.6" font-size="16" font-weight="bold" fill="#1c4a92" text-anchor="middle" opacity="1.0" stroke="#fbfaf6" stroke-width="6" paint-order="stroke" stroke-linejoin="round">C1</text>
<text x="724.0" y="368.0" font-size="16" font-weight="bold" fill="#7a5a10" text-anchor="middle" opacity="1.0" stroke="#fbfaf6" stroke-width="6" paint-order="stroke" stroke-linejoin="round">100 R sense</text>
<rect x="980.0" y="150" width="480" height="4" rx="2" fill="#f08c00"/>
<text x="980.0" y="184.0" font-size="17" font-weight="bold" fill="#111" text-anchor="start" opacity="1.0">The orange shading is one single node</text>
<text x="980.0" y="212.0" font-size="15.5" font-weight="normal" fill="#3a3a3a" text-anchor="start" opacity="1.0">Holes A-E of one column are already joined inside</text>
<text x="980.0" y="237.0" font-size="15.5" font-weight="normal" fill="#3a3a3a" text-anchor="start" opacity="1.0">the board. The link jumper joins column 4 to column</text>
<text x="980.0" y="262.0" font-size="15.5" font-weight="normal" fill="#3a3a3a" text-anchor="start" opacity="1.0">8, so all ten of those holes are RETURN. Anything</text>
<text x="980.0" y="287.0" font-size="15.5" font-weight="normal" fill="#3a3a3a" text-anchor="start" opacity="1.0">you plug into any of them is on the same node.</text>
<rect x="980.0" y="320" width="480" height="4" rx="2" fill="#f08c00"/>
<text x="980.0" y="354.0" font-size="17" font-weight="bold" fill="#111" text-anchor="start" opacity="1.0">Three things there, three different jobs</text>
<text x="980.0" y="382.0" font-size="15.5" font-weight="normal" fill="#3a3a3a" text-anchor="start" opacity="1.0">C4  -  female-male jumper, leaves the board for the</text>
<text x="980.0" y="407.0" font-size="15.5" font-weight="normal" fill="#3a3a3a" text-anchor="start" opacity="1.0">cathode pin of the channel under test</text>
<text x="980.0" y="432.0" font-size="15.5" font-weight="normal" fill="#3a3a3a" text-anchor="start" opacity="1.0">E4 to E8  -  the link, lies flat on the board</text>
<text x="980.0" y="457.0" font-size="15.5" font-weight="normal" fill="#3a3a3a" text-anchor="start" opacity="1.0">D8  -  goes to UNO A2, drawn pink so it cannot be</text>
<text x="980.0" y="482.0" font-size="15.5" font-weight="normal" fill="#3a3a3a" text-anchor="start" opacity="1.0">confused with the two orange ones</text>
<rect x="980.0" y="510" width="480" height="4" rx="2" fill="#242424"/>
<text x="980.0" y="544.0" font-size="17" font-weight="bold" fill="#111" text-anchor="start" opacity="1.0">How the rail holes are laid out</text>
<text x="980.0" y="572.0" font-size="15.5" font-weight="normal" fill="#3a3a3a" text-anchor="start" opacity="1.0">First rail hole is under column 3, then five in a row,</text>
<text x="980.0" y="597.0" font-size="15.5" font-weight="normal" fill="#3a3a3a" text-anchor="start" opacity="1.0">a one-hole gap, five more, and so on. They line up</text>
<text x="980.0" y="622.0" font-size="15.5" font-weight="normal" fill="#3a3a3a" text-anchor="start" opacity="1.0">with the numbered columns. The whole strip is one</text>
<text x="980.0" y="647.0" font-size="15.5" font-weight="normal" fill="#3a3a3a" text-anchor="start" opacity="1.0">node, so the exact hole never changes the circuit.</text>
<rect x="980.0" y="680" width="480" height="4" rx="2" fill="#d81e1e"/>
<text x="980.0" y="714.0" font-size="17" font-weight="bold" fill="#111" text-anchor="start" opacity="1.0">What ends up on each rail</text>
<text x="980.0" y="742.0" font-size="15.5" font-weight="normal" fill="#3a3a3a" text-anchor="start" opacity="1.0">A3 taps the GND rail in the SAME five-hole group as the</text>
<text x="980.0" y="767.0" font-size="15.5" font-weight="normal" fill="#3a3a3a" text-anchor="start" opacity="1.0">100 R, so i = (A2 - A3) / R_SENSE is a true difference</text>
<text x="980.0" y="792.0" font-size="15.5" font-weight="normal" fill="#3a3a3a" text-anchor="start" opacity="1.0">GND rail  -  UNO GND, A3, C1, C2, C3, the 100 R</text>
<text x="980.0" y="817.0" font-size="15.5" font-weight="normal" fill="#3a3a3a" text-anchor="start" opacity="1.0">FORCE rail  -  UNO A1, C1, the six bank resistors,</text>
<text x="980.0" y="842.0" font-size="15.5" font-weight="normal" fill="#3a3a3a" text-anchor="start" opacity="1.0">and the female-male jumper to the die anode</text>
</svg>